<?xml version="1.0" encoding="UTF-8"?>
<svg version="1.1" xmlns="http://www.w3.org/2000/svg" width="3264" height="1136">
<path d="M0 0 C2.45331594 0.35979959 3.65774961 0.54893665 5.18836975 2.56619263 C5.6753257 3.58554398 5.6753257 3.58554398 6.17211914 4.62548828 C6.55170273 5.40201752 6.93128632 6.17854675 7.32237244 6.97860718 C7.72259109 7.83386993 8.12280975 8.68913269 8.53515625 9.5703125 C8.96594986 10.46126617 9.39674347 11.35221985 9.84059143 12.27017212 C11.26111674 15.21562578 12.66159099 18.1701728 14.0625 21.125 C15.05179094 23.18460758 16.04253021 25.24352007 17.03466797 27.30175781 C19.06076402 31.50893298 21.07982297 35.71937046 23.09326172 39.93261719 C26.84332996 47.77239182 30.65552332 55.58146689 34.47180176 63.38916016 C36.41864262 67.3747537 38.35939235 71.36331128 40.30078125 75.3515625 C45.1343372 85.27783818 49.97236809 95.20192933 54.8125 105.125 C55.22339874 105.96742249 55.63429749 106.80984497 56.05764771 107.67779541 C63.18249225 122.28394429 70.32027482 136.88375137 77.46005249 151.48260498 C83.85868864 164.56671995 90.24807027 177.65529202 96.625 190.75 C97.01103394 191.54269287 97.39706787 192.33538574 97.7947998 193.15209961 C99.35270985 196.35120777 100.91060386 199.55032374 102.46847534 202.74945068 C106.91321656 211.87622699 111.36217308 221.00094625 115.8125 230.125 C116.22240173 230.96542847 116.63230347 231.80585693 117.05462646 232.67175293 C121.89421425 242.59374969 126.7386925 252.51333902 131.58984375 262.4296875 C132.05696777 263.38456055 132.5240918 264.33943359 133.00537109 265.32324219 C133.47265625 266.2784375 133.93994141 267.23363281 134.42138672 268.21777344 C142.34384274 284.41250201 150.25046242 300.61444899 158.10791016 316.84082031 C163.10047088 327.15029033 168.1082347 337.45228654 173.125 347.75 C173.51497162 348.55056824 173.90494324 349.35113647 174.30673218 350.17596436 C179.0989299 360.01244469 183.90045905 369.84432169 188.7109375 379.671875 C205.73688186 414.45713282 205.73688186 414.45713282 211.86425781 427.35131836 C216.43388852 436.95027369 221.09473863 446.50487587 225.75 456.0625 C226.36057755 457.31700958 226.36057755 457.31700958 226.98348999 458.59686279 C228.1704078 461.03505571 229.35856553 463.47264135 230.546875 465.91015625 C231.11448296 467.07729156 231.11448296 467.07729156 231.69355774 468.26800537 C233.4724479 471.91608762 235.27195274 475.54972154 237.13476562 479.15576172 C237.62870819 480.11789833 237.62870819 480.11789833 238.13262939 481.09947205 C239.01303709 482.80733282 239.90311155 484.51020079 240.79394531 486.21264648 C242 489 242 489 242 493 C188.54 493 135.08 493 80 493 C77.45678993 487.27777734 75.19001924 481.93155494 73.1875 476.0625 C69.98934454 466.96970507 66.49355929 457.98343818 63 449 C17.79 449 -27.42 449 -74 449 C-82.415 469.79 -82.415 469.79 -91 491 C-91.33 491.66 -91.66 492.32 -92 493 C-240.17 493 -388.34 493 -541 493 C-541 339.22 -541 185.44 -541 27 C-495.13 27 -449.26 27 -402 27 C-402 137.22 -402 247.44 -402 361 C-348.21 361 -294.42 361 -239 361 C-237.35310687 362.64689313 -237.85781568 364.55780829 -237.84178162 366.82777405 C-237.82709839 368.3948687 -237.82709839 368.3948687 -237.81211853 369.99362183 C-237.80636307 371.14951813 -237.8006076 372.30541443 -237.79467773 373.49633789 C-237.78477814 374.70592667 -237.77487854 375.91551544 -237.76467896 377.16175842 C-237.73842844 380.48803422 -237.71659244 383.81428521 -237.69667697 387.1406014 C-237.67485505 390.61332779 -237.64744786 394.08600987 -237.62062073 397.55870056 C-237.57064237 404.13892978 -237.5257227 410.71918352 -237.48259836 417.29946083 C-237.43326984 424.78909259 -237.3783355 432.2786799 -237.32291877 439.7682687 C-237.20901982 455.17880476 -237.1021981 470.58938164 -237 486 C-234.69638613 481.41787267 -232.39563785 476.83432089 -230.0973053 472.24954224 C-229.31836931 470.69663617 -228.53871007 469.14409263 -227.758255 467.59194946 C-222.81496676 457.75943491 -218.00894709 447.88632542 -213.4375 437.875 C-208.77585914 427.7092056 -203.90439545 417.67470488 -198.875 407.6875 C-194.46566523 398.93040149 -190.07217602 390.17404977 -185.875 381.3125 C-180.47164295 369.91095009 -174.92312854 358.58162444 -169.375 347.25 C-162.730047 333.67627273 -156.09422016 320.09845194 -149.5 306.5 C-142.5546763 292.17938999 -135.56776047 277.87933144 -128.57272339 263.58294678 C-122.55001818 251.27293268 -116.54232149 238.95590057 -110.5625 226.625 C-102.9865187 211.00393356 -95.35641443 195.40956329 -87.72119141 179.81738281 C-81.44918425 167.00849438 -75.18744973 154.19466507 -68.9375 141.375 C-61.96747999 127.07885168 -54.98733603 112.78769297 -48 98.5 C-31.95482767 65.6885873 -15.94357015 32.86091294 0 0 Z M-3 272 C-7.70841711 281.82121109 -11.65852083 291.95270024 -15.68310547 302.06713867 C-16.86292209 305.03214688 -18.04633575 307.99569771 -19.23046875 310.95898438 C-20.00542104 312.9009568 -20.78016697 314.84301159 -21.5546875 316.78515625 C-21.89660126 317.64206558 -22.23851501 318.49897491 -22.59078979 319.3818512 C-26.11239842 328.23509212 -29.54625792 337.11894894 -33 346 C-13.86 346 5.28 346 25 346 C23.25484891 340.18282971 21.58003744 334.63057563 19.45629883 328.98974609 C19.22177505 328.36405731 18.98725128 327.73836853 18.74562073 327.09371948 C17.98587619 325.06910396 17.22151878 323.04626626 16.45703125 321.0234375 C15.9229438 319.60294278 15.38915064 318.18233738 14.8556366 316.7616272 C13.46285294 313.05510822 12.06612399 309.35008861 10.66851807 305.64538574 C9.23817626 301.85174193 7.81163985 298.05666783 6.38476562 294.26171875 C3.59352892 286.83975486 0.79811521 279.41937338 -2 272 C-2.33 272 -2.66 272 -3 272 Z " fill="#000000" transform="translate(2046,162)"/>
<path d="M0 0 C1.17288225 1.07660087 2.3425361 2.15683965 3.5 3.25 C3.05416318 7.66590756 0.05621977 10.21365688 -2.875 13.25 C-3.97294809 14.41248485 -5.07059784 15.57525154 -6.16796875 16.73828125 C-7.00400635 17.61734131 -7.00400635 17.61734131 -7.85693359 18.51416016 C-10.3307575 21.12766505 -12.76024531 23.78080978 -15.1875 26.4375 C-15.86993774 27.18205444 -15.86993774 27.18205444 -16.56616211 27.94165039 C-19.37441607 31.00782071 -22.16158467 34.09205485 -24.9375 37.1875 C-29.39397711 42.15238091 -33.91948062 47.05134952 -38.44921875 51.94921875 C-44.65316761 58.6578422 -50.83686793 65.3846369 -56.9375 72.1875 C-60.92858814 76.63552847 -64.97812432 81.02683846 -69.03857422 85.41137695 C-72.95495837 89.64542477 -76.82077464 93.92245127 -80.66015625 98.2265625 C-81.26730469 98.89429688 -81.87445312 99.56203125 -82.5 100.25 C-83.24056641 101.15878906 -83.24056641 101.15878906 -83.99609375 102.0859375 C-85.5 103.25 -85.5 103.25 -87.3984375 103.16796875 C-90.05783587 102.00633563 -91.91907136 100.44867677 -94.125 98.5625 C-118.3938808 78.70935443 -150.13653111 71.60744079 -180.93701172 74.47705078 C-210.22412451 78.03670629 -236.58249398 92.97525115 -255.0546875 115.90625 C-273.7792229 140.83263708 -279.82288277 171.94175083 -275.72631836 202.49707031 C-272.38502043 223.32967977 -263.97985678 243.0092087 -250.5 259.25 C-249.45392578 260.54164063 -249.45392578 260.54164063 -248.38671875 261.859375 C-232.38754333 280.69569853 -208.83915337 292.12001662 -184.5 295.25 C-179.74631778 295.54092175 -175.01167073 295.58398825 -170.25 295.5625 C-168.96528809 295.55758545 -167.68057617 295.5526709 -166.35693359 295.54760742 C-157.3546379 295.43626354 -149.16707907 294.83146255 -140.5 292.25 C-138.63601563 291.72212891 -138.63601563 291.72212891 -136.734375 291.18359375 C-115.62050481 284.87959155 -99.6306102 272.4459153 -87.5 254.25 C-130.73 253.59 -173.96 252.93 -218.5 252.25 C-218.5 215.29 -218.5 178.33 -218.5 140.25 C-126.43 140.25 -34.36 140.25 60.5 140.25 C61.19696653 147.91663182 61.75894766 155.45159484 62.0625 163.125 C62.10568359 164.11113281 62.14886719 165.09726562 62.19335938 166.11328125 C65.12586974 237.70377227 43.66813159 305.9480642 -5.11572266 359.00732422 C-13.50302071 367.98398658 -22.6011782 375.61857692 -32.53808594 382.82617188 C-34.26858986 384.08205775 -35.98324787 385.35971601 -37.6953125 386.640625 C-47.67226796 393.88238379 -58.59018158 399.55458874 -69.5 405.25 C-70.34780029 405.69472656 -71.19560059 406.13945313 -72.0690918 406.59765625 C-77.56743531 409.42229756 -83.09010924 411.75181644 -88.9375 413.75 C-89.80165527 414.04624268 -90.66581055 414.34248535 -91.55615234 414.64770508 C-117.28539465 423.31077328 -143.92069409 427.47690625 -171.0625 427.5 C-171.782099 427.50067474 -172.501698 427.50134949 -173.24310303 427.50204468 C-214.03501757 427.44186634 -253.40909811 417.90961748 -289.25341797 398.46826172 C-290.63267711 397.72032615 -292.01405032 396.976254 -293.39892578 396.23876953 C-324.477152 379.66897858 -352.30246044 355.05032817 -372.5 326.25 C-373.15137939 325.34169434 -373.15137939 325.34169434 -373.81591797 324.41503906 C-411.1999113 272.11470343 -424.53863283 204.79062508 -414.28564453 141.6953125 C-406.49011913 97.39671545 -387.55965572 56.74762234 -357.5 23.25 C-356.58435951 22.21118062 -355.66898808 21.17212402 -354.75390625 20.1328125 C-333.86174133 -3.3751379 -307.93704656 -21.4954444 -279.5 -34.75 C-278.85353516 -35.05389648 -278.20707031 -35.35779297 -277.54101562 -35.67089844 C-191.7542661 -75.66203491 -79.38739308 -64.91144691 0 0 Z " fill="#000000" transform="translate(3188.5,237.75)"/>
<path d="M0 0 C3.84391521 1.9219576 6.73232415 4.15621275 9.9375 6.9375 C11.1001946 7.93367057 12.26295694 8.92976209 13.42578125 9.92578125 C14.31450928 10.69075928 14.31450928 10.69075928 15.22119141 11.47119141 C18.01120816 13.86908942 20.8171204 16.24806595 23.625 18.625 C24.16640625 19.08390625 24.7078125 19.5428125 25.265625 20.015625 C28.62757228 22.8591033 32.02014072 25.66058287 35.4375 28.4375 C40.30129025 32.39508188 45.05881231 36.46542446 49.80834961 40.55834961 C53.33298919 43.58945289 56.89039882 46.56985316 60.5 49.5 C65.34596789 53.4337857 70.08098528 57.48447759 74.80859375 61.55859375 C78.33317903 64.58958284 81.89048832 67.56992581 85.5 70.5 C90.34596789 74.4337857 95.08098528 78.48447759 99.80859375 82.55859375 C103.33317903 85.58958284 106.89048832 88.56992581 110.5 91.5 C115.34596789 95.4337857 120.08098528 99.48447759 124.80859375 103.55859375 C128.33317903 106.58958284 131.89048832 109.56992581 135.5 112.5 C140.34596789 116.4337857 145.08098528 120.48447759 149.80859375 124.55859375 C153.33317903 127.58958284 156.89048832 130.56992581 160.5 133.5 C165.34596789 137.4337857 170.08098528 141.48447759 174.80859375 145.55859375 C178.33317903 148.58958284 181.89048832 151.56992581 185.5 154.5 C190.34596789 158.4337857 195.08098528 162.48447759 199.80859375 166.55859375 C203.33317903 169.58958284 206.89048832 172.56992581 210.5 175.5 C215.34596789 179.4337857 220.08098528 183.48447759 224.80859375 187.55859375 C228.33317903 190.58958284 231.89048832 193.56992581 235.5 196.5 C240.34151899 200.43017424 245.07262391 204.47666073 249.79541016 208.54760742 C254.23601125 212.36701301 258.74291084 216.09517417 263.3046875 219.76953125 C266.93273731 222.77187392 270.45594647 225.89895316 274 229 C274.33 162.67 274.66 96.34 275 28 C319.88 28 364.76 28 411 28 C411 190.69 411 353.38 411 521 C406.86806928 521 405.07163555 518.79578261 402.125 516.1875 C400.95326795 515.17301195 399.78138882 514.15869377 398.609375 513.14453125 C398.01060547 512.62197754 397.41183594 512.09942383 396.79492188 511.56103516 C394.01046877 509.13940932 391.19349694 506.75682244 388.375 504.375 C387.83512451 503.91697998 387.29524902 503.45895996 386.73901367 502.98706055 C383.34197283 500.11082753 379.90275334 497.29407801 376.4375 494.5 C372.01257553 490.90114681 367.80116507 487.10889183 363.62304688 483.23095703 C355.35173266 475.58504785 346.6128355 468.4855532 337.87890625 461.37890625 C333.9359872 458.12078183 330.0661729 454.78052945 326.19165039 451.44165039 C322.66701081 448.41054711 319.10960118 445.43014684 315.5 442.5 C310.65403211 438.5662143 305.91901472 434.51552241 301.19140625 430.44140625 C297.66682097 427.41041716 294.10951168 424.43007419 290.5 421.5 C285.09923828 417.11287098 279.825323 412.58776588 274.55078125 408.05078125 C267.28968997 401.80572679 259.99446571 395.6036885 252.5625 389.5625 C247.69870975 385.60491812 242.94118769 381.53457554 238.19165039 377.44165039 C234.66701081 374.41054711 231.10960118 371.43014684 227.5 368.5 C222.09923828 364.11287098 216.825323 359.58776588 211.55078125 355.05078125 C204.28968997 348.80572679 196.99446571 342.6036885 189.5625 336.5625 C184.69870975 332.60491812 179.94118769 328.53457554 175.19165039 324.44165039 C171.66701081 321.41054711 168.10960118 318.43014684 164.5 315.5 C157.88806148 310.1302452 151.45222708 304.55941891 145 299 C142.69 297.02 140.38 295.04 138 293 C137.505 392.495 137.505 392.495 137 494 C91.79 494 46.58 494 0 494 C0 330.98 0 167.96 0 0 Z " fill="#000000" transform="translate(2315,161)"/>
<path d="M0 0 C93.39 0 186.78 0 283 0 C283 41.25 283 82.5 283 125 C235.48 125 187.96 125 139 125 C139 141.83 139 158.66 139 176 C191.8 176 244.6 176 299 176 C299 211.64 299 247.28 299 284 C246.2 284 193.4 284 139 284 C139 302.48 139 320.96 139 340 C146.39877563 339.99214478 146.39877563 339.99214478 153.94702148 339.98413086 C170.19996903 339.96759974 186.45291689 339.95647988 202.70587063 339.94818783 C212.56506719 339.94302445 222.4242558 339.93598095 232.28344727 339.92456055 C240.87347817 339.91461499 249.46350331 339.90814688 258.05353981 339.90591151 C262.60481195 339.90460418 267.15606764 339.90151695 271.70733452 339.89426994 C275.98604819 339.88751175 280.26473853 339.88538263 284.54345703 339.88689232 C286.11850677 339.8866159 287.69355723 339.88460959 289.26860237 339.88079453 C291.40964252 339.8758604 293.55059315 339.87700065 295.69163513 339.87974548 C296.89273139 339.87882369 298.09382765 339.8779019 299.33132076 339.87695217 C302 340 302 340 303 341 C303.09817208 342.60457191 303.12631921 344.21347274 303.12698364 345.82104492 C303.12980347 346.86432953 303.13262329 347.90761414 303.13552856 348.98251343 C303.13249222 350.71400131 303.13249222 350.71400131 303.12939453 352.48046875 C303.13202301 354.29244247 303.13202301 354.29244247 303.13470459 356.14102173 C303.13836278 359.46325954 303.13748968 362.78543543 303.1343255 366.10766983 C303.13180152 369.57723324 303.13413955 373.04679392 303.13571167 376.51635742 C303.13753325 382.34391762 303.13512735 388.17146516 303.13037109 393.99902344 C303.12492849 400.74561292 303.12669116 407.49217219 303.1321975 414.23876095 C303.13672895 420.02134174 303.13737902 425.80391341 303.13475883 431.5864954 C303.13319623 435.04451556 303.13300182 438.50252151 303.13629532 441.96054077 C303.13970839 445.81354964 303.13498377 449.66652439 303.12939453 453.51953125 C303.13141876 454.67385651 303.13344299 455.82818176 303.13552856 457.01748657 C303.13129883 458.58241348 303.13129883 458.58241348 303.12698364 460.17895508 C303.12660662 461.09115311 303.12622959 462.00335114 303.12584114 462.94319153 C303 465 303 465 302 466 C300.38923714 466.097084 298.77419204 466.12371602 297.16050625 466.12304783 C296.10619726 466.1250387 295.05188828 466.12702957 293.96563053 466.12908077 C292.20789893 466.12471178 292.20789893 466.12471178 290.41465759 466.12025452 C289.18356262 466.12111053 287.95246765 466.12196655 286.68406677 466.12284851 C283.24445717 466.12422189 279.80490369 466.12106227 276.36530082 466.11607273 C272.60763443 466.11172473 268.84996959 466.1131661 265.09230137 466.11389065 C257.78874902 466.11442363 250.4852089 466.10979346 243.1816597 466.10338932 C234.73865895 466.09620677 226.29566562 466.09539553 217.85266113 466.09460449 C195.54760547 466.08934799 173.24255256 466.07538696 150.9375 466.0625 C76.2234375 466.0315625 76.2234375 466.0315625 0 466 C0 312.22 0 158.44 0 0 Z " fill="#000000" transform="translate(1158,189)"/>
<path d="M0 0 C45.87 0 91.74 0 139 0 C140.30466028 2.60932056 140.12414938 4.50753432 140.12304783 7.4310627 C140.12503888 8.59153213 140.12702993 9.75200155 140.12908131 10.94763672 C140.12616847 12.23360587 140.12325563 13.51957503 140.12025452 14.84451294 C140.12069023 16.21567297 140.12156515 17.58683293 140.12284368 18.95799243 C140.12508854 22.7388068 140.12106748 26.51959305 140.11606562 30.30040383 C140.11176118 34.37266304 140.11320754 38.44492056 140.1139679 42.5171814 C140.11449313 49.57696028 140.11134634 56.63672994 140.10573006 63.6965065 C140.09761505 73.90385287 140.09499984 84.11119477 140.09374207 94.31854402 C140.09155155 110.87789255 140.08489147 127.43723617 140.07543945 143.99658203 C140.06626533 160.08577449 140.0591845 176.17496561 140.05493164 192.26416016 C140.05466892 193.25531724 140.05440619 194.24647433 140.05413551 195.26766647 C140.0528305 200.23983685 140.05156679 205.21200724 140.05032361 210.18417764 C140.039951 251.45612185 140.02233269 292.72806064 140 334 C140.83913657 333.99907821 141.67827314 333.99815641 142.5428381 333.99720669 C162.93051315 333.97515333 183.31818617 333.95858936 203.70587063 333.94818783 C213.56506719 333.94302445 223.4242558 333.93598095 233.28344727 333.92456055 C241.87347817 333.91461499 250.46350331 333.90814688 259.05353981 333.90591151 C263.60481195 333.90460418 268.15606764 333.90151695 272.70733452 333.89426994 C276.98604819 333.88751175 281.26473853 333.88538263 285.54345703 333.88689232 C287.11850677 333.8866159 288.69355723 333.88460959 290.26860237 333.88079453 C292.40964252 333.8758604 294.55059315 333.87700065 296.69163513 333.87974548 C297.89273139 333.87882369 299.09382765 333.8779019 300.33132076 333.87695217 C303 334 303 334 304 335 C304.09834335 336.68060001 304.12632003 338.36535333 304.12698364 340.04882812 C304.12980347 341.14259766 304.13262329 342.23636719 304.13552856 343.36328125 C304.13249222 345.17892578 304.13249222 345.17892578 304.12939453 347.03125 C304.13202301 348.93100586 304.13202301 348.93100586 304.13470459 350.86914062 C304.13927845 354.35251819 304.13748956 357.83586627 304.1343255 361.31924438 C304.13180166 364.95697105 304.13413951 368.59469512 304.13571167 372.23242188 C304.13753329 378.34245255 304.13512725 384.45247116 304.13037109 390.5625 C304.12492849 397.63627845 304.12669115 404.71002809 304.1321975 411.78380585 C304.13672884 417.84663897 304.13737908 423.9094634 304.13475883 429.97229767 C304.13319617 433.59799167 304.13300199 437.2236721 304.13629532 440.84936523 C304.13970819 444.88917765 304.13498396 448.92894003 304.12939453 452.96875 C304.13141876 454.17917969 304.13344299 455.38960937 304.13552856 456.63671875 C304.13129883 458.27737305 304.13129883 458.27737305 304.12698364 459.95117188 C304.12660662 460.90761597 304.12622959 461.86406006 304.12584114 462.8494873 C304 465 304 465 303 466 C301.39019991 466.0979796 299.77607861 466.12555544 298.16329956 466.12584114 C296.58325984 466.12975276 296.58325984 466.12975276 294.97130013 466.13374341 C293.21409299 466.13039732 293.21409299 466.13039732 291.42138672 466.12698364 C289.57131421 466.12932363 289.57131421 466.12932363 287.6838665 466.13171089 C284.24476206 466.1350243 280.80571175 466.13381161 277.36661053 466.13072467 C273.66377762 466.12847252 269.96094962 466.13194925 266.25811768 466.13470459 C258.99810127 466.13916327 251.73809518 466.13818539 244.47807837 466.13529195 C238.58041645 466.1330383 232.68275744 466.13272523 226.78509521 466.13381577 C225.94736033 466.133969 225.10962545 466.13412223 224.24650466 466.13428011 C222.54493793 466.13459982 220.84337119 466.13492403 219.14180446 466.1352527 C203.16680567 466.13810778 187.19181261 466.13482003 171.21681476 466.12945233 C157.49414968 466.12498427 143.77149305 466.12576019 130.04882812 466.13037109 C114.13300754 466.13571636 98.21719198 466.13783309 82.30137062 466.13475883 C80.60588201 466.13444026 78.9103934 466.13412589 77.21490479 466.13381577 C76.38057918 466.13366149 75.54625358 466.13350721 74.68664539 466.13334826 C68.7925402 466.13248297 62.89843819 466.13394626 57.0043335 466.13629532 C49.82645534 466.13909299 42.64858813 466.13835575 35.47071123 466.13301457 C31.8048419 466.13037712 28.13899086 466.12937324 24.47312164 466.13266373 C20.50827507 466.13616889 16.54345876 466.13199841 12.57861328 466.12698364 C11.40714186 466.12921436 10.23567043 466.13144509 9.02869987 466.13374341 C7.97534006 466.13113566 6.92198025 466.12852791 5.83670044 466.12584114 C4.92021791 466.12567879 4.00373539 466.12551644 3.05948067 466.12534916 C1 466 1 466 0 465 C-0.0988078 462.52914496 -0.13178118 460.08624307 -0.12304783 457.61487484 C-0.12420167 456.82862723 -0.12535552 456.04237962 -0.12654433 455.23230633 C-0.1292183 452.56369938 -0.12468246 449.89515121 -0.12025452 447.22654724 C-0.12069006 445.30765187 -0.12156465 443.38875656 -0.12284368 441.46986157 C-0.12509198 436.17038158 -0.12106282 430.87092159 -0.11606562 425.57144415 C-0.11176607 419.86656863 -0.11320719 414.16169432 -0.1139679 408.45681763 C-0.11449345 398.56393095 -0.11134341 388.67105084 -0.10573006 378.77816582 C-0.09761926 364.47453465 -0.09500027 350.17090668 -0.09374207 335.86727346 C-0.09155088 312.66322273 -0.08489757 289.45917574 -0.07543945 266.25512695 C-0.06625979 243.70825214 -0.05917384 221.16137826 -0.05493164 198.61450195 C-0.05480011 197.91989748 -0.05466859 197.22529301 -0.05453308 196.50963991 C-0.05321459 189.53433858 -0.05193877 182.55903723 -0.05069422 175.58373588 C-0.04024748 117.05582107 -0.02176692 58.52791194 0 0 Z " fill="#000000" transform="translate(820,189)"/>
<path d="M0 0 C1.72430856 0.00061479 3.44861762 0.00034209 5.17292595 -0.00073051 C9.7300084 -0.00117624 14.28698268 0.01029156 18.84403992 0.02449036 C23.14318122 0.03600438 27.44229814 0.03642327 31.74145508 0.0378418 C44.25847749 0.0482757 56.7754804 0.07619819 69.29248047 0.10205078 C97.30123047 0.14330078 125.30998047 0.18455078 154.16748047 0.22705078 C154.16748047 105.49705078 154.16748047 210.76705078 154.16748047 319.22705078 C132.38748047 319.22705078 110.60748047 319.22705078 88.16748047 319.22705078 C88.16748047 235.07705078 88.16748047 150.92705078 88.16748047 64.22705078 C35.64451225 60.56178594 35.64451225 60.56178594 -38.58251953 69.85205078 C-39.27168457 70.11074951 -39.96084961 70.36944824 -40.67089844 70.63598633 C-65.16502563 80.20655799 -83.07746738 98.44657657 -93.68798828 122.26611328 C-103.8029761 146.18575719 -104.6605784 170.01726485 -95.37475586 194.37231445 C-91.19693191 204.67104821 -84.90150257 213.70172632 -77.83251953 222.22705078 C-77.33751953 222.86771484 -76.84251953 223.50837891 -76.33251953 224.16845703 C-62.30789573 241.52392899 -40.69776753 251.67104378 -18.83251953 254.22705078 C-10.20957373 255.08731894 -1.63532843 255.4234923 7.02685547 255.54345703 C8.93244232 255.57462868 8.93244232 255.57462868 10.87652588 255.60643005 C14.21033753 255.66025463 17.54416306 255.71064264 20.87805176 255.75927734 C24.29749164 255.81003577 27.71685625 255.86543445 31.13623047 255.92041016 C37.81325336 256.02683878 44.49033357 256.12872747 51.16748047 256.22705078 C52.50487079 258.90183142 52.29462376 260.95105933 52.296875 263.94604492 C52.30002716 265.14391129 52.30317932 266.34177765 52.306427 267.57594299 C52.30339066 269.52439369 52.30339066 269.52439369 52.30029297 271.51220703 C52.30096629 272.85216794 52.30193655 274.19212874 52.30319214 275.53208923 C52.30466728 278.34065921 52.3025201 281.14919739 52.29785156 283.95776367 C52.29214887 287.5650208 52.29543783 291.17220363 52.30142403 294.77945805 C52.3050299 297.54602116 52.30389103 300.31256653 52.30129623 303.07913017 C52.30030114 305.05845564 52.30334734 307.03778178 52.306427 309.0171051 C52.30169876 310.80917641 52.30169876 310.80917641 52.296875 312.63745117 C52.29607941 313.69509171 52.29528381 314.75273224 52.29446411 315.84242249 C52.16748047 318.22705078 52.16748047 318.22705078 51.16748047 319.22705078 C49.04378389 319.33191154 46.9165565 319.36562075 44.7902832 319.37231445 C43.78985992 319.37735237 43.78985992 319.37735237 42.76922607 319.38249207 C40.54649014 319.39204722 38.32382948 319.39394896 36.10107422 319.39501953 C34.54899566 319.39823439 32.9969174 319.40159863 31.44483948 319.40510559 C28.17537741 319.41111197 24.90594181 319.41294449 21.63647461 319.41235352 C17.49141802 319.41225304 13.34653721 319.4257779 9.20152187 319.44312572 C5.9848405 319.45438444 2.76819935 319.45626836 -0.44849968 319.45574379 C-1.97317027 319.45690806 -3.49784246 319.46124014 -5.02249336 319.46907616 C-52.33017319 319.68900571 -91.93785079 301.73478003 -125.52001953 268.97705078 C-136.80027661 257.68964253 -144.28378791 244.21802003 -151.75439453 230.23242188 C-152.67636909 228.5174991 -153.62664057 226.81784045 -154.58251953 225.12158203 C-157.80855994 219.16516888 -160.02351246 213.05297047 -162.02001953 206.60205078 C-162.25817383 205.84553223 -162.49632812 205.08901367 -162.74169922 204.30957031 C-166.80778033 190.46037257 -168.34164778 176.4385524 -168.22363281 162.04980469 C-168.20751765 159.72677978 -168.223623 157.4054934 -168.24267578 155.08251953 C-168.26358598 140.81651216 -166.39078753 126.75531243 -162.14501953 113.10205078 C-161.89010742 112.27278076 -161.63519531 111.44351074 -161.37255859 110.58911133 C-158.71803786 102.32188083 -155.06701927 94.78628 -150.83251953 87.22705078 C-150.44547852 86.52451172 -150.0584375 85.82197266 -149.65966797 85.09814453 C-139.04954169 65.95024917 -125.59990693 49.37656221 -108.83251953 35.22705078 C-108.29127441 34.76331055 -107.7500293 34.29957031 -107.19238281 33.82177734 C-91.68572837 20.72532504 -72.39340525 11.50262817 -52.83251953 6.22705078 C-52.17944824 6.0473877 -51.52637695 5.86772461 -50.85351562 5.68261719 C-34.07744853 1.13967562 -17.31864509 -0.08251395 0 0 Z " fill="#000000" transform="translate(1340.83251953125,750.77294921875)"/>
<path d="M0 0 C43.6718253 -1.20728601 84.33648582 12.44626756 116.36376953 42.51904297 C118.10175472 44.20522532 119.82598501 45.90570962 121.53564453 47.62060547 C123.08150747 49.16153743 124.65786333 50.6729947 126.27392578 52.14013672 C134.12783734 59.44243576 139.55962991 67.87681542 144.98486328 77.06201172 C145.39655762 77.75746094 145.80825195 78.45291016 146.23242188 79.16943359 C167.77164619 116.17383848 172.78601704 162.0118492 161.98413086 203.25170898 C154.77858755 229.07568125 141.41102264 250.69376301 122.98486328 270.06201172 C122.44200684 270.63741699 121.89915039 271.21282227 121.33984375 271.80566406 C106.16796402 287.79407877 88.45518781 299.74502722 67.98486328 308.06201172 C66.4940625 308.67302734 66.4940625 308.67302734 64.97314453 309.29638672 C57.66063173 312.10023778 50.29797285 314.06435677 42.67236328 315.81201172 C41.75350342 316.02277344 40.83464355 316.23353516 39.88793945 316.45068359 C28.96738864 318.85665596 18.33209909 319.30134965 7.17236328 319.31201172 C6.44075989 319.3130188 5.70915649 319.31402588 4.9553833 319.31506348 C-6.92065031 319.30403019 -18.38830281 318.60244452 -30.01513672 316.06201172 C-31.28099609 315.79517578 -32.54685547 315.52833984 -33.85107422 315.25341797 C-55.52538464 310.0543563 -75.7262239 300.06880472 -93.01513672 286.06201172 C-93.53140625 285.64725586 -94.04767578 285.2325 -94.57958984 284.80517578 C-98.48048124 281.65554962 -102.2775991 278.40361434 -106.01513672 275.06201172 C-106.82966309 274.33570557 -106.82966309 274.33570557 -107.66064453 273.59472656 C-134.56826171 249.2052019 -151.26303649 211.08072703 -154.01513672 175.06201172 C-154.20560916 170.14565242 -154.26013235 165.23159782 -154.26513672 160.31201172 C-154.2661438 159.62526367 -154.26715088 158.93851563 -154.26818848 158.23095703 C-154.25671267 146.625537 -153.46011557 135.42757172 -151.01513672 124.06201172 C-150.74830078 122.79357422 -150.48146484 121.52513672 -150.20654297 120.21826172 C-144.06868142 94.68475768 -131.19202718 71.53660858 -113.25732422 52.45654297 C-111.38620771 50.45829485 -109.62520566 48.42692008 -107.89013672 46.31201172 C-84.63031909 19.03517824 -43.66321907 3.22171233 -8.82763672 0.31201172 C-5.88499251 0.16990523 -2.94440147 0.09060794 0 0 Z M-65.57763672 96.71044922 C-80.77364695 114.28083605 -90.15767962 138.64792956 -89.29638672 162.04638672 C-86.90333347 187.70523546 -78.41444221 207.97805335 -61.01513672 227.06201172 C-60.42087891 227.73876953 -59.82662109 228.41552734 -59.21435547 229.11279297 C-43.67067025 245.89071622 -20.34896267 255.02921463 2.1262207 256.03881836 C29.87407654 256.70238639 54.10601002 246.39048297 74.17236328 227.31201172 C92.14459635 208.64853892 101.71958853 183.84671735 101.98486328 158.06201172 C100.99144424 131.98161827 89.33134837 106.77457186 70.21142578 88.91357422 C27.53799371 53.42724649 -27.04556049 56.88613873 -65.57763672 96.71044922 Z " fill="#000000" transform="translate(2032.01513671875,750.93798828125)"/>
<path d="M0 0 C4.44870215 -0.39253254 7.14243493 0.84694043 11 3 C11 3.66 11 4.32 11 5 C12.11375 5.185625 12.11375 5.185625 13.25 5.375 C15.80141485 5.95486701 17.7267573 6.73708739 20 8 C20 8.66 20 9.32 20 10 C20.7425 10.12375 21.485 10.2475 22.25 10.375 C24.80141485 10.95486701 26.7267573 11.73708739 29 13 C29 13.66 29 14.32 29 15 C29.73734375 15.10699219 30.4746875 15.21398437 31.234375 15.32421875 C34.18618055 16.04549327 35.81436482 17.03087797 38.25 18.8125 C42.61352983 21.85597039 47.07460806 24.02052806 52 26 C52 26.66 52 27.32 52 28 C52.825 28.2475 53.65 28.495 54.5 28.75 C58.52373471 30.18704811 62.21979024 32.02354515 66 34 C66 34.66 66 35.32 66 36 C66.70125 36.0825 67.4025 36.165 68.125 36.25 C71.65698979 37.17138864 74.01928357 38.92645814 77 41 C77.99 41.33 78.98 41.66 80 42 C80 42.66 80 43.32 80 44 C80.57363281 44.11931885 81.14726562 44.2386377 81.73828125 44.36157227 C84.14297541 45.04035845 86.01586825 45.98440076 88.1875 47.21484375 C88.96867188 47.65376953 89.74984375 48.09269531 90.5546875 48.54492188 C91.36164063 49.00447266 92.16859375 49.46402344 93 49.9375 C94.60377318 50.84314508 96.20792698 51.74811654 97.8125 52.65234375 C98.87404297 53.25550415 98.87404297 53.25550415 99.95703125 53.87084961 C101.94655337 54.97046001 103.95962933 55.99844164 106 57 C106 57.66 106 58.32 106 59 C108.97 59.495 108.97 59.495 112 60 C112 60.66 112 61.32 112 62 C112.55558594 62.103125 113.11117187 62.20625 113.68359375 62.3125 C116.47821321 63.14193175 118.5953498 64.45198419 121.0625 66 C123.76080698 67.68796347 125.97148084 68.99049361 129 70 C129 70.66 129 71.32 129 72 C129.66773438 72.0721875 130.33546875 72.144375 131.0234375 72.21875 C135.04193539 73.27347386 138.13281823 75.29692439 141.625 77.5 C146.60015804 80.67158574 146.60015804 80.67158574 152 83 C152 83.66 152 84.32 152 85 C152.71542969 85.10183594 153.43085938 85.20367187 154.16796875 85.30859375 C157.34541039 86.08432778 159.54761835 87.32984083 162.3125 89.0625 C163.19550781 89.61035156 164.07851563 90.15820312 164.98828125 90.72265625 C165.98408203 91.35494141 165.98408203 91.35494141 167 92 C166.59289015 98.19824753 163.58845406 102.72308633 160.5 107.9375 C159.95972168 108.8668335 159.41944336 109.79616699 158.86279297 110.75366211 C155.31399487 116.83843993 151.67595447 122.8679964 148.01586914 128.88623047 C145.26474865 133.45149107 142.87255393 138.13181117 140.55078125 142.92578125 C137.61210416 148.75131996 134.2846512 154.36440556 131 160 C130.34 160 129.68 160 129 160 C128.88213135 160.73371826 128.7642627 161.46743652 128.64282227 162.22338867 C128.00000637 164.99997248 127.11675582 166.95912584 125.71484375 169.42578125 C125.26689453 170.22177734 124.81894531 171.01777344 124.35742188 171.83789062 C123.65456055 173.06282227 123.65456055 173.06282227 122.9375 174.3125 C122.46505859 175.14845703 121.99261719 175.98441406 121.50585938 176.84570312 C120.34332244 178.90069265 119.17457909 180.95187737 118 183 C117.34 183 116.68 183 116 183 C115.9071875 183.69351563 115.814375 184.38703125 115.71875 185.1015625 C114.843875 188.62959104 113.34143888 191.24016952 111.5 194.375 C111.14760254 194.97932861 110.79520508 195.58365723 110.43212891 196.20629883 C107.41163034 201.36581976 104.31375578 206.47989707 101.22119141 211.59643555 C98.51170398 216.09601524 95.95928522 220.66167859 93.48046875 225.29296875 C91.22810377 229.4114092 88.82114756 233.43692683 86.41796875 237.46875 C84.89533344 240.00107021 84.89533344 240.00107021 84 243 C83.34 243 82.68 243 82 243 C81.87326904 243.58773193 81.74653809 244.17546387 81.6159668 244.78100586 C80.62880405 248.33721759 78.65071268 251.38849939 76.8125 254.5625 C76.04731224 255.89663976 75.28300841 257.23128684 74.51953125 258.56640625 C74.11565186 259.2723291 73.71177246 259.97825195 73.2956543 260.70556641 C71.35756495 264.13766809 69.48223726 267.60328353 67.59985352 271.06616211 C64.78502816 276.2280355 61.92609274 281.36506472 59.0625 286.5 C58.48048828 287.55058594 57.89847656 288.60117187 57.29882812 289.68359375 C55.55730495 292.80406384 53.78897807 295.90650758 52 299 C51.38624512 300.06605469 50.77249023 301.13210938 50.14013672 302.23046875 C49.53572754 303.23722656 48.93131836 304.24398438 48.30859375 305.28125 C47.49926392 306.6434668 47.49926392 306.6434668 46.67358398 308.03320312 C45.84515991 309.00676758 45.84515991 309.00676758 45 310 C43.68 310 42.36 310 41 310 C41 309.34 41 308.68 41 308 C39.35 307.67 37.7 307.34 36 307 C36 306.34 36 305.68 36 305 C35.319375 304.9175 34.63875 304.835 33.9375 304.75 C30.86898029 303.96654816 28.48556262 302.67964728 25.78125 301.0546875 C23.25772149 299.56049299 20.63453308 298.28513809 18 297 C18 296.34 18 295.68 18 295 C16.35 294.67 14.7 294.34 13 294 C13 293.34 13 292.68 13 292 C12.01 292 11.02 292 10 292 C10 291.34 10 290.68 10 290 C8.02 289.67 6.04 289.34 4 289 C4 288.34 4 287.68 4 287 C-0.455 285.515 -0.455 285.515 -5 284 C-5 283.34 -5 282.68 -5 282 C-6.65 281.67 -8.3 281.34 -10 281 C-10 280.34 -10 279.68 -10 279 C-10.99 279 -11.98 279 -13 279 C-13 278.34 -13 277.68 -13 277 C-14.98 276.67 -16.96 276.34 -19 276 C-19 275.34 -19 274.68 -19 274 C-20.65 273.67 -22.3 273.34 -24 273 C-24 272.34 -24 271.68 -24 271 C-25.32 271 -26.64 271 -28 271 C-28 270.34 -28 269.68 -28 269 C-29.65 268.67 -31.3 268.34 -33 268 C-33 267.34 -33 266.68 -33 266 C-33.99 266 -34.98 266 -36 266 C-36 265.34 -36 264.68 -36 264 C-37.98 263.67 -39.96 263.34 -42 263 C-42 262.34 -42 261.68 -42 261 C-43.65 260.67 -45.3 260.34 -47 260 C-47 259.34 -47 258.68 -47 258 C-47.99 258 -48.98 258 -50 258 C-50 257.34 -50 256.68 -50 256 C-50.7425 255.87625 -51.485 255.7525 -52.25 255.625 C-54.80141485 255.04513299 -56.7267573 254.26291261 -59 253 C-59 252.34 -59 251.68 -59 251 C-60.98 250.67 -62.96 250.34 -65 250 C-65 249.34 -65 248.68 -65 248 C-66.65 247.67 -68.3 247.34 -70 247 C-70 246.34 -70 245.68 -70 245 C-70.99 245 -71.98 245 -73 245 C-73 244.34 -73 243.68 -73 243 C-73.680625 242.9175 -74.36125 242.835 -75.0625 242.75 C-78.87471553 241.77666838 -81.61246363 240.00742896 -85 238 C-85.99 237.67 -86.98 237.34 -88 237 C-88 236.34 -88 235.68 -88 235 C-88.86625 234.814375 -88.86625 234.814375 -89.75 234.625 C-92.02335767 233.99351176 -93.9253529 233.11141809 -96 232 C-96 231.34 -96 230.68 -96 230 C-96.70125 229.9175 -97.4025 229.835 -98.125 229.75 C-100.96662808 229.00870572 -102.70202069 227.94200855 -105.046875 226.2265625 C-107.67489765 224.57616428 -110.47670458 223.44412025 -113.3125 222.1875 C-118.82234413 219.50758819 -118.82234413 219.50758819 -120.3125 215.25 C-120 212 -120 212 -119 210 C-118.34 210 -117.68 210 -117 210 C-116.87625 209.2575 -116.7525 208.515 -116.625 207.75 C-116.04513299 205.19858515 -115.26291261 203.2732427 -114 201 C-113.34 201 -112.68 201 -112 201 C-111.87625 200.2575 -111.7525 199.515 -111.625 198.75 C-111.04513299 196.19858515 -110.26291261 194.2732427 -109 192 C-108.34 192 -107.68 192 -107 192 C-106.67 190.35 -106.34 188.7 -106 187 C-105.34 187 -104.68 187 -104 187 C-103.814375 185.88625 -103.814375 185.88625 -103.625 184.75 C-103.04513299 182.19858515 -102.26291261 180.2732427 -101 178 C-100.34 178 -99.68 178 -99 178 C-98.67 176.35 -98.34 174.7 -98 173 C-97.34 173 -96.68 173 -96 173 C-96 171.68 -96 170.36 -96 169 C-95.34 169 -94.68 169 -94 169 C-93.88785156 168.27425781 -93.77570313 167.54851562 -93.66015625 166.80078125 C-92.97038613 163.87436007 -91.94489186 161.77712191 -90.4375 159.1875 C-89.98246094 158.39730469 -89.52742188 157.60710937 -89.05859375 156.79296875 C-88.53458984 155.90544922 -88.53458984 155.90544922 -88 155 C-87.34 155 -86.68 155 -86 155 C-85.67 153.35 -85.34 151.7 -85 150 C-84.34 150 -83.68 150 -83 150 C-83 149.01 -83 148.02 -83 147 C-82.34 147 -81.68 147 -81 147 C-80.9071875 145.7934375 -80.9071875 145.7934375 -80.8125 144.5625 C-79.73463007 139.8364549 -77.48408581 136.12486573 -75 132 C-74.34 132 -73.68 132 -73 132 C-72.67 130.35 -72.34 128.7 -72 127 C-71.34 127 -70.68 127 -70 127 C-70 126.01 -70 125.02 -70 124 C-69.34 124 -68.68 124 -68 124 C-67.938125 123.195625 -67.87625 122.39125 -67.8125 121.5625 C-66.73463007 116.8364549 -64.48408581 113.12486573 -62 109 C-61.34 109 -60.68 109 -60 109 C-59.814375 107.8553125 -59.814375 107.8553125 -59.625 106.6875 C-59 104 -59 104 -57 101 C-56.34 101 -55.68 101 -55 101 C-54.67 99.02 -54.34 97.04 -54 95 C-53.34 95 -52.68 95 -52 95 C-51.86271484 94.21882813 -51.86271484 94.21882813 -51.72265625 93.421875 C-50.73873748 90.12441749 -49.09859834 87.24326632 -47.4375 84.25 C-47.10814453 83.64800781 -46.77878906 83.04601562 -46.43945312 82.42578125 C-45.6303535 80.94829497 -44.81572338 79.47383964 -44 78 C-43.34 78 -42.68 78 -42 78 C-41.67 76.02 -41.34 74.04 -41 72 C-40.34 72 -39.68 72 -39 72 C-39 71.01 -39 70.02 -39 69 C-38.34 69 -37.68 69 -37 69 C-36.9071875 68.30132812 -36.814375 67.60265625 -36.71875 66.8828125 C-35.85576546 63.42149407 -34.35873386 60.91448693 -32.5 57.875 C-29.89393108 53.60317592 -29.89393108 53.60317592 -28 49 C-27.34 49 -26.68 49 -26 49 C-26 48.01 -26 47.02 -26 46 C-25.34 46 -24.68 46 -24 46 C-23.67 44.35 -23.34 42.7 -23 41 C-22.34 41 -21.68 41 -21 41 C-20.896875 40.28070313 -20.79375 39.56140625 -20.6875 38.8203125 C-19.92518285 35.69307965 -18.72285625 33.58352881 -17 30.875 C-15.30329901 28.19127583 -14.00743074 26.02229222 -13 23 C-12.34 23 -11.68 23 -11 23 C-10.67 21.35 -10.34 19.7 -10 18 C-9.34 18 -8.68 18 -8 18 C-7.896875 17.28070313 -7.79375 16.56140625 -7.6875 15.8203125 C-6.92518285 12.69307965 -5.72285625 10.58352881 -4 7.875 C-2.30329901 5.19127583 -1.00743074 3.02229222 0 0 Z " fill="#000000" transform="translate(279,265)"/>
<path d="M0 0 C1.62754121 -0.00346158 3.25508007 -0.00822949 4.88261408 -0.01418173 C9.3307397 -0.02665259 13.7786711 -0.02053927 18.22679722 -0.01122308 C23.03326079 -0.00441688 27.83969167 -0.01492155 32.64614868 -0.02316284 C42.05215663 -0.03648532 51.45809265 -0.03362914 60.86410338 -0.02492492 C68.5096426 -0.01814334 76.15516169 -0.01723371 83.80070305 -0.02049637 C85.43437511 -0.02118592 85.43437511 -0.02118592 87.10105066 -0.0218894 C89.31371448 -0.02284859 91.52637829 -0.02382123 93.7390421 -0.02480717 C114.47471697 -0.03335661 135.21035202 -0.02353371 155.94602036 -0.00740607 C173.73124033 0.00599859 191.51640157 0.00366692 209.30162048 -0.01016235 C229.96583426 -0.02622278 250.63001316 -0.03253466 271.29423231 -0.02332556 C273.49834438 -0.02236993 275.70245645 -0.02142682 277.90656853 -0.02049637 C279.53317972 -0.01980213 279.53317972 -0.01980213 281.19265174 -0.01909386 C288.82792689 -0.01650551 296.46317989 -0.02087161 304.09845161 -0.02793503 C313.40474828 -0.03635527 322.71096905 -0.03405875 332.01725704 -0.0180928 C336.76381438 -0.01021747 341.51024525 -0.00710596 346.25680161 -0.01704025 C350.60485143 -0.02600277 354.95265795 -0.02102869 359.30068582 -0.0051076 C360.87050866 -0.00176641 362.4403522 -0.00343891 364.01016165 -0.01073496 C374.75179277 -0.05681565 383.80416522 0.99016779 393.41172791 6.06845093 C394.24961853 6.50544312 395.08750916 6.9424353 395.95079041 7.39266968 C396.55664978 7.71880249 397.16250916 8.0449353 397.78672791 8.38095093 C397.78672791 9.04095093 397.78672791 9.70095093 397.78672791 10.38095093 C398.34360291 10.62845093 398.90047791 10.87595093 399.47422791 11.13095093 C410.3647289 17.01770822 416.30597431 28.9365622 419.78672791 40.38095093 C421.33150081 50.60107222 420.97295033 61.1790219 420.97203064 71.49423218 C420.97424046 74.2717267 420.99253128 77.04883754 421.01133728 79.82626343 C421.01426813 81.61272042 421.01625499 83.39917927 421.01719666 85.18563843 C421.02438217 86.00555267 421.03156769 86.82546692 421.03897095 87.67022705 C421.01945753 92.60696097 420.51389093 96.73443058 418.78672791 101.38095093 C415.72158069 102.91352453 412.51642691 102.51572133 409.15361595 102.50399876 C407.95225329 102.50572952 407.95225329 102.50572952 406.72662067 102.50749525 C404.01416333 102.51016462 401.30176408 102.50563713 398.58930969 102.50120544 C396.63655287 102.50164108 394.6837961 102.50251585 392.73103964 102.50379461 C387.34260653 102.50604106 381.95419312 102.50201624 376.56576252 102.49701655 C370.76342581 102.49271438 364.96109029 102.49415831 359.15875244 102.49491882 C349.09836436 102.49544421 339.03798274 102.49229591 328.97759628 102.48668098 C314.43180844 102.47856793 299.8860236 102.47594762 285.34023376 102.47469299 C261.74296963 102.47259115 238.14570888 102.46584982 214.54844666 102.45639038 C191.62038694 102.4472098 168.69232815 102.4401243 145.76426697 102.43588257 C145.05784157 102.43575104 144.35141618 102.43561952 143.62358396 102.435484 C136.52953504 102.43416551 129.43548611 102.43288969 122.34143718 102.43164514 C107.8893323 102.42910876 93.43722748 102.42628751 78.98512268 102.42329407 C78.320601 102.42315678 77.65607932 102.42301949 76.97142062 102.42287804 C32.57652164 102.41367341 -11.81837545 102.39780698 -56.21327209 102.38095093 C-56.21327209 101.72095093 -56.21327209 101.06095093 -56.21327209 100.38095093 C-56.87327209 100.38095093 -57.53327209 100.38095093 -58.21327209 100.38095093 C-58.2830902 92.84381494 -58.33624371 85.30671292 -58.36870861 77.76932621 C-58.38429809 74.26857562 -58.4054115 70.7680479 -58.43959045 67.26742554 C-58.47872415 63.23363222 -58.49303672 59.20006936 -58.50624084 55.16610718 C-58.5217247 53.92200577 -58.53720856 52.67790436 -58.55316162 51.39610291 C-58.55448912 44.47988196 -57.97443183 38.75075453 -55.21327209 32.38095093 C-54.61385803 30.9674939 -54.61385803 30.9674939 -54.00233459 29.52548218 C-51.53734777 24.58723676 -49.07756588 20.34968509 -45.21327209 16.38095093 C-44.55327209 16.38095093 -43.89327209 16.38095093 -43.21327209 16.38095093 C-42.88327209 15.39095093 -42.55327209 14.40095093 -42.21327209 13.38095093 C-41.55327209 13.38095093 -40.89327209 13.38095093 -40.21327209 13.38095093 C-40.21327209 12.72095093 -40.21327209 12.06095093 -40.21327209 11.38095093 C-37.65180639 9.08446444 -36.73359637 8.38095093 -33.21327209 8.38095093 C-33.21327209 7.72095093 -33.21327209 7.06095093 -33.21327209 6.38095093 C-31.23327209 6.05095093 -29.25327209 5.72095093 -27.21327209 5.38095093 C-27.21327209 4.72095093 -27.21327209 4.06095093 -27.21327209 3.38095093 C-18.16519491 0.21329146 -9.46870109 -0.04407623 0 0 Z " fill="#000000" transform="translate(65.21327209472656,850.6190490722656)"/>
<path d="M0 0 C1.69380632 1.51443198 3.37534395 3.04272281 5.04296875 4.5859375 C7.04850867 6.42377869 9.10562418 8.14586449 11.20703125 9.87109375 C36.54011082 32.15199506 56.06239647 69.90819849 58.62537289 103.53195 C58.71276028 104.99948556 58.79581821 106.46728341 58.87522888 107.93527222 C58.93978213 109.12332059 58.93978213 109.12332059 59.00563949 110.33536994 C59.42089459 118.54749551 59.46593175 126.74466574 59.44555664 134.96533203 C59.44527352 136.60343423 59.44543493 138.24153655 59.44599915 139.87963867 C59.44628226 144.262742 59.44046521 148.64581712 59.43342519 153.02891397 C59.42710969 157.63327797 59.42658144 162.23764284 59.42539978 166.8420105 C59.42231036 175.53249555 59.41412967 184.2229678 59.40405029 192.91344726 C59.39281432 202.81935764 59.38735997 212.72526868 59.38235486 222.63118386 C59.37194466 242.98199586 59.35362943 263.33279034 59.33203125 283.68359375 C37.55203125 283.68359375 15.77203125 283.68359375 -6.66796875 283.68359375 C-6.68984253 276.43406738 -6.68984253 276.43406738 -6.7121582 269.03808594 C-6.76265021 253.01271212 -6.82912384 236.98743342 -6.90368366 220.96215439 C-6.94847326 211.25261273 -6.98792579 201.54310638 -7.0144043 191.83349609 C-7.03752175 183.36150802 -7.07107039 174.88963327 -7.11667031 166.41773534 C-7.140419 161.94018379 -7.15926701 157.46274319 -7.16558266 152.98513031 C-6.90704945 105.0158416 -6.90704945 105.0158416 -29.421875 64.0703125 C-31.66796875 61.68359375 -31.66796875 61.68359375 -34.03125 58.734375 C-36.7714751 55.41603888 -39.8968695 52.80832146 -43.29296875 50.18359375 C-43.90833496 49.70583496 -44.52370117 49.22807617 -45.15771484 48.73583984 C-50.37320273 44.76580128 -55.72690421 41.4738336 -61.66796875 38.68359375 C-62.621875 38.23371094 -63.57578125 37.78382813 -64.55859375 37.3203125 C-85.2872471 28.12265087 -109.8326282 27.06113728 -131.359375 34.37109375 C-154.92290947 43.71861155 -175.31870476 59.9993224 -186.32421875 83.35546875 C-187.88833806 87.22939216 -189.20975262 91.12347818 -190.41796875 95.12109375 C-190.71622559 96.10372192 -190.71622559 96.10372192 -191.02050781 97.10620117 C-194.41451375 109.09437736 -194.97059753 121.12098791 -194.98681641 133.48950195 C-194.99613654 135.13672364 -195.00630823 136.78394068 -195.01725769 138.43115234 C-195.04433702 142.86204963 -195.05964089 147.29291554 -195.07268572 151.72387338 C-195.08841384 156.36967801 -195.11517271 161.01541943 -195.14071655 165.66117859 C-195.18733411 174.44033998 -195.22416012 183.21951349 -195.25738943 191.99873465 C-195.29573176 202.00130348 -195.34510983 212.00380854 -195.39537358 222.00632346 C-195.49844 242.56537215 -195.58632557 263.12444805 -195.66796875 283.68359375 C-217.44796875 283.68359375 -239.22796875 283.68359375 -261.66796875 283.68359375 C-261.69059671 262.05544508 -261.708995 240.42730609 -261.71978092 218.79914856 C-261.72492351 208.75541763 -261.73192715 198.7116946 -261.7434082 188.66796875 C-261.75341754 179.90749449 -261.75983697 171.14702596 -261.76205724 162.38654613 C-261.76335379 157.75375343 -261.7663721 153.12097712 -261.77369881 148.4881897 C-261.78055793 144.11504016 -261.78256589 139.74191356 -261.78107643 135.36875916 C-261.78134836 133.77582168 -261.78329417 132.18288333 -261.78717422 130.58995056 C-261.85263668 102.29273997 -261.85263668 102.29273997 -258.60546875 89.55859375 C-258.28219604 88.25607666 -258.28219604 88.25607666 -257.95239258 86.92724609 C-252.26434136 64.95756607 -243.44016042 45.66258391 -229.66796875 27.68359375 C-228.93707031 26.72710938 -228.20617188 25.770625 -227.453125 24.78515625 C-201.60933367 -7.83503606 -163.52508856 -29.40727662 -122.15844727 -34.29638672 C-78.96112399 -38.86521521 -33.37834811 -28.98002991 0 0 Z " fill="#000000" transform="translate(1787.66796875,786.31640625)"/>
<path d="M0 0 C1.67270617 1.49756698 3.33124606 3.01116413 4.97265625 4.54296875 C6.99874371 6.43042918 9.0781878 8.21339461 11.19921875 9.9921875 C41.81537217 36.85816952 56.04884376 76.20846435 58.99450493 115.90869713 C59.36676592 122.65238592 59.32948061 129.39640943 59.31274414 136.14770508 C59.31246138 137.76536558 59.31262173 139.38302621 59.31318665 141.00068665 C59.31347116 145.35102924 59.30763073 149.70134373 59.30061269 154.05167985 C59.29432121 158.61336512 59.2937708 163.17505117 59.29258728 167.73674011 C59.28949094 176.35655976 59.28130063 184.97636659 59.27123779 193.59618062 C59.26002369 203.41733337 59.25455291 213.23848677 59.24954236 223.05964434 C59.23911644 243.24550079 59.22079227 263.43133968 59.19921875 283.6171875 C37.41921875 283.6171875 15.63921875 283.6171875 -6.80078125 283.6171875 C-6.81012695 278.62746826 -6.81947266 273.63774902 -6.82910156 268.49682617 C-6.86295741 251.96053606 -6.91835595 235.42436903 -6.98468399 218.88817883 C-7.02435504 208.86807707 -7.05680779 198.84805249 -7.07177734 188.82788086 C-7.08485611 180.08596674 -7.11197784 171.34422331 -7.15539432 162.60240537 C-7.17787026 157.98121148 -7.19370036 153.360227 -7.1926651 148.73897362 C-7.19324588 116.38602482 -9.09326072 86.14114468 -31.80078125 60.6171875 C-32.4040625 59.93140625 -33.00734375 59.245625 -33.62890625 58.5390625 C-50.26678023 40.78267598 -77.09866913 29.04406471 -101.30078125 28.2421875 C-125.18259385 29.09893414 -148.26689318 39.67461028 -165.80078125 55.6171875 C-166.45433594 56.20113281 -167.10789062 56.78507813 -167.78125 57.38671875 C-185.7366432 74.31155958 -194.32395164 100.81971804 -195.15870607 124.96712136 C-195.22963963 128.58082683 -195.23731056 132.19284517 -195.2331543 135.80712891 C-195.24220403 137.43538642 -195.2525389 139.06363721 -195.26403809 140.69187927 C-195.29125799 145.04813123 -195.30084409 149.40425278 -195.30689216 153.76057863 C-195.31636854 158.33696798 -195.3425782 162.91326331 -195.36689758 167.48959351 C-195.41031432 176.12692952 -195.43901287 184.76424703 -195.46222097 193.40165842 C-195.48940694 203.24716713 -195.53330931 213.09258008 -195.57850969 222.93801999 C-195.6709998 243.16437083 -195.74063681 263.39071283 -195.80078125 283.6171875 C-217.58078125 283.6171875 -239.36078125 283.6171875 -261.80078125 283.6171875 C-261.84609783 262.46654298 -261.88286861 241.31593836 -261.90440559 220.16525745 C-261.91467569 210.34249433 -261.92865341 200.51976372 -261.95166016 190.69702148 C-261.97172576 182.12584191 -261.9845286 173.55468591 -261.98895824 164.98348349 C-261.99154355 160.45390791 -261.99752877 155.92439973 -262.01224136 151.39484596 C-262.18523317 95.89603748 -253.4983742 50.78071815 -213.80078125 9.6171875 C-211.24144888 7.1332775 -208.5733587 4.85915099 -205.80078125 2.6171875 C-204.785 1.77542969 -203.76921875 0.93367187 -202.72265625 0.06640625 C-145.58845326 -46.6128266 -56.92478319 -48.42973186 0 0 Z " fill="#000000" transform="translate(2491.80078125,786.3828125)"/>
<path d="M0 0 C9.32743221 -0.27923253 18.65340635 -0.49184014 27.98412037 -0.62174606 C32.31799213 -0.68412888 36.64898601 -0.76857683 40.98120117 -0.90527344 C45.17010457 -1.03660612 49.35625929 -1.10759513 53.54706383 -1.13852692 C55.13770504 -1.16053752 56.72821164 -1.20352594 58.31766701 -1.26876068 C71.36917541 -1.7826415 71.36917541 -1.7826415 76.34408569 2.56018066 C79.22261245 5.48600035 81.60130633 8.67422766 84 12 C85.49054686 13.82028193 86.9890208 15.63414254 88.5 17.4375 C89.221875 18.33339844 89.94375 19.22929688 90.6875 20.15234375 C93.24866847 23.30621505 95.86727297 26.40590937 98.5 29.5 C102.62136492 34.34929246 106.66992073 39.2516169 110.6875 44.1875 C113.26146392 47.31799666 115.87569086 50.41172461 118.5 53.5 C122.62101634 58.34959381 126.66991354 63.25160806 130.6875 68.1875 C133.26146392 71.31799666 135.87569086 74.41172461 138.5 77.5 C142.60902871 82.33548683 146.64664554 87.22282946 150.65234375 92.14453125 C155.04003634 97.48130877 159.52385012 102.73738641 164 108 C167.54208647 105.32649474 170.31740975 102.60528783 173.0625 99.125 C176.62827006 94.67520375 180.27271491 90.31527611 184 86 C188.31996519 80.9874022 192.55099071 75.91460276 196.72265625 70.77734375 C199.28204054 67.65603633 201.88593791 64.5754997 204.5 61.5 C207.87283589 57.53096457 211.21176645 53.53982979 214.5 49.5 C218.24787798 44.8954642 222.06983444 40.35980809 225.9140625 35.8359375 C228.81244823 32.4194046 231.671551 28.97495162 234.5 25.5 C243.78636588 14.09627601 243.78636588 14.09627601 248.61036682 8.70259094 C250.04214667 7.05444469 250.04214667 7.05444469 250.99180603 5.18608093 C252.45277287 2.83005914 253.67128183 1.53873771 256 0 C261.51641487 -1.00724837 266.96641785 -0.81513462 272.5546875 -0.68359375 C274.18276843 -0.67052736 275.810877 -0.6605681 277.43899536 -0.65357971 C281.7107835 -0.62693497 285.98088823 -0.55824696 290.25201416 -0.48065186 C294.61569446 -0.4088631 298.97964857 -0.37703507 303.34375 -0.34179688 C311.8966033 -0.26686943 320.44809187 -0.14750271 329 0 C328.23581406 4.68149505 326.78016196 6.84937417 323.625 10.4375 C322.70780539 11.49972466 321.79251098 12.5635924 320.87890625 13.62890625 C320.40340332 14.18078613 319.92790039 14.73266602 319.43798828 15.30126953 C317.06954762 18.09916598 314.81582705 20.98416008 312.5625 23.875 C312.10568848 24.45950928 311.64887695 25.04401855 311.17822266 25.64624023 C310.24863816 26.83632343 309.31960254 28.02683555 308.39111328 29.21777344 C306.1015477 32.15105331 303.8003531 35.07517771 301.5 38 C298.76898995 41.47310608 296.03972459 44.94748926 293.3203125 48.4296875 C288.42266446 54.69387276 283.4673397 60.90381258 278.4375 67.0625 C273.67142808 72.90072869 269.02383218 78.81179458 264.44921875 84.80078125 C257.3915815 94.03961182 250.1212591 103.10164114 242.76855469 112.10644531 C238.58895445 117.23967983 234.54137161 122.45953058 230.52734375 127.72265625 C227.73985643 131.35932654 224.87166676 134.9296719 222 138.5 C216.56582239 145.2574266 211.25650068 152.10375021 206 159 C207.68517708 162.89105495 210.24577172 166.02940604 212.875 169.3125 C213.60420654 170.23228638 213.60420654 170.23228638 214.34814453 171.1706543 C216.86608552 174.342036 219.40040393 177.50018411 221.9375 180.65625 C222.91677615 181.87491203 223.89594197 183.09366273 224.875 184.3125 C225.3712085 184.9297998 225.86741699 185.54709961 226.37866211 186.18310547 C230.13918211 190.87938698 233.80055565 195.6451306 237.4375 200.4375 C242.20998428 206.72461783 247.11828174 212.87841971 252.12475586 218.98022461 C256.58705382 224.43995374 260.86682442 230.02496781 265.125 235.64453125 C268.82427778 240.50872583 272.62380416 245.27588632 276.5 250 C280.94614016 255.41873332 285.26676451 260.91337628 289.5 266.5 C294.31563436 272.85498105 299.26895013 279.07557701 304.32055664 285.24414062 C311.02126924 293.44150576 317.43782471 301.85164464 323.75 310.3515625 C324.91750289 311.89120693 326.14438946 313.38531356 327.375 314.875 C329 317 329 317 329 319 C319.54227969 319.3024702 310.08624566 319.53280667 300.6247282 319.67355824 C296.23008513 319.74114915 291.83877137 319.83264346 287.44604492 319.98071289 C283.19874263 320.12296878 278.95462022 320.19988762 274.70511818 320.23340416 C273.09207909 320.25725389 271.47919634 320.30383645 269.86752892 320.37449074 C257.62364605 320.88943752 257.62364605 320.88943752 253.26511002 317.75060654 C250.06981464 314.72221192 247.54088478 311.3010612 245.11590004 307.64165306 C243.40661602 305.1270449 241.45235927 302.82772811 239.5 300.5 C238.778125 299.613125 238.05625 298.72625 237.3125 297.8125 C234.2756723 294.1190609 231.18039045 290.47701514 228.08374023 286.83374023 C225.2045468 283.44045891 222.36795763 280.01732214 219.5625 276.5625 C216.10725849 272.31607618 212.57302166 268.14703706 209 264 C204.68071044 258.98680512 200.44902881 253.9146268 196.27734375 248.77734375 C193.71795783 245.65603433 191.11398455 242.57556761 188.5 239.5 C183.59443586 233.72460077 178.78192067 227.8783046 174 222 C172.31377838 219.93645121 170.62557579 217.8745333 168.9375 215.8125 C167.625 214.20833333 166.3125 212.60416667 165 211 C161.19609481 214.70672513 157.68814618 218.57870831 154.25 222.625 C153.72414307 223.24109131 153.19828613 223.85718262 152.65649414 224.49194336 C148.8030572 229.0203323 145.02560313 233.60680699 141.27734375 238.22265625 C138.71795946 241.34396367 136.11406209 244.4245003 133.5 247.5 C130.12716411 251.46903543 126.78823355 255.46017021 123.5 259.5 C119.75147354 264.1053325 115.92915754 268.64204444 112.08374023 273.16625977 C109.2045468 276.55954109 106.36795763 279.98267786 103.5625 283.4375 C100.10725714 287.68392548 96.57298808 291.85293201 93 296 C84.16351755 305.93197571 84.16351755 305.93197571 76.33184814 316.6146698 C74 319 74 319 70.70965576 319.60127258 C69.40393616 319.59016953 68.09821655 319.57906647 66.75292969 319.56762695 C66.03058136 319.56835709 65.30823303 319.56908722 64.56399536 319.56983948 C62.18251771 319.5663631 59.80300976 319.52750427 57.421875 319.48828125 C55.76850452 319.47895319 54.1151202 319.47183704 52.46173096 319.46684265 C48.11468195 319.44777201 43.76847122 319.39867146 39.42175293 319.34332275 C34.98440898 319.29213121 30.54692927 319.26932886 26.109375 319.24414062 C17.40586575 319.19055203 8.70303721 319.10523942 0 319 C2.22782463 315.22475645 4.61929268 311.77519512 7.3125 308.3125 C7.74054932 307.76070068 8.16859863 307.20890137 8.60961914 306.64038086 C9.55589339 305.42140317 10.50346658 304.20343301 11.45214844 302.98632812 C13.09866702 300.87338251 14.74100258 298.75723111 16.3828125 296.640625 C23.1161917 287.9651759 29.87983875 279.31397287 36.67333984 270.68554688 C38.95086206 267.79191173 41.22524007 264.89580677 43.5 262 C44.4166523 260.83332204 45.33331895 259.66665536 46.25 258.5 C46.930625 257.63375 46.930625 257.63375 47.625 256.75 C63.66666667 236.33333333 79.70833333 215.91666667 95.75 195.5 C96.2039917 194.92217773 96.6579834 194.34435547 97.12573242 193.74902344 C98.03990015 192.58556677 98.95412516 191.42215511 99.8684082 190.25878906 C102.198787 187.29338101 104.52808115 184.32713143 106.85546875 181.359375 C112.20175901 174.54434382 117.5718394 167.75020545 123 161 C121.45198095 156.02354613 118.48702272 152.66097273 115.1875 148.75 C110.49661807 143.0905766 105.93217126 137.36425955 101.5 131.5 C96.70096146 125.16718093 91.77061279 118.96201787 86.73876953 112.81298828 C81.85755671 106.84476408 77.08815899 100.79422404 72.34277344 94.71777344 C70.06766067 91.80728372 67.7833163 88.90405504 65.5 86 C64.58329022 84.83336721 63.66662352 83.66670056 62.75 82.5 C62.069375 81.63375 62.069375 81.63375 61.375 80.75 C52.66666667 69.66666667 43.95833333 58.58333333 35.25 47.5 C34.7964917 46.92282227 34.3429834 46.34564453 33.87573242 45.75097656 C32.95656687 44.58109984 32.03745905 43.41117777 31.1184082 42.24121094 C28.86543906 39.37328843 26.61156277 36.5060901 24.35546875 33.640625 C22.56220984 31.36293278 20.77227332 29.08268317 18.984375 26.80078125 C16.75526391 23.9564538 14.51194522 21.12372071 12.265625 18.29296875 C10.98938343 16.6746368 9.7133396 15.05614888 8.4375 13.4375 C7.8293042 12.6753418 7.2211084 11.91318359 6.59448242 11.12792969 C6.02576416 10.40379883 5.4570459 9.67966797 4.87109375 8.93359375 C4.36505615 8.29478271 3.85901855 7.65597168 3.33764648 6.99780273 C1.83976575 4.76068683 0.96673304 2.5055991 0 0 Z " fill="#000000" transform="translate(821,751)"/>
<path d="M0 0 C4.48334891 -0.40683747 6.79473577 0.75669106 10.5625 3.125 C16.55568993 6.77559905 22.69600961 9.92746687 29 13 C31.00093197 13.99813389 33.00118064 14.99764221 35 16 C35 16.66 35 17.32 35 18 C35.7425 18.12375 36.485 18.2475 37.25 18.375 C39.80141485 18.95486701 41.7267573 19.73708739 44 21 C44 21.66 44 22.32 44 23 C45.00353516 23.11794922 45.00353516 23.11794922 46.02734375 23.23828125 C49.96780816 24.24799289 53.07651731 26.13314863 56.5625 28.1875 C62.30702081 31.5008634 68.08342449 34.6304464 74.05859375 37.515625 C78.10655267 39.55841967 82.04736456 41.77953589 86 44 C88.34716501 45.31598576 90.69459621 46.63148264 93.04296875 47.9453125 C94.6221655 48.82881621 96.20025995 49.71429259 97.77734375 50.6015625 C98.92009766 51.23964844 98.92009766 51.23964844 100.0859375 51.890625 C100.7670459 52.27250977 101.4481543 52.65439453 102.14990234 53.04785156 C104.13963411 54.13151346 104.13963411 54.13151346 107 55 C107 55.66 107 56.32 107 57 C107.56460938 57.11859375 108.12921875 57.2371875 108.7109375 57.359375 C111.21857014 58.0611698 113.31024122 59.05869092 115.625 60.25 C116.49125 60.69214844 117.3575 61.13429688 118.25 61.58984375 C119.1575 62.05519531 120.065 62.52054687 121 63 C122.87398043 63.93953638 124.74893527 64.8771325 126.625 65.8125 C128.8125 66.90625 128.8125 66.90625 131 68 C131 68.66 131 69.32 131 70 C131.57709717 70.12366943 132.15419434 70.24733887 132.7487793 70.37475586 C135.05625575 71.01562423 136.90969273 71.87757515 139.01953125 73.00390625 C140.17110718 73.61443848 140.17110718 73.61443848 141.34594727 74.23730469 C142.15990967 74.67461914 142.97387207 75.11193359 143.8125 75.5625 C144.65546631 76.01141602 145.49843262 76.46033203 146.36694336 76.92285156 C148.08995348 77.84087942 149.81204301 78.76063724 151.53320312 79.68212891 C153.76267981 80.87321315 155.99691761 82.05446543 158.234375 83.23046875 C163.69720495 86.10848413 169.11112069 89.01566556 174.375 92.25 C178.7484424 94.93570456 183.25665967 97.05225156 188 99 C188 99.66 188 100.32 188 101 C189.11375 101.185625 189.11375 101.185625 190.25 101.375 C192.80141485 101.95486701 194.7267573 102.73708739 197 104 C197 104.66 197 105.32 197 106 C197.66902344 106.07863281 198.33804688 106.15726563 199.02734375 106.23828125 C202.9677826 107.24798634 206.07657954 109.13308869 209.5625 111.1875 C214.3979406 113.97785571 219.22857077 116.677302 224.25 119.125 C229.30587397 121.59827889 234.11577124 124.38092763 238.953125 127.25390625 C243.85498022 130.06304636 248.9163445 132.53929441 254 135 C254 135.66 254 136.32 254 137 C255.98 137.33 257.96 137.66 260 138 C260 138.66 260 139.32 260 140 C260.72703125 140.10699219 261.4540625 140.21398437 262.203125 140.32421875 C265.2163034 141.05226325 267.15485742 142.13753052 269.75 143.8125 C274.34177738 146.67374266 279.00067112 148.94713548 284 151 C284 151.66 284 152.32 284 153 C284.8353125 153.17088135 284.8353125 153.17088135 285.6875 153.34521484 C288.34230184 154.09692288 290.55447374 155.19784704 293 156.4765625 C293.96381592 156.97913574 294.92763184 157.48170898 295.9206543 157.99951172 C296.93683838 158.53592285 297.95302246 159.07233398 299 159.625 C300.04003174 160.17043457 301.08006348 160.71586914 302.15161133 161.27783203 C308.33154764 164.53644068 314.4010576 167.90692843 320.39453125 171.49609375 C324.11376897 173.64288014 327.96455759 175.49193866 331.8203125 177.37890625 C337.67115093 180.36182756 343.32740088 183.69378099 349 187 C349 187.66 349 188.32 349 189 C349.59167969 189.27070312 350.18335938 189.54140625 350.79296875 189.8203125 C359.10116135 194.26115173 365.12990483 203.958817 367.84765625 212.73828125 C368.29437126 214.81302432 368.65666654 216.90566592 369 219 C369.33 219.33 369.66 219.66 370 220 C370.25342891 223.55524555 370.18523477 227.12429991 370.1875 230.6875 C370.19974609 231.68201172 370.21199219 232.67652344 370.22460938 233.70117188 C370.23495539 238.88452398 370.05130878 243.15415463 368 248 C367.63068359 249.06927734 367.63068359 249.06927734 367.25390625 250.16015625 C365.84909744 254.02536466 364.42025796 257.63268457 362 261 C361.34 261 360.68 261 360 261 C359.91363281 261.57363281 359.82726562 262.14726563 359.73828125 262.73828125 C358.79230629 265.63626802 357.34729766 267.05174461 355.1875 269.1875 C354.50042969 269.88230469 353.81335938 270.57710937 353.10546875 271.29296875 C350.98702931 273.01051613 349.66264268 273.59910773 347 274 C347 274.66 347 275.32 347 276 C345.35 276.33 343.7 276.66 342 277 C342 277.66 342 278.32 342 279 C340.68 279 339.36 279 338 279 C338 279.66 338 280.32 338 281 C334.32589215 282.17571451 330.83070817 282.07366746 327 282 C327 282.66 327 283.32 327 284 C323.81257885 284.05865035 320.62529882 284.09381259 317.4375 284.125 C316.54224609 284.14175781 315.64699219 284.15851563 314.72460938 284.17578125 C309.3765959 284.21496084 305.05312773 283.76286698 300 282 C299.26652344 281.75378906 298.53304688 281.50757813 297.77734375 281.25390625 C293.71647955 279.727849 289.84829076 278.02035265 286 276 C286 275.34 286 274.68 286 274 C285.4225 273.87625 284.845 273.7525 284.25 273.625 C281.97664233 272.99351176 280.0746471 272.11141809 278 271 C278 270.34 278 269.68 278 269 C277.236875 268.87625 276.47375 268.7525 275.6875 268.625 C273 268 273 268 270 266 C270 265.34 270 264.68 270 264 C269.27425781 263.89300781 268.54851562 263.78601563 267.80078125 263.67578125 C264.77832691 262.94651402 262.79988178 261.85452876 260.1875 260.1875 C255.89094734 257.5142326 251.55792568 255.19455681 247 253 C247 252.34 247 251.68 247 251 C246.34 250.7525 245.68 250.505 245 250.25 C241.23639093 248.68182955 237.6288576 246.85494954 234 245 C234 244.34 234 243.68 234 243 C232.8553125 242.814375 232.8553125 242.814375 231.6875 242.625 C229 242 229 242 226 240 C226 239.34 226 238.68 226 238 C225.27296875 237.89042969 224.5459375 237.78085937 223.796875 237.66796875 C220.82175951 236.95743139 218.83852402 235.92398309 216.25 234.3125 C215.38632812 233.77882813 214.52265625 233.24515625 213.6328125 232.6953125 C210.37621904 230.59833689 207.1765036 228.42665659 204.0078125 226.19921875 C201.98854129 224.99315599 200.29830766 224.43801828 198 224 C198 223.34 198 222.68 198 222 C197.01 222 196.02 222 195 222 C195 221.34 195 220.68 195 220 C193.35 219.67 191.7 219.34 190 219 C190 218.34 190 217.68 190 217 C188.8553125 216.814375 188.8553125 216.814375 187.6875 216.625 C185 216 185 216 182 214 C182 213.34 182 212.68 182 212 C180.8553125 211.814375 180.8553125 211.814375 179.6875 211.625 C177 211 177 211 174 209 C174 208.34 174 207.68 174 207 C172.02 206.67 170.04 206.34 168 206 C168 205.34 168 204.68 168 204 C167.236875 203.79375 166.47375 203.5875 165.6875 203.375 C160.50101406 201.44105609 155.80966916 198.7214854 151 196 C151 195.34 151 194.68 151 194 C149.35 193.67 147.7 193.34 146 193 C146 192.34 146 191.68 146 191 C145.4225 190.87625 144.845 190.7525 144.25 190.625 C141.97664233 189.99351176 140.0746471 189.11141809 138 188 C138 187.34 138 186.68 138 186 C136.8553125 185.814375 136.8553125 185.814375 135.6875 185.625 C133 185 133 185 130 183 C130 182.34 130 181.68 130 181 C128.02 180.67 126.04 180.34 124 180 C124 179.34 124 178.68 124 178 C122.35 177.67 120.7 177.34 119 177 C119 176.34 119 175.68 119 175 C118.14148438 174.81630859 118.14148438 174.81630859 117.265625 174.62890625 C114.90046809 173.97237132 112.92793203 173.06276488 110.75 171.9375 C110.04359375 171.57527344 109.3371875 171.21304688 108.609375 170.83984375 C108.07828125 170.56269531 107.5471875 170.28554688 107 170 C107 169.34 107 168.68 107 168 C105.35 167.67 103.7 167.34 102 167 C102 166.34 102 165.68 102 165 C101.4225 164.87625 100.845 164.7525 100.25 164.625 C97.97664233 163.99351176 96.0746471 163.11141809 94 162 C94 161.34 94 160.68 94 160 C92.8553125 159.814375 92.8553125 159.814375 91.6875 159.625 C89 159 89 159 86 157 C86 156.34 86 155.68 86 155 C84.02 154.67 82.04 154.34 80 154 C80 153.34 80 152.68 80 152 C78.35 151.67 76.7 151.34 75 151 C75 150.34 75 149.68 75 149 C74.42765625 148.87753906 73.8553125 148.75507812 73.265625 148.62890625 C70.90046809 147.97237132 68.92793203 147.06276488 66.75 145.9375 C66.04359375 145.57527344 65.3371875 145.21304688 64.609375 144.83984375 C64.07828125 144.56269531 63.5471875 144.28554688 63 144 C63 143.34 63 142.68 63 142 C62.43796875 141.88785156 61.8759375 141.77570313 61.296875 141.66015625 C58.68486892 140.90942661 56.60528678 139.78832624 54.25 138.4375 C53.45078125 137.98246094 52.6515625 137.52742187 51.828125 137.05859375 C51.22484375 136.70925781 50.6215625 136.35992188 50 136 C50 135.34 50 134.68 50 134 C48.8553125 133.814375 48.8553125 133.814375 47.6875 133.625 C45 133 45 133 42 131 C42 130.34 42 129.68 42 129 C40.02 128.67 38.04 128.34 36 128 C36 127.34 36 126.68 36 126 C33.34771188 124.92474806 30.71631546 123.90543849 28 123 C28 122.34 28 121.68 28 121 C26.35 120.67 24.7 120.34 23 120 C23 119.34 23 118.68 23 118 C21.68 118 20.36 118 19 118 C19 117.34 19 116.68 19 116 C16.34771188 114.92474806 13.71631546 113.90543849 11 113 C11 112.34 11 111.68 11 111 C9.35 110.67 7.7 110.34 6 110 C6 109.34 6 108.68 6 108 C5.29875 107.9175 4.5975 107.835 3.875 107.75 C0.34301021 106.82861136 -2.01928357 105.07354186 -5 103 C-5.99 102.67 -6.98 102.34 -8 102 C-8 101.34 -8 100.68 -8 100 C-10.65228812 98.92474806 -13.28368454 97.90543849 -16 97 C-16 96.34 -16 95.68 -16 95 C-17.65 94.67 -19.3 94.34 -21 94 C-21 93.34 -21 92.68 -21 92 C-21.57234375 91.87753906 -22.1446875 91.75507812 -22.734375 91.62890625 C-25.09953191 90.97237132 -27.07206797 90.06276488 -29.25 88.9375 C-29.95640625 88.57527344 -30.6628125 88.21304688 -31.390625 87.83984375 C-32.18726563 87.42412109 -32.18726563 87.42412109 -33 87 C-33 86.34 -33 85.68 -33 85 C-34.65 84.67 -36.3 84.34 -38 84 C-38 83.34 -38 82.68 -38 82 C-38.639375 81.855625 -39.27875 81.71125 -39.9375 81.5625 C-42 81 -42 81 -43 80 C-42.84888927 73.04890643 -39.47254832 67.87253585 -36 62 C-35.34 62 -34.68 62 -34 62 C-33.67 60.35 -33.34 58.7 -33 57 C-32.34 57 -31.68 57 -31 57 C-30.87625 56.2575 -30.7525 55.515 -30.625 54.75 C-30.04513299 52.19858515 -29.26291261 50.2732427 -28 48 C-27.34 48 -26.68 48 -26 48 C-25.87625 47.2575 -25.7525 46.515 -25.625 45.75 C-25.04513299 43.19858515 -24.26291261 41.2732427 -23 39 C-22.34 39 -21.68 39 -21 39 C-20.67 37.35 -20.34 35.7 -20 34 C-19.34 34 -18.68 34 -18 34 C-17.87625 33.2575 -17.7525 32.515 -17.625 31.75 C-17.04513299 29.19858515 -16.26291261 27.2732427 -15 25 C-14.34 25 -13.68 25 -13 25 C-12.9175 24.319375 -12.835 23.63875 -12.75 22.9375 C-11.77439195 19.11636846 -10.03939064 16.37774075 -8 13 C-7.67 12.34 -7.34 11.68 -7 11 C-6.34 11 -5.68 11 -5 11 C-4.814375 9.88625 -4.814375 9.88625 -4.625 8.75 C-4.04513299 6.19858515 -3.26291261 4.2732427 -2 2 C-1.34 2 -0.68 2 0 2 C0 1.34 0 0.68 0 0 Z " fill="#000000" transform="translate(411,431)"/>
<path d="M0 0 C1.65540173 -0.00467997 1.65540173 -0.00467997 3.34424591 -0.00945449 C7.03749452 -0.01742361 10.73057833 -0.01111495 14.42382812 -0.00482178 C17.0735726 -0.00753212 19.72330577 -0.01102103 22.37304688 -0.01544189 C28.82011858 -0.0243266 35.26714367 -0.022418 41.71421719 -0.01661661 C46.95474568 -0.0120965 52.19526113 -0.01148873 57.43579102 -0.01366425 C58.55535808 -0.01412394 58.55535808 -0.01412394 59.69754267 -0.01459293 C61.21388181 -0.01523239 62.73022096 -0.01588082 64.2465601 -0.01653811 C78.45917845 -0.0222387 92.67177099 -0.01568777 106.88438511 -0.00493738 C119.07462904 0.00399789 131.26483488 0.00244577 143.45507812 -0.0067749 C157.61747617 -0.01748232 171.77985159 -0.02168941 185.94225311 -0.01555037 C187.45295715 -0.01491329 188.96366119 -0.01428455 190.47436523 -0.01366425 C191.21762511 -0.01335569 191.96088498 -0.01304714 192.72666788 -0.01272924 C197.95979258 -0.01100372 203.19290292 -0.01391434 208.42602539 -0.01862335 C214.8050367 -0.02423742 221.18399881 -0.02270468 227.56300449 -0.01206186 C230.81653069 -0.00681222 234.06995811 -0.00581626 237.32348633 -0.01136017 C240.85245828 -0.0168193 244.38119906 -0.00997668 247.91015625 0 C248.93554756 -0.00446144 249.96093887 -0.00892289 251.01740265 -0.01351953 C256.39275363 0.01598686 260.87193488 0.47353795 265.95507812 2.25396729 C265.95507812 2.91396729 265.95507812 3.57396729 265.95507812 4.25396729 C267.56382812 4.43959229 267.56382812 4.43959229 269.20507812 4.62896729 C272.33371428 5.15040664 274.28988236 5.65484983 276.95507812 7.25396729 C276.95507812 7.91396729 276.95507812 8.57396729 276.95507812 9.25396729 C277.61507813 9.43959229 278.27507812 9.62521729 278.95507812 9.81646729 C290.73838524 15.46263528 297.7140879 27.39296006 302.04492188 39.21099854 C306.83532678 55.22698745 303.95507812 73.36760702 303.95507812 89.25396729 C185.15507812 89.25396729 66.35507812 89.25396729 -56.04492188 89.25396729 C-56.04492188 43.13832103 -56.04492188 43.13832103 -51.04492188 32.25396729 C-50.53832031 31.14021729 -50.53832031 31.14021729 -50.02148438 30.00396729 C-46.61390091 23.23713487 -41.64521761 17.33220155 -36.04492188 12.25396729 C-35.05492188 12.25396729 -34.06492187 12.25396729 -33.04492188 12.25396729 C-32.71492188 11.26396729 -32.38492188 10.27396729 -32.04492188 9.25396729 C-29.90039062 7.93756104 -29.90039062 7.93756104 -27.23242188 6.69146729 C-26.35972656 6.27767822 -25.48703125 5.86388916 -24.58789062 5.43756104 C-23.74871094 5.0469751 -22.90953125 4.65638916 -22.04492188 4.25396729 C-21.42230469 3.91494385 -20.7996875 3.57592041 -20.15820312 3.22662354 C-13.44788981 0.13814292 -7.28099679 -0.03167937 0 0 Z " fill="#000000" transform="translate(122.044921875,755.7460327148438)"/>
<path d="M0 0 C1.45212891 -0.01740234 1.45212891 -0.01740234 2.93359375 -0.03515625 C9.58176155 -0.0083851 15.25135049 1.12158505 21.5 3.375 C21.5 4.035 21.5 4.695 21.5 5.375 C22.51900391 5.49294922 22.51900391 5.49294922 23.55859375 5.61328125 C27.3357173 6.59142082 30.30379127 8.49585876 33.5625 10.5625 C38.20423558 13.43492855 42.82675057 16.12525616 47.75 18.5 C52.66764164 20.87992817 57.14878135 23.6630511 61.71484375 26.65234375 C65.53541486 29.01541788 69.52778256 30.93561495 73.56640625 32.89453125 C77.28122423 34.76925297 80.80898302 36.88656947 84.34375 39.078125 C86.35498963 40.28778362 88.3866066 41.35672863 90.5 42.375 C90.5 43.035 90.5 43.695 90.5 44.375 C91.61375 44.560625 91.61375 44.560625 92.75 44.75 C95.30141485 45.32986701 97.2267573 46.11208739 99.5 47.375 C99.5 48.035 99.5 48.695 99.5 49.375 C100.325 49.6225 101.15 49.87 102 50.125 C106.02373471 51.56204811 109.71979024 53.39854515 113.5 55.375 C113.5 56.035 113.5 56.695 113.5 57.375 C114.61375 57.560625 114.61375 57.560625 115.75 57.75 C118.30141485 58.32986701 120.2267573 59.11208739 122.5 60.375 C122.5 61.035 122.5 61.695 122.5 62.375 C123.22574219 62.48714844 123.95148438 62.59929687 124.69921875 62.71484375 C127.62563993 63.40461387 129.72287809 64.43010814 132.3125 65.9375 C133.10269531 66.39253906 133.89289063 66.84757812 134.70703125 67.31640625 C135.29871094 67.66574219 135.89039063 68.01507813 136.5 68.375 C136.5 69.035 136.5 69.695 136.5 70.375 C137.61375 70.560625 137.61375 70.560625 138.75 70.75 C141.30141485 71.32986701 143.2267573 72.11208739 145.5 73.375 C145.5 74.035 145.5 74.695 145.5 75.375 C146.22574219 75.48714844 146.95148438 75.59929687 147.69921875 75.71484375 C150.62563993 76.40461387 152.72287809 77.43010814 155.3125 78.9375 C156.10269531 79.39253906 156.89289063 79.84757812 157.70703125 80.31640625 C158.29871094 80.66574219 158.89039063 81.01507813 159.5 81.375 C159.5 82.035 159.5 82.695 159.5 83.375 C160.61375 83.560625 160.61375 83.560625 161.75 83.75 C164.30141485 84.32986701 166.2267573 85.11208739 168.5 86.375 C168.5 87.035 168.5 87.695 168.5 88.375 C170.15 88.705 171.8 89.035 173.5 89.375 C173.5 90.035 173.5 90.695 173.5 91.375 C174.19480469 91.46910156 174.88960937 91.56320312 175.60546875 91.66015625 C179.09372656 92.52162883 181.71741023 93.99474887 184.8125 95.8125 C185.88113281 96.42996094 186.94976562 97.04742187 188.05078125 97.68359375 C188.85902344 98.24175781 189.66726563 98.79992187 190.5 99.375 C190.5 100.035 190.5 100.695 190.5 101.375 C191.09167969 101.64828125 191.68335938 101.9215625 192.29296875 102.203125 C200.92913595 106.7887005 204.79758873 115.78833431 208.5 124.375 C212.14928148 136.4633431 211.03434313 152.33520681 205.2734375 163.46484375 C204.68820312 164.42519531 204.10296875 165.38554687 203.5 166.375 C202.65308594 167.76912109 202.65308594 167.76912109 201.7890625 169.19140625 C193.20122136 182.228604 193.20122136 182.228604 187.29296875 184.05859375 C186.70128906 184.16300781 186.10960937 184.26742187 185.5 184.375 C185.5 185.035 185.5 185.695 185.5 186.375 C184.51 186.375 183.52 186.375 182.5 186.375 C182.5 187.035 182.5 187.695 182.5 188.375 C174.38447835 191.5073066 167.24945104 193.71308172 158.5 193.625 C157.73171875 193.63273438 156.9634375 193.64046875 156.171875 193.6484375 C151.24594371 193.63168263 147.17204694 192.94063275 142.5 191.375 C142.5 190.715 142.5 190.055 142.5 189.375 C141.406875 189.25125 140.31375 189.1275 139.1875 189 C135.5 188.375 135.5 188.375 132.5 186.375 C132.5 185.715 132.5 185.055 132.5 184.375 C130.52 184.045 128.54 183.715 126.5 183.375 C126.5 182.715 126.5 182.055 126.5 181.375 C124.85 181.045 123.2 180.715 121.5 180.375 C121.5 179.715 121.5 179.055 121.5 178.375 C120.18 178.375 118.86 178.375 117.5 178.375 C117.5 177.715 117.5 177.055 117.5 176.375 C116.3553125 176.189375 116.3553125 176.189375 115.1875 176 C112.5 175.375 112.5 175.375 109.5 173.375 C109.5 172.715 109.5 172.055 109.5 171.375 C107.52 171.045 105.54 170.715 103.5 170.375 C103.5 169.715 103.5 169.055 103.5 168.375 C102.819375 168.2925 102.13875 168.21 101.4375 168.125 C95.51478096 166.61281641 90.39178238 162.71709141 85.296875 159.42578125 C83.37415967 158.2186528 83.37415967 158.2186528 80.5 157.375 C80.5 156.715 80.5 156.055 80.5 155.375 C79.3553125 155.189375 79.3553125 155.189375 78.1875 155 C75.5 154.375 75.5 154.375 72.5 152.375 C72.5 151.715 72.5 151.055 72.5 150.375 C71.63375 150.2925 70.7675 150.21 69.875 150.125 C66.00536598 149.26508133 63.70681662 147.65540293 60.5 145.375 C59.51 145.045 58.52 144.715 57.5 144.375 C57.5 143.715 57.5 143.055 57.5 142.375 C56.3553125 142.189375 56.3553125 142.189375 55.1875 142 C52.5 141.375 52.5 141.375 49.5 139.375 C49.5 138.715 49.5 138.055 49.5 137.375 C47.52 137.045 45.54 136.715 43.5 136.375 C43.5 135.715 43.5 135.055 43.5 134.375 C42.6646875 134.189375 42.6646875 134.189375 41.8125 134 C39.27885636 133.31523145 36.92078968 132.38366237 34.5 131.375 C34.5 130.715 34.5 130.055 34.5 129.375 C33.94828125 129.26285156 33.3965625 129.15070313 32.828125 129.03515625 C30.09934789 128.26139227 27.77227057 127.10682306 25.25 125.8125 C24.35796875 125.35746094 23.4659375 124.90242188 22.546875 124.43359375 C21.87140625 124.08425781 21.1959375 123.73492187 20.5 123.375 C20.5 122.715 20.5 122.055 20.5 121.375 C19.63375 121.189375 19.63375 121.189375 18.75 121 C16.47664233 120.36851176 14.5746471 119.48641809 12.5 118.375 C12.5 117.715 12.5 117.055 12.5 116.375 C11.18 116.375 9.86 116.375 8.5 116.375 C8.5 115.715 8.5 115.055 8.5 114.375 C7.79875 114.271875 7.0975 114.16875 6.375 114.0625 C3.10862353 113.28140997 0.4528148 111.95441257 -2.5 110.375 C-2.5 109.715 -2.5 109.055 -2.5 108.375 C-3.49 108.375 -4.48 108.375 -5.5 108.375 C-5.5 107.715 -5.5 107.055 -5.5 106.375 C-7.15 106.045 -8.8 105.715 -10.5 105.375 C-10.5 104.715 -10.5 104.055 -10.5 103.375 C-11.056875 103.26027344 -11.61375 103.14554687 -12.1875 103.02734375 C-14.82740212 102.28264163 -17.06103889 101.19044191 -19.5 99.9375 C-20.7684375 99.28974609 -20.7684375 99.28974609 -22.0625 98.62890625 C-23.2690625 98.00822266 -23.2690625 98.00822266 -24.5 97.375 C-25.83243183 96.70653336 -27.16543325 96.0391941 -28.5 95.375 C-28.5 94.715 -28.5 94.055 -28.5 93.375 C-29.5828125 93.00375 -29.5828125 93.00375 -30.6875 92.625 C-35.27750033 90.58499985 -38.86285658 87.67770768 -41.5 83.375 C-41.5 82.385 -41.5 81.395 -41.5 80.375 C-42.49 80.045 -43.48 79.715 -44.5 79.375 C-44.5 78.055 -44.5 76.735 -44.5 75.375 C-45.16 75.375 -45.82 75.375 -46.5 75.375 C-46.5 74.385 -46.5 73.395 -46.5 72.375 C-47.16 72.375 -47.82 72.375 -48.5 72.375 C-48.63277344 71.52035156 -48.76554687 70.66570312 -48.90234375 69.78515625 C-49.07894531 68.68042969 -49.25554687 67.57570313 -49.4375 66.4375 C-49.61152344 65.33535156 -49.78554688 64.23320312 -49.96484375 63.09765625 C-50.21845136 60.47073071 -50.21845136 60.47073071 -51.5 59.375 C-51.5989294 57.21019203 -51.629711 55.04206215 -51.625 52.875 C-51.62757813 51.6890625 -51.63015625 50.503125 -51.6328125 49.28125 C-51.5 46.375 -51.5 46.375 -50.5 45.375 C-49.96022423 42.6715852 -49.53533013 39.95604449 -49.09765625 37.234375 C-48.51166516 34.43080977 -47.6426727 31.99501942 -46.5 29.375 C-45.84 29.375 -45.18 29.375 -44.5 29.375 C-44.438125 28.715 -44.37625 28.055 -44.3125 27.375 C-43.19621505 23.2533325 -41.16238434 19.71749498 -38.5 16.375 C-37.84 16.375 -37.18 16.375 -36.5 16.375 C-36.17 15.385 -35.84 14.395 -35.5 13.375 C-34.84 13.375 -34.18 13.375 -33.5 13.375 C-33.5 12.715 -33.5 12.055 -33.5 11.375 C-31.63671875 9.8671875 -31.63671875 9.8671875 -29.1875 8.25 C-28.38699219 7.71117187 -27.58648437 7.17234375 -26.76171875 6.6171875 C-24.5 5.375 -24.5 5.375 -21.5 5.375 C-21.5 4.715 -21.5 4.055 -21.5 3.375 C-14.21773808 0.74883928 -7.71592015 -0.09246775 0 0 Z " fill="#000000" transform="translate(312.5,165.625)"/>
<path d="M0 0 C0.99 0.495 0.99 0.495 2 1 C2 1.66 2 2.32 2 3 C3.051875 3.1546875 3.051875 3.1546875 4.125 3.3125 C7.39137647 4.09359003 10.0471852 5.42058743 13 7 C13 7.66 13 8.32 13 9 C13.57234375 9.12246094 14.1446875 9.24492187 14.734375 9.37109375 C17.09953191 10.02762868 19.07206797 10.93723512 21.25 12.0625 C21.95640625 12.42472656 22.6628125 12.78695313 23.390625 13.16015625 C24.18726563 13.57587891 24.18726563 13.57587891 25 14 C25 14.66 25 15.32 25 16 C25.72574219 16.11214844 26.45148438 16.22429687 27.19921875 16.33984375 C30.12563993 17.02961387 32.22287809 18.05510814 34.8125 19.5625 C35.60269531 20.01753906 36.39289063 20.47257812 37.20703125 20.94140625 C37.79871094 21.29074219 38.39039063 21.64007813 39 22 C39 22.66 39 23.32 39 24 C39.7425 24.12375 40.485 24.2475 41.25 24.375 C43.80141485 24.95486701 45.7267573 25.73708739 48 27 C48 27.66 48 28.32 48 29 C48.72574219 29.11214844 49.45148438 29.22429688 50.19921875 29.33984375 C53.12563993 30.02961387 55.22287809 31.05510814 57.8125 32.5625 C58.60269531 33.01753906 59.39289063 33.47257813 60.20703125 33.94140625 C60.79871094 34.29074219 61.39039063 34.64007812 62 35 C62 35.66 62 36.32 62 37 C62.680625 37.0825 63.36125 37.165 64.0625 37.25 C67.01971886 38.0050346 69.28203345 39.18097243 71.88671875 40.74609375 C74.53399506 42.31684365 77.23245781 43.78115167 79.9375 45.25 C80.89527344 45.77078125 81.85304687 46.2915625 82.83984375 46.828125 C83.55269531 47.21484375 84.26554688 47.6015625 85 48 C85 48.66 85 49.32 85 50 C85.70125 50.0825 86.4025 50.165 87.125 50.25 C89.95677554 50.98872405 91.68945178 52.06323597 94.04296875 53.74609375 C98.45484251 56.57286317 103.29168231 58.71440889 108 61 C108 61.66 108 62.32 108 63 C109.11375 63.185625 109.11375 63.185625 110.25 63.375 C112.80141485 63.95486701 114.7267573 64.73708739 117 66 C117 66.66 117 67.32 117 68 C118.65 68.33 120.3 68.66 122 69 C122 69.66 122 70.32 122 71 C123.11375 71.185625 123.11375 71.185625 124.25 71.375 C126.80141485 71.95486701 128.7267573 72.73708739 131 74 C131 74.66 131 75.32 131 76 C132.11375 76.185625 132.11375 76.185625 133.25 76.375 C135.80141485 76.95486701 137.7267573 77.73708739 140 79 C140 79.66 140 80.32 140 81 C140.72574219 81.11214844 141.45148438 81.22429687 142.19921875 81.33984375 C145.12563993 82.02961387 147.22287809 83.05510814 149.8125 84.5625 C150.60269531 85.01753906 151.39289063 85.47257813 152.20703125 85.94140625 C152.79871094 86.29074219 153.39039063 86.64007812 154 87 C154 87.66 154 88.32 154 89 C155.07314453 89.14115234 155.07314453 89.14115234 156.16796875 89.28515625 C159.4695953 90.11853233 161.54650916 91.46647541 164.3125 93.4375 C165.19550781 94.05496094 166.07851563 94.67242188 166.98828125 95.30859375 C167.65214844 95.86675781 168.31601562 96.42492187 169 97 C169 97.66 169 98.32 169 99 C169.99 99.33 170.98 99.66 172 100 C181.78650264 111.06199469 185.87275294 124.45411766 185 139 C182.92827429 154.36748439 174.84310993 168.1590204 163 178 C159.45476361 180.30012656 155.84525353 182.25162051 152 184 C151.21238281 184.3609375 150.42476562 184.721875 149.61328125 185.09375 C137.94441759 189.14035145 124.53750705 187.60949941 113 184 C113 183.34 113 182.68 113 182 C112.28457031 181.88785156 111.56914062 181.77570313 110.83203125 181.66015625 C107.80884002 180.95543995 105.43677312 179.86712202 102.6875 178.4375 C101.80449219 177.98246094 100.92148437 177.52742187 100.01171875 177.05859375 C99.34785156 176.70925781 98.68398438 176.35992188 98 176 C98 175.34 98 174.68 98 174 C96.35 173.67 94.7 173.34 93 173 C93 172.34 93 171.68 93 171 C92.01 171 91.02 171 90 171 C90 170.34 90 169.68 90 169 C88.02 168.67 86.04 168.34 84 168 C84 167.34 84 166.68 84 166 C83.30519531 165.73445312 82.61039063 165.46890625 81.89453125 165.1953125 C78.74323924 163.89396924 75.72999829 162.41296617 72.6875 160.875 C71.61886719 160.33617187 70.55023438 159.79734375 69.44921875 159.2421875 C68.64097656 158.83226562 67.83273438 158.42234375 67 158 C67 157.34 67 156.68 67 156 C65.02 155.67 63.04 155.34 61 155 C61 154.34 61 153.68 61 153 C60.01 153 59.02 153 58 153 C58 152.34 58 151.68 58 151 C56.35 150.67 54.7 150.34 53 150 C53 149.34 53 148.68 53 148 C52.2575 147.87625 51.515 147.7525 50.75 147.625 C48.19858515 147.04513299 46.2732427 146.26291261 44 145 C44 144.34 44 143.68 44 143 C42.02 142.67 40.04 142.34 38 142 C38 141.34 38 140.68 38 140 C37.01 140 36.02 140 35 140 C35 139.34 35 138.68 35 138 C33.35 137.67 31.7 137.34 30 137 C30 136.34 30 135.68 30 135 C28.92105469 134.8453125 28.92105469 134.8453125 27.8203125 134.6875 C24.69307965 133.92518285 22.58352881 132.72285625 19.875 131 C17.19127583 129.30329901 15.02229222 128.00743074 12 127 C12 126.34 12 125.68 12 125 C10.35 124.67 8.7 124.34 7 124 C7 123.34 7 122.68 7 122 C5.92105469 121.8453125 5.92105469 121.8453125 4.8203125 121.6875 C1.69307965 120.92518285 -0.41647119 119.72285625 -3.125 118 C-5.80872417 116.30329901 -7.97770778 115.00743074 -11 114 C-11 113.34 -11 112.68 -11 112 C-11.72574219 111.88785156 -12.45148438 111.77570313 -13.19921875 111.66015625 C-16.12563993 110.97038613 -18.22287809 109.94489186 -20.8125 108.4375 C-21.60269531 107.98246094 -22.39289063 107.52742187 -23.20703125 107.05859375 C-23.79871094 106.70925781 -24.39039063 106.35992188 -25 106 C-25 105.34 -25 104.68 -25 104 C-26.65 103.67 -28.3 103.34 -30 103 C-30 102.34 -30 101.68 -30 101 C-31.32 101 -32.64 101 -34 101 C-34 100.34 -34 99.68 -34 99 C-34.72574219 98.88785156 -35.45148438 98.77570313 -36.19921875 98.66015625 C-39.12563993 97.97038613 -41.22287809 96.94489186 -43.8125 95.4375 C-44.60269531 94.98246094 -45.39289063 94.52742187 -46.20703125 94.05859375 C-47.09455078 93.53458984 -47.09455078 93.53458984 -48 93 C-48 92.34 -48 91.68 -48 91 C-49.65 90.67 -51.3 90.34 -53 90 C-53 89.34 -53 88.68 -53 88 C-53.99 88 -54.98 88 -56 88 C-56 87.34 -56 86.68 -56 86 C-56.721875 85.79375 -57.44375 85.5875 -58.1875 85.375 C-61.82716634 83.59560757 -63.5360917 81.17714491 -66 78 C-66.598125 77.443125 -67.19625 76.88625 -67.8125 76.3125 C-69 75 -69 75 -69 72 C-69.66 72 -70.32 72 -71 72 C-71 70.68 -71 69.36 -71 68 C-71.66 68 -72.32 68 -73 68 C-73.33 65.36 -73.66 62.72 -74 60 C-74.66 60 -75.32 60 -76 60 C-76 51.42 -76 42.84 -76 34 C-75.34 34 -74.68 34 -74 34 C-73.87625 32.7625 -73.7525 31.525 -73.625 30.25 C-73.24253695 27.1237803 -72.69450477 24.71120763 -71 22 C-70.34 22 -69.68 22 -69 22 C-68.67 20.02 -68.34 18.04 -68 16 C-67.34 16 -66.68 16 -66 16 C-65.773125 15.278125 -65.54625 14.55625 -65.3125 13.8125 C-63.73764802 10.43781719 -61.71862354 8.51969987 -59 6 C-58.46375 5.401875 -57.9275 4.80375 -57.375 4.1875 C-56 3 -56 3 -53 3 C-53 2.34 -53 1.68 -53 1 C-51.43880578 0.20576139 -49.87598036 -0.58527123 -48.3125 -1.375 C-47.00732422 -2.03628906 -47.00732422 -2.03628906 -45.67578125 -2.7109375 C-30.67811256 -9.93609176 -14.20229816 -7.99873432 0 0 Z " fill="#000000" transform="translate(158,487)"/>
<path d="M0 0 C21.45 0 42.9 0 65 0 C65 54.45 65 108.9 65 165 C43.55 165 22.1 165 0 165 C0 110.55 0 56.1 0 0 Z " fill="#000000" transform="translate(1654,905)"/>
</svg>
