<?xml version="1.0" encoding="UTF-8"?>
<svg version="1.1" xmlns="http://www.w3.org/2000/svg" width="3264" height="1136">
<path d="M0 0 C1.82983398 0.01708984 1.82983398 0.01708984 4 1 C5.43772575 3.24214257 6.58682165 5.3365693 7.72265625 7.7265625 C8.06824081 8.42526459 8.41382538 9.12396667 8.7698822 9.84384155 C9.88068767 12.09799443 10.97165641 14.36113093 12.0625 16.625 C12.76892174 18.06442141 13.47659365 19.50322998 14.18554688 20.94140625 C18.28258701 29.28054751 22.27663194 37.66905129 26.27734375 46.0546875 C31.72045999 57.46207893 37.27554214 68.81292849 42.85443115 80.15441895 C45.71044763 85.96094271 48.56217087 91.76957448 51.4140625 97.578125 C52.26413376 99.30926544 52.26413376 99.30926544 53.13137817 101.07537842 C58.06449955 111.1245581 62.97622259 121.18404057 67.875 131.25 C68.25312836 132.02688171 68.63125671 132.80376343 69.02084351 133.60418701 C70.53783547 136.72105207 72.05468827 139.83798477 73.5712738 142.95504761 C77.97933246 152.01446975 82.39542153 161.06997295 86.8125 170.125 C87.22376129 170.96814758 87.63502258 171.81129517 88.05874634 172.67999268 C95.18321818 187.28541234 102.32063455 201.88448691 109.46005249 216.48260498 C115.85868864 229.56671995 122.24807027 242.65529202 128.625 255.75 C129.01103394 256.54269287 129.39706787 257.33538574 129.7947998 258.15209961 C131.35270985 261.35120777 132.91060386 264.55032374 134.46847534 267.74945068 C138.91321654 276.87622694 143.36211488 286.00097468 147.8125 295.125 C148.22339874 295.96742249 148.63429749 296.80984497 149.05764771 297.67779541 C155.71761565 311.33093306 162.38861692 324.97866001 169.0625 338.625 C178.2859031 357.48458382 187.48766247 376.35462404 196.67773438 395.23046875 C203.36178099 408.95887276 210.04971842 422.68538258 216.73858643 436.41143799 C217.60299809 438.18530759 218.46737629 439.9591935 219.33172607 441.73309326 C222.07103875 447.35494025 224.81091878 452.97651013 227.55154419 458.59771729 C228.42222219 460.38372447 229.29273066 462.16981431 230.16305542 463.95599365 C231.37644993 466.44615858 232.59049362 468.93600601 233.8046875 471.42578125 C234.17837967 472.192995 234.55207184 472.96020874 234.93708801 473.75067139 C237.31283142 478.62008222 239.73321704 483.4638815 242.22705078 488.27416992 C243 490 243 490 243 492 C188.88 492 134.76 492 79 492 C63 450 63 450 63 448 C17.79 448 -27.42 448 -74 448 C-74.99 450.97 -75.98 453.94 -77 457 C-81.62 468.55 -86.24 480.1 -91 492 C-239.17 492 -387.34 492 -540 492 C-540 338.55 -540 185.1 -540 27 C-493.8 27 -447.6 27 -400 27 C-400 137.22 -400 247.44 -400 361 C-346.21 361 -292.42 361 -237 361 C-236.67 401.26 -236.34 441.52 -236 483 C-217.72832729 445.8211995 -217.72832729 445.8211995 -199.65234375 408.5546875 C-193.7824794 396.38228235 -187.8169521 384.25623503 -181.87255859 372.12011719 C-180.87206095 370.07747855 -179.87157265 368.03483532 -178.87109375 365.9921875 C-178.3754895 364.980354 -177.87988525 363.96852051 -177.3692627 362.92602539 C-172.54801408 353.0808782 -167.74115372 343.22874121 -162.9375 333.375 C-155.94727586 319.03687579 -148.94584944 304.70427319 -141.9375 290.375 C-135.07264521 276.33852814 -128.21618149 262.29802587 -121.375 248.25 C-120.98896606 247.45730713 -120.60293213 246.66461426 -120.2052002 245.84790039 C-118.64729015 242.64879223 -117.08939614 239.44967626 -115.53152466 236.25054932 C-111.08678346 227.12377306 -106.63788512 217.99902532 -102.1875 208.875 C-101.57115189 207.61136627 -101.57115189 207.61136627 -100.94235229 206.32220459 C-93.81750775 191.71605571 -86.67972518 177.11624863 -79.53994751 162.51739502 C-71.9702738 147.03870883 -64.41758217 131.55182207 -56.8739624 116.0604248 C-56.48887512 115.26962524 -56.10378784 114.47882568 -55.70703125 113.6640625 C-55.12964203 112.47834656 -55.12964203 112.47834656 -54.54058838 111.26867676 C-50.46954348 102.90929481 -46.39346931 94.55236797 -42.31665039 86.19580078 C-41.06840386 83.63710194 -39.82031981 81.07832391 -38.57226562 78.51953125 C-34.71355358 70.60878926 -30.8533985 62.69875835 -26.98910522 54.79074097 C-24.78375437 50.27747761 -22.57927183 45.76379043 -20.375 41.25 C-19.95279175 40.38562317 -19.5305835 39.52124634 -19.09558105 38.63067627 C-13.87465786 27.93906741 -8.67499196 17.23934783 -3.62451172 6.46582031 C-1.10008648 1.10008648 -1.10008648 1.10008648 0 0 Z M-3 273 C-6.86884104 281.27665541 -10.35730303 289.67837985 -13.73828125 298.1640625 C-14.26904452 299.49123066 -14.79998763 300.81832691 -15.33110046 302.14535522 C-16.43273185 304.89947813 -17.53260429 307.65429433 -18.63110352 310.40966797 C-20.04154216 313.94722279 -21.45588128 317.48320278 -22.87142658 321.01871681 C-23.9630549 323.74612296 -25.05297081 326.47421071 -26.14232445 329.20252609 C-26.66378953 330.5081153 -27.18572132 331.81351819 -27.70812416 333.11873245 C-28.43252465 334.92954939 -29.15443899 336.7413603 -29.8762207 338.55322266 C-30.2874971 339.58371735 -30.6987735 340.61421204 -31.12251282 341.67593384 C-32.05887113 343.74188903 -32.05887113 343.74188903 -32 345 C-13.52 345 4.96 345 24 345 C21.99208161 338.3069387 19.90977204 331.80416847 17.453125 325.28515625 C17.11883484 324.38993759 16.78454468 323.49471893 16.44012451 322.57237244 C15.37976541 319.73460913 14.31504828 316.89850629 13.25 314.0625 C12.20416238 311.26882083 11.15924267 308.47479951 10.11437988 305.68075562 C9.42686677 303.84257524 8.73896366 302.00454068 8.05065918 300.16665649 C4.66585179 291.12381608 1.32786795 282.06392358 -2 273 C-2.33 273 -2.66 273 -3 273 Z " fill="#FFFFFF" transform="translate(2056,162)"/>
<path d="M0 0 C1.07761119 0.87433156 2.15574225 1.74802276 3.234375 2.62109375 C5.83332698 4.73521585 8.42164724 6.86084561 11 9 C10.48751744 13.13782214 8.32569018 14.95085585 5.375 17.75 C1.71886625 21.2976891 -1.72630565 24.88902326 -5.0390625 28.75390625 C-7.55573775 31.6365522 -10.14957478 34.44297016 -12.75 37.25 C-13.26457764 37.80574707 -13.77915527 38.36149414 -14.30932617 38.93408203 C-15.35731333 40.06569299 -16.40540937 41.19720311 -17.45361328 42.32861328 C-23.9187575 49.31635836 -30.3291182 56.35244599 -36.6875 63.4375 C-39.74359461 66.82398321 -42.82985612 70.18244814 -45.91625977 73.54125977 C-48.77602204 76.65633125 -51.61515359 79.78851675 -54.4375 82.9375 C-57.963166 86.86826945 -61.53609114 90.75215672 -65.125 94.625 C-69.49942795 99.34653905 -73.80821427 104.11450325 -78 109 C-82.41536783 108.11704583 -85.27299186 105.65578965 -88.75 102.9375 C-113.12518469 84.57631266 -144.4851647 76.7434014 -174.74755859 80.32519531 C-198.03615041 83.82551026 -218.80266826 92.91061961 -236 109 C-236.73476562 109.65484375 -237.46953125 110.3096875 -238.2265625 110.984375 C-257.41228014 128.87066157 -268.1414581 156.62978096 -269.21875 182.51171875 C-270.01259098 212.6027853 -262.43737096 241.58148077 -243 265 C-241.95392578 266.29164063 -241.95392578 266.29164063 -240.88671875 267.609375 C-229.14840073 281.42925947 -213.83887095 290.5789418 -196.8125 296.375 C-196.11294189 296.61379883 -195.41338379 296.85259766 -194.69262695 297.09863281 C-184.47089937 300.36674791 -174.25101789 301.34679231 -163.5625 301.25 C-162.46357422 301.24250732 -161.36464844 301.23501465 -160.23242188 301.22729492 C-152.65937763 301.12673298 -145.38796351 300.78136176 -138 299 C-137.37287109 298.8546582 -136.74574219 298.70931641 -136.09960938 298.55957031 C-112.5580246 292.94856462 -95.05018371 280.61226394 -81 261 C-80.67 260.34 -80.34 259.68 -80 259 C-80.892565 259.00261841 -81.78513 259.00523682 -82.70474243 259.00793457 C-110.9316976 259.07823777 -139.14999031 258.82303872 -167.375 258.5 C-182.10125 258.335 -196.8275 258.17 -212 258 C-212 221.04 -212 184.08 -212 146 C-176.47407012 145.97797398 -140.94814666 145.95950237 -105.42221192 145.94893467 C-101.2325651 145.94768389 -97.04291829 145.94638958 -92.85327148 145.94506836 C-92.01915227 145.94480605 -91.18503306 145.94454374 -90.32563751 145.94427348 C-76.80157075 145.93991654 -63.27750821 145.93202887 -49.75344396 145.9228472 C-35.88705724 145.91351132 -22.02067273 145.90794453 -8.15428299 145.90591151 C0.40905373 145.90453614 8.97237849 145.90018484 17.53571153 145.89208353 C23.39976582 145.88681687 29.26381389 145.88519552 35.12787037 145.88649862 C38.51627332 145.88714213 41.90465531 145.88612308 45.29305458 145.88079453 C48.95799567 145.87586483 52.62288439 145.87699902 56.28782654 145.87974548 C57.37048827 145.87683264 58.45315 145.8739198 59.56861967 145.87091869 C61.02940729 145.87390526 61.02940729 145.87390526 62.51970577 145.87695217 C63.36686183 145.87657245 64.21401789 145.87619273 65.08684534 145.8758015 C67 146 67 146 68 147 C69.37994494 156.02685373 69.36188927 165.31971083 69.625 174.4375 C69.64679321 175.19044342 69.66858643 175.94338684 69.69104004 176.71914673 C70.01851907 188.5251416 70.13468667 200.2291315 69 212 C68.8764917 213.29695801 68.8764917 213.29695801 68.75048828 214.62011719 C64.45583644 257.08358164 51.02110302 300.03135907 26 335 C25.35417969 335.91910156 24.70835937 336.83820313 24.04296875 337.78515625 C17.56224543 346.87350788 10.72512137 355.52716634 2.69921875 363.30078125 C0.86333496 365.06735887 0.86333496 365.06735887 -1 367.5625 C-3.95399102 371.16267655 -7.45019569 374.0008254 -11 377 C-11.84304688 377.7425 -12.68609375 378.485 -13.5546875 379.25 C-45.71723981 407.04699812 -86.20614029 423.74098266 -128 430 C-129.2991333 430.19480957 -129.2991333 430.19480957 -130.62451172 430.39355469 C-195.61205238 439.58371195 -263.27458822 421.61959308 -315.76513672 382.69091797 C-318.94620518 380.24323113 -321.97298594 377.63377658 -325 375 C-326.08913181 374.10171915 -327.18041738 373.20604552 -328.2734375 372.3125 C-375.55440105 333.31163827 -403.69070369 273.80918842 -409.49609375 213.34375 C-414.47513928 150.11777496 -398.57516307 85.61501796 -357.1484375 36.484375 C-356.43945312 35.66453125 -355.73046875 34.8446875 -355 34 C-354.35289062 33.24203125 -353.70578125 32.4840625 -353.0390625 31.703125 C-350.74512789 29.08399659 -348.39257795 26.52859219 -346 24 C-345.4121875 23.37818848 -344.824375 22.75637695 -344.21875 22.11572266 C-334.2220452 11.63058758 -323.837124 2.35444725 -312 -6 C-311.35820801 -6.45455566 -310.71641602 -6.90911133 -310.05517578 -7.37744141 C-300.74702219 -13.90825878 -291.06285347 -19.71123809 -281 -25 C-280.29987793 -25.3697998 -279.59975586 -25.73959961 -278.87841797 -26.12060547 C-250.49644524 -40.88486797 -218.67360981 -48.62130214 -187 -52 C-185.20175781 -52.19722656 -185.20175781 -52.19722656 -183.3671875 -52.3984375 C-119.69723355 -58.0750358 -49.8739347 -41.00597572 0 0 Z " fill="#FFFFFF" transform="translate(3194,232)"/>
<path d="M0 0 C5.18601024 1.03720205 7.37286332 2.62708363 11.125 6 C12.28442816 7.01255306 13.44459526 8.02426057 14.60546875 9.03515625 C15.17958496 9.53934082 15.75370117 10.04352539 16.34521484 10.56298828 C18.66461254 12.57714804 21.0475822 14.50786267 23.4375 16.4375 C28.30129025 20.39508188 33.05881231 24.46542446 37.80834961 28.55834961 C41.33298919 31.58945289 44.89039882 34.56985316 48.5 37.5 C53.34596789 41.4337857 58.08098528 45.48447759 62.80859375 49.55859375 C66.33317903 52.58958284 69.89048832 55.56992581 73.5 58.5 C78.34596789 62.4337857 83.08098528 66.48447759 87.80859375 70.55859375 C91.33317903 73.58958284 94.89048832 76.56992581 98.5 79.5 C102.7279248 82.93208013 106.8752789 86.44551171 111 90 C116.01591689 94.32172863 121.09175299 98.55479196 126.23046875 102.73046875 C132.10799411 107.54688939 137.87611914 112.494943 143.66601562 117.41601562 C149.22068034 122.1351961 154.78059925 126.84075049 160.4375 131.4375 C165.30129025 135.39508188 170.05881231 139.46542446 174.80834961 143.55834961 C178.33298919 146.58945289 181.89039882 149.56985316 185.5 152.5 C189.7279248 155.93208013 193.8752789 159.44551171 198 163 C203.01314773 167.31934272 208.08537515 171.55097277 213.22265625 175.72265625 C216.90759143 178.74419944 220.53568321 181.83035951 224.16650391 184.91650391 C227.55973475 187.79557843 230.9827672 190.63211492 234.4375 193.4375 C238.68392946 196.89274609 242.85284488 200.42710949 247 204 C256.16084298 211.88819297 265.5589824 219.44718592 275 227 C275.33 161 275.66 95 276 27 C321.21 27 366.42 27 413 27 C413 189.36 413 351.72 413 519 C408.50206646 519 408.50206646 519 405.71484375 516.47265625 C405.10761475 515.9324585 404.50038574 515.39226074 403.87475586 514.83569336 C403.23546143 514.25053955 402.59616699 513.66538574 401.9375 513.0625 C400.58440809 511.85556485 399.2302356 510.64984006 397.875 509.4453125 C397.21242188 508.85266602 396.54984375 508.26001953 395.8671875 507.64941406 C393.44491441 505.50965504 390.95304116 503.46640373 388.4375 501.4375 C384.22801481 498.02863012 380.10239029 494.53600932 376 491 C371.875357 487.44542508 367.72792096 483.93207702 363.5 480.5 C358.65403211 476.5662143 353.91901472 472.51552241 349.19140625 468.44140625 C345.66682097 465.41041716 342.10951168 462.43007419 338.5 459.5 C333.09923828 455.11287098 327.825323 450.58776588 322.55078125 446.05078125 C315.28968997 439.80572679 307.99446571 433.6036885 300.5625 427.5625 C295.69870975 423.60491812 290.94118769 419.53457554 286.19165039 415.44165039 C282.66701081 412.41054711 279.10960118 409.43014684 275.5 406.5 C270.09923828 402.11287098 264.825323 397.58776588 259.55078125 393.05078125 C252.28968997 386.80572679 244.99446571 380.6036885 237.5625 374.5625 C232.14429421 370.15086945 226.8472915 365.60676358 221.55078125 361.05078125 C214.28968997 354.80572679 206.99446571 348.6036885 199.5625 342.5625 C194.69870975 338.60491812 189.94118769 334.53457554 185.19165039 330.44165039 C181.66701081 327.41054711 178.10960118 324.43014684 174.5 321.5 C169.10999009 317.12160485 163.84636787 312.60572978 158.58203125 308.078125 C155.00183364 304.99901777 151.41167336 301.93190198 147.8125 298.875 C147.27189941 298.41367676 146.73129883 297.95235352 146.17431641 297.47705078 C143.84468476 295.50136253 141.54600429 293.69733619 139 292 C138.67 358 138.34 424 138 492 C92.46 492 46.92 492 0 492 C0 329.64 0 167.28 0 0 Z " fill="#FFFFFF" transform="translate(2325,162)"/>
<path d="M0 0 C93.72 0 187.44 0 284 0 C284 41.25 284 82.5 284 125 C236.81 125 189.62 125 141 125 C141 141.83 141 158.66 141 176 C193.47 176 245.94 176 300 176 C300 211.64 300 247.28 300 284 C247.53 284 195.06 284 141 284 C141 302.48 141 320.96 141 340 C194.79 340 248.58 340 304 340 C304 381.25 304 422.5 304 465 C203.68 465 103.36 465 0 465 C0 311.55 0 158.1 0 0 Z " fill="#FFFFFF" transform="translate(1166,189)"/>
<path d="M0 0 C46.2 0 92.4 0 140 0 C140 110.22 140 220.44 140 334 C193.79 334 247.58 334 303 334 C303 377.23 303 420.46 303 465 C203.01 465 103.02 465 0 465 C0 311.55 0 158.1 0 0 Z " fill="#FFFFFF" transform="translate(831,189)"/>
<path d="M0 0 C1.66692096 0.00028273 3.33384205 0.00012247 5.00076294 -0.0004425 C9.48539842 -0.00072713 13.97000666 0.00511517 18.45463586 0.01213145 C23.15645726 0.01842102 27.85827941 0.0189732 32.56010437 0.02015686 C41.44554359 0.02325375 50.33097037 0.03144483 59.21640414 0.04150635 C69.33984866 0.0527187 79.4632938 0.0581908 89.586743 0.06320179 C110.39466826 0.07362896 131.20258237 0.09119635 152.01049805 0.11352539 C152.03336279 40.60782282 152.05099544 81.10211942 152.06156338 121.59642201 C152.06281416 126.37189854 152.06410847 131.14737505 152.06542969 135.92285156 C152.06582315 137.34898134 152.06582315 137.34898134 152.06622457 138.80392183 C152.07058161 154.2194473 152.07846935 169.63496907 152.08765084 185.05049234 C152.09698643 200.85598038 152.10255345 216.66146647 152.10458654 232.46695715 C152.10596197 242.22796238 152.11031361 251.98895712 152.11841451 261.74995912 C152.1236808 268.4339798 152.12530261 275.11799502 152.12399942 281.80201762 C152.12335586 285.66433192 152.12437563 289.52662783 152.12970352 293.3889389 C152.13542418 297.5662252 152.1334993 301.74347182 152.13075256 305.92076111 C152.13512183 307.77237418 152.13512183 307.77237418 152.13957936 309.66139358 C152.13758831 310.77110442 152.13559726 311.88081527 152.13354588 313.02415371 C152.1339256 313.98978251 152.13430532 314.95541131 152.13469654 315.95030159 C152.01049805 318.11352539 152.01049805 318.11352539 151.01049805 319.11352539 C129.56049805 319.11352539 108.11049805 319.11352539 86.01049805 319.11352539 C86.01049805 234.96352539 86.01049805 150.81352539 86.01049805 64.11352539 C32.82370352 60.37249824 32.82370352 60.37249824 -40.86450195 69.86352539 C-41.56446289 70.12593018 -42.26442383 70.38833496 -42.9855957 70.65869141 C-52.70597215 74.40788357 -61.02231541 79.41709083 -68.98950195 86.11352539 C-69.72942383 86.7077832 -70.4693457 87.30204102 -71.23168945 87.91430664 C-88.68691585 102.50059445 -99.69232672 125.83188063 -102.98950195 148.11352539 C-105.14342797 175.093408 -98.71532782 199.29957655 -80.98950195 220.11352539 C-80.27020508 220.98235352 -79.5509082 221.85118164 -78.80981445 222.74633789 C-62.11931354 242.16909163 -40.39571585 252.61614159 -15.02587891 254.640625 C-8.02798734 255.15863818 -1.04720222 255.33236559 5.9675293 255.42993164 C7.23650558 255.45071274 8.50548187 255.47149384 9.81291199 255.49290466 C13.13848931 255.54667061 16.46408081 255.59707454 19.78973389 255.64575195 C23.20256081 255.69656581 26.61531378 255.75193474 30.02807617 255.80688477 C36.68882402 255.91322853 43.3496283 256.01512962 50.01049805 256.11352539 C50.03362541 264.18004713 50.05141514 272.24655512 50.06231022 280.31310177 C50.06753819 284.05835576 50.07463426 287.80358715 50.0859375 291.54882812 C50.09676945 295.16034226 50.10277553 298.7718346 50.10537529 302.38336372 C50.10722898 303.76412868 50.11084854 305.14489239 50.1162281 306.52564812 C50.12344251 308.45328491 50.12390613 310.38094346 50.12402344 312.30859375 C50.12624405 313.40779648 50.12846466 314.50699921 50.13075256 315.63951111 C50.01049805 318.11352539 50.01049805 318.11352539 49.01049805 319.11352539 C46.91341677 319.22365123 44.8125831 319.26266705 42.71264648 319.2746582 C42.0537291 319.27962311 41.39481171 319.28458801 40.71592712 319.28970337 C38.5172319 319.30439714 36.31860951 319.31114919 34.11987305 319.31665039 C33.36368935 319.31947777 32.60750565 319.32230515 31.82840729 319.3252182 C27.8036514 319.34026266 23.77893164 319.34945064 19.75415039 319.35375977 C16.4607406 319.35809965 13.16759942 319.37180577 9.87426758 319.39477539 C-25.79662202 319.63876897 -25.79662202 319.63876897 -42.98950195 316.11352539 C-43.844664 315.93882217 -44.69982605 315.76411896 -45.5809021 315.5841217 C-75.57554794 309.32932468 -100.5175825 294.61300193 -122.44165039 273.59399414 C-123.92854623 272.17182752 -125.43073537 270.7674674 -126.93481445 269.36352539 C-154.19918607 243.23833365 -168.64206659 203.29431985 -169.98950195 166.11352539 C-170.03075195 165.1918457 -170.07200195 164.27016602 -170.11450195 163.32055664 C-171.15717961 118.15958061 -153.90951212 79.10168446 -123.45825195 46.39477539 C-90.13300489 12.22585119 -46.68543214 -0.11220223 0 0 Z " fill="#FFFFFF" transform="translate(1351.989501953125,755.886474609375)"/>
<path d="M0 0 C0.83618866 -0.0061734 1.67237732 -0.0123468 2.53390503 -0.01870728 C18.27498011 -0.09339001 33.92938842 1.39425406 49 6.1875 C49.82661133 6.44426514 50.65322266 6.70103027 51.50488281 6.96557617 C59.27018966 9.46071004 66.53826101 12.64705566 73.75 16.4375 C74.40452148 16.77652344 75.05904297 17.11554687 75.73339844 17.46484375 C88.72094113 24.25392782 99.76580262 32.47651179 110.54296875 42.41796875 C112.46482152 44.17654907 114.42647489 45.84569775 116.4375 47.5 C132.27358203 61.04207015 143.28660081 81.238176 150.75 100.4375 C151.01941406 101.12650391 151.28882812 101.81550781 151.56640625 102.52539062 C162.40169038 130.86986579 165.31682332 165.83876138 157.75 195.4375 C157.57839355 196.12682617 157.40678711 196.81615234 157.22998047 197.52636719 C151.92483312 218.43405246 142.97819245 237.36064269 129.75 254.4375 C129.13253906 255.25992188 128.51507812 256.08234375 127.87890625 256.9296875 C116.32777266 271.74576138 102.79592235 284.65997682 86.75 294.4375 C86.17362793 294.7998877 85.59725586 295.16227539 85.00341797 295.53564453 C69.47865323 305.26378147 52.59619069 311.55772987 34.75 315.4375 C34.03537598 315.60121094 33.32075195 315.76492188 32.58447266 315.93359375 C-7.93993883 324.93695164 -52.00598609 316.28688148 -86.9753418 294.57983398 C-93.1468593 290.63402019 -98.77489174 286.31500415 -104.25 281.4375 C-105.06339844 280.73238281 -105.87679688 280.02726562 -106.71484375 279.30078125 C-109.26789963 277.05425341 -111.76451813 274.75852894 -114.25 272.4375 C-115.70599609 271.09751953 -115.70599609 271.09751953 -117.19140625 269.73046875 C-142.12886766 246.22063302 -158.54438107 208.52451706 -160.35687256 174.42695618 C-160.41300196 172.34926879 -160.44071168 170.27371946 -160.453125 168.1953125 C-160.45882507 167.42806854 -160.46452515 166.66082458 -160.47039795 165.87033081 C-160.47978725 164.25178375 -160.48635756 162.63321809 -160.49023438 161.01464844 C-160.49983811 158.60315064 -160.53087646 156.19254489 -160.5625 153.78125 C-160.66087952 139.44085284 -158.92926431 125.3677639 -154.6875 111.625 C-154.43774414 110.8100708 -154.18798828 109.9951416 -153.93066406 109.15551758 C-140.68043528 68.02100558 -110.21119136 35.31393995 -72.19140625 15.77734375 C-62.86063878 11.15744622 -53.35250047 7.03725124 -43.25 4.4375 C-42.51088379 4.24285156 -41.77176758 4.04820312 -41.01025391 3.84765625 C-27.4471146 0.46585089 -13.90028258 0.04340661 0 0 Z M-72.66845703 97.09423828 C-89.64005717 118.09197007 -95.89655214 143.79371076 -94.25 170.4375 C-91.52173164 194.63095875 -78.35981454 217.59449381 -59.875 233.25 C-38.44453696 249.8876102 -14.49501828 258.00194789 12.625 254.75 C32.14507891 251.58632679 51.01970803 242.76999776 64.75 228.4375 C65.60335937 227.58542969 66.45671875 226.73335937 67.3359375 225.85546875 C80.91265622 212.25678123 90.82373055 194.62926716 93.75 175.4375 C93.85957031 174.79683594 93.96914062 174.15617187 94.08203125 173.49609375 C97.65810017 148.36824945 91.56314469 123.15546389 76.46289062 102.69335938 C60.91608827 82.7046135 38.6368758 67.56349969 13.28955078 63.73486328 C-19.57952673 59.88612877 -51.03369449 71.82513353 -72.66845703 97.09423828 Z " fill="#FFFFFF" transform="translate(2042.25,756.5625)"/>
<path d="M0 0 C4.68029369 -0.47493755 7.19398706 0.98923756 11.125 3.4375 C15.39000591 6.08615825 15.39000591 6.08615825 20 8 C20 8.66 20 9.32 20 10 C20.680625 10.0825 21.36125 10.165 22.0625 10.25 C27.77492085 11.70849043 32.53056009 15.33729737 37.4375 18.5 C41.12310194 20.86218119 44.77953797 22.96467154 48.72265625 24.8515625 C56.39950909 28.72290853 63.77405438 33.27719249 71.1875 37.625 C74.86233993 39.77754476 78.5603232 41.860557 82.3125 43.875 C86.77715689 46.28102547 91.10860287 48.86154868 95.4375 51.5 C100.95376682 54.85778833 106.55360992 57.85035202 112.3671875 60.671875 C115.32188628 62.16237587 118.06711009 63.85228478 120.83789062 65.65527344 C123.18828326 67.117103 125.58669029 68.43717708 128.0234375 69.75 C133.90475275 72.93927043 139.73884772 76.20684001 145.5625 79.5 C146.52607422 80.04269531 147.48964844 80.58539063 148.48242188 81.14453125 C150.39108605 82.22306165 152.29567492 83.30884091 154.19580078 84.40234375 C156.09539011 85.48461021 158.01129621 86.53864158 159.94091797 87.56640625 C161.31401123 88.32244141 161.31401123 88.32244141 162.71484375 89.09375 C163.53976318 89.53396484 164.36468262 89.97417969 165.21459961 90.42773438 C167 92 167 92 167.34545898 94.52319336 C166.91528479 97.60737513 165.81033684 99.45385662 164.125 102.0625 C162.25679261 104.99116327 160.49332255 107.86112299 159 111 C158.34 111 157.68 111 157 111 C156.896875 111.71929687 156.79375 112.43859375 156.6875 113.1796875 C155.92518285 116.30692035 154.72285625 118.41647119 153 121.125 C151.30329901 123.80872417 150.00743074 125.97770778 149 129 C148.34 129 147.68 129 147 129 C146.67 130.65 146.34 132.3 146 134 C145.34 134 144.68 134 144 134 C143.9175 134.680625 143.835 135.36125 143.75 136.0625 C142.96654816 139.13101971 141.67964728 141.51443738 140.0546875 144.21875 C138.56049299 146.74227851 137.28513809 149.36546692 136 152 C135.34 152 134.68 152 134 152 C133.9175 152.70125 133.835 153.4025 133.75 154.125 C132.82861136 157.65698979 131.07354186 160.01928357 129 163 C128.67 163.99 128.34 164.98 128 166 C127.34 166 126.68 166 126 166 C125.79375 166.763125 125.5875 167.52625 125.375 168.3125 C122.24522249 176.70599423 117.32546519 184.23417208 112.41796875 191.6875 C110.86746411 194.02040334 110.86746411 194.02040334 110 197 C109.34 197 108.68 197 108 197 C107.88213135 197.73371826 107.7642627 198.46743652 107.64282227 199.22338867 C107.00000637 201.99997248 106.11675582 203.95912584 104.71484375 206.42578125 C104.26689453 207.22177734 103.81894531 208.01777344 103.35742188 208.83789062 C102.65456055 210.06282227 102.65456055 210.06282227 101.9375 211.3125 C101.46505859 212.14845703 100.99261719 212.98441406 100.50585938 213.84570312 C99.34332244 215.90069265 98.17457909 217.95187737 97 220 C96.34 220 95.68 220 95 220 C94.88213135 220.73371826 94.7642627 221.46743652 94.64282227 222.22338867 C94.00000637 224.99997248 93.11675582 226.95912584 91.71484375 229.42578125 C91.26689453 230.22177734 90.81894531 231.01777344 90.35742188 231.83789062 C89.65456055 233.06282227 89.65456055 233.06282227 88.9375 234.3125 C88.46505859 235.14845703 87.99261719 235.98441406 87.50585938 236.84570312 C86.34332244 238.90069265 85.17457909 240.95187737 84 243 C83.34 243 82.68 243 82 243 C81.91621094 243.67933594 81.83242188 244.35867188 81.74609375 245.05859375 C80.80231091 248.77937113 79.01664619 251.80097813 77.0625 255.0625 C73.87024633 260.44337361 73.87024633 260.44337361 71 266 C70.34 266 69.68 266 69 266 C68.9175 266.70125 68.835 267.4025 68.75 268.125 C67.82861136 271.65698979 66.07354186 274.01928357 64 277 C63.67 277.99 63.34 278.98 63 280 C62.34 280 61.68 280 61 280 C60.87689453 280.58193115 60.75378906 281.1638623 60.62695312 281.76342773 C59.9905054 284.03387074 59.14856943 285.7503839 57.96875 287.78515625 C57.57042969 288.48060547 57.17210937 289.17605469 56.76171875 289.89257812 C56.34535156 290.60865234 55.92898438 291.32472656 55.5 292.0625 C54.67470794 293.48951428 53.85169582 294.91785018 53.03125 296.34765625 C52.48307617 297.29137085 52.48307617 297.29137085 51.92382812 298.25415039 C50.85759695 300.15353833 50.85759695 300.15353833 50 303 C49.34 303 48.68 303 48 303 C47.87625 303.598125 47.7525 304.19625 47.625 304.8125 C47 307 47 307 45 310 C41.98782888 309.35550393 39.48344164 308.34977818 36.75 306.9375 C36.04359375 306.57527344 35.3371875 306.21304687 34.609375 305.83984375 C34.07828125 305.56269531 33.5471875 305.28554688 33 305 C33 304.34 33 303.68 33 303 C32.319375 302.9175 31.63875 302.835 30.9375 302.75 C27.98028114 301.9949654 25.71796655 300.81902757 23.11328125 299.25390625 C20.46600494 297.68315635 17.76754219 296.21884833 15.0625 294.75 C14.10472656 294.22921875 13.14695312 293.7084375 12.16015625 293.171875 C11.44730469 292.78515625 10.73445312 292.3984375 10 292 C10 291.34 10 290.68 10 290 C9.29875 289.9175 8.5975 289.835 7.875 289.75 C5.04322446 289.01127595 3.31054822 287.93676403 0.95703125 286.25390625 C-3.45484251 283.42713683 -8.29168231 281.28559111 -13 279 C-13 278.34 -13 277.68 -13 277 C-13.70125 276.9175 -14.4025 276.835 -15.125 276.75 C-17.95677554 276.01127595 -19.68945178 274.93676403 -22.04296875 273.25390625 C-26.45484251 270.42713683 -31.29168231 268.28559111 -36 266 C-36 265.34 -36 264.68 -36 264 C-36.70125 263.9175 -37.4025 263.835 -38.125 263.75 C-40.97409913 263.00675675 -42.77801461 261.91316821 -45.15625 260.2265625 C-47.40780411 258.72870659 -49.74286043 257.46755776 -52.125 256.1875 C-57.21701362 253.45045585 -62.20461641 250.56342682 -67.17578125 247.61328125 C-70.06778245 245.96128056 -73.00842083 244.46264802 -76 243 C-76 242.34 -76 241.68 -76 241 C-77.65 240.67 -79.3 240.34 -81 240 C-81 239.34 -81 238.68 -81 238 C-81.86625 237.9175 -82.7325 237.835 -83.625 237.75 C-87.49463402 236.89008133 -89.79318338 235.28040293 -93 233 C-93.99 232.67 -94.98 232.34 -96 232 C-96 231.34 -96 230.68 -96 230 C-96.99 230 -97.98 230 -99 230 C-99 229.34 -99 228.68 -99 228 C-99.721875 227.89558594 -100.44375 227.79117188 -101.1875 227.68359375 C-104.27619014 226.93287045 -106.32948408 225.76912658 -109 224.0625 C-111.5859025 222.41802763 -113.87409377 221.04601106 -116.7578125 219.9921875 C-117.49773437 219.66476562 -118.23765625 219.33734375 -119 219 C-120.0704232 215.40643641 -120.19105377 213.5731613 -119 210 C-118.34 210 -117.68 210 -117 210 C-116.87625 209.2575 -116.7525 208.515 -116.625 207.75 C-116.04513299 205.19858515 -115.26291261 203.2732427 -114 201 C-113.34 201 -112.68 201 -112 201 C-111.8453125 199.90558594 -111.8453125 199.90558594 -111.6875 198.7890625 C-110.93471159 195.73513679 -109.8201028 193.92139381 -108 191.375 C-106.18765887 188.82203869 -104.99770625 186.99311875 -104 184 C-103.34 184 -102.68 184 -102 184 C-101.505 181.03 -101.505 181.03 -101 178 C-100.34 178 -99.68 178 -99 178 C-98.9175 177.319375 -98.835 176.63875 -98.75 175.9375 C-97.77439195 172.11636846 -96.03939064 169.37774075 -94 166 C-93.67 165.34 -93.34 164.68 -93 164 C-92.34 164 -91.68 164 -91 164 C-91 163.01 -91 162.02 -91 161 C-90.34 161 -89.68 161 -89 161 C-88.505 158.03 -88.505 158.03 -88 155 C-87.34 155 -86.68 155 -86 155 C-85.88785156 154.44828125 -85.77570313 153.8965625 -85.66015625 153.328125 C-84.88639227 150.59934789 -83.73182306 148.27227057 -82.4375 145.75 C-81.98246094 144.85796875 -81.52742188 143.9659375 -81.05859375 143.046875 C-80.53458984 142.03367187 -80.53458984 142.03367187 -80 141 C-79.34 141 -78.68 141 -78 141 C-78 140.01 -78 139.02 -78 138 C-77.34 138 -76.68 138 -76 138 C-75.88269531 137.2678125 -75.76539063 136.535625 -75.64453125 135.78125 C-74.99109954 132.96159318 -74.10660755 131.01169478 -72.6875 128.5 C-71.87345703 127.04980469 -71.87345703 127.04980469 -71.04296875 125.5703125 C-70.36286579 124.37970144 -69.6817824 123.18965016 -69 122 C-68.1419093 120.49740599 -67.28383785 118.99480098 -66.42578125 117.4921875 C-64.93475502 114.88321058 -63.44260749 112.2748949 -61.94799805 109.66796875 C-57.92059088 102.63670791 -53.9506258 95.57464237 -50 88.5 C-45.19914784 79.9056144 -40.35526793 71.33802239 -35.45996094 62.79711914 C-31.3297207 55.58828234 -27.24194583 48.35601469 -23.16064453 41.11938477 C-20.02027403 35.5573145 -16.86409396 30.00461601 -13.69140625 24.4609375 C-13.32705475 23.82420609 -12.96270325 23.18747467 -12.58731079 22.53144836 C-10.79463379 19.39944842 -9.00034866 16.26838146 -7.20410156 13.13842773 C-6.55538086 12.00606689 -5.90666016 10.87370605 -5.23828125 9.70703125 C-4.66118408 8.7013208 -4.08408691 7.69561035 -3.48950195 6.65942383 C-2.2601624 4.46450565 -1.09816455 2.26254839 0 0 Z " fill="#FFFFFF" transform="translate(279,265)"/>
<path d="M0 0 C1.61456334 -0.00373913 3.22912487 -0.0083417 4.84368354 -0.01373065 C9.26994855 -0.02594372 13.69613789 -0.02570217 18.1224159 -0.02334189 C22.90035816 -0.0229333 27.67827629 -0.03397701 32.45620728 -0.04345703 C41.81348178 -0.06005897 51.17073109 -0.06556622 60.52801909 -0.06668179 C68.13593984 -0.06763269 75.74385228 -0.0717451 83.3517704 -0.07808304 C104.93096694 -0.09569363 126.5101436 -0.10492225 148.08934738 -0.10342209 C149.83379284 -0.10330222 149.83379284 -0.10330222 151.61347961 -0.10317993 C152.77786656 -0.10309817 153.9422535 -0.10301641 155.1419249 -0.10293217 C174.00845899 -0.10211943 192.87491322 -0.12125452 211.74142423 -0.14945666 C231.12258864 -0.17819904 250.50371412 -0.1919962 269.88490039 -0.19026911 C280.76224663 -0.18960566 291.63950915 -0.19507849 302.51683617 -0.21662521 C311.7788454 -0.23485485 321.04073297 -0.23916971 330.3027524 -0.22560637 C335.02540011 -0.21908561 339.74781453 -0.21892723 344.47043991 -0.23631287 C348.80031623 -0.25208823 353.12977514 -0.24913464 357.45964155 -0.2317446 C359.01951762 -0.22868449 360.57942518 -0.23226952 362.13926407 -0.24346475 C380.03113728 -0.36329326 393.11935259 4.60155826 406.52876282 16.33773804 C408.33051076 18.3652175 408.86059911 19.61583546 409.24360657 22.26742554 C409.90360657 22.26742554 410.56360657 22.26742554 411.24360657 22.26742554 C413.28530142 25.17291436 414.24360657 26.66884599 414.24360657 30.26742554 C414.90360657 30.26742554 415.56360657 30.26742554 416.24360657 30.26742554 C416.73766233 31.69987653 417.21271073 33.13887998 417.68110657 34.57992554 C418.08136047 35.78068726 418.08136047 35.78068726 418.48970032 37.00570679 C420.37745552 45.17293785 420.40138698 53.6611673 420.41157532 62.00961304 C420.41490372 62.98101227 420.41823212 63.9524115 420.42166138 64.95324707 C420.42668043 66.9850518 420.42907128 69.01686462 420.4289093 71.04867554 C420.43111591 74.15558173 420.44937917 77.26214348 420.46821594 80.36898804 C420.47114694 82.35336183 420.4731337 84.3377373 420.47407532 86.32211304 C420.48126083 87.24611908 420.48844635 88.17012512 420.49584961 89.12213135 C420.46053854 99.05049356 420.46053854 99.05049356 417.24360657 102.26742554 C414.72607197 102.36626352 412.23596825 102.39920212 409.71792507 102.39047337 C408.9164821 102.39162721 408.11503913 102.39278105 407.28931001 102.39396986 C404.56901281 102.39664393 401.84877328 102.39210792 399.128479 102.38768005 C397.17246043 102.38811559 395.21644192 102.38899018 393.26042372 102.39026922 C387.85832971 102.39251755 382.45625532 102.38848831 377.05416381 102.38349116 C371.23885781 102.37919166 365.423553 102.38063272 359.60824585 102.38139343 C349.5238309 102.38191899 339.4394224 102.37876891 329.35500908 102.37315559 C314.77445629 102.36504484 300.193906 102.36242247 285.61335129 102.3611676 C261.960072 102.35906541 238.30679607 102.35232308 214.65351868 102.34286499 C191.67012042 102.33368535 168.68672308 102.32659939 145.70332336 102.32235718 C144.99527239 102.32222565 144.28722141 102.32209413 143.55771435 102.32195861 C136.44738241 102.32064013 129.33705046 102.31936431 122.22671851 102.31811975 C107.74126404 102.31558332 93.25580962 102.31276207 78.77035522 102.30976868 C78.10429076 102.30963139 77.43822631 102.3094941 76.75197807 102.30935265 C32.24918617 102.30014702 -12.25360385 102.2842805 -56.75639343 102.26742554 C-56.75639343 101.60742554 -56.75639343 100.94742554 -56.75639343 100.26742554 C-57.41639343 100.26742554 -58.07639343 100.26742554 -58.75639343 100.26742554 C-58.82621154 92.73028955 -58.87936505 85.19318753 -58.91182995 77.65580082 C-58.92741943 74.15505023 -58.94853284 70.65452251 -58.98271179 67.15390015 C-59.02184549 63.12010683 -59.03615806 59.08654397 -59.04936218 55.05258179 C-59.06484604 53.80848038 -59.0803299 52.56437897 -59.09628296 51.28257751 C-59.09761337 44.35116045 -58.48686696 38.65781523 -55.75639343 32.26742554 C-55.36451843 31.25680054 -54.97264343 30.24617554 -54.56889343 29.20492554 C-54.30076843 28.56555054 -54.03264343 27.92617554 -53.75639343 27.26742554 C-53.09639343 27.26742554 -52.43639343 27.26742554 -51.75639343 27.26742554 C-51.42639343 25.61742554 -51.09639343 23.96742554 -50.75639343 22.26742554 C-50.09639343 22.26742554 -49.43639343 22.26742554 -48.75639343 22.26742554 C-48.75639343 21.60742554 -48.75639343 20.94742554 -48.75639343 20.26742554 C-48.09639343 20.26742554 -47.43639343 20.26742554 -46.75639343 20.26742554 C-46.09639343 18.61742554 -45.43639343 16.96742554 -44.75639343 15.26742554 C-44.09639343 15.26742554 -43.43639343 15.26742554 -42.75639343 15.26742554 C-42.75639343 14.60742554 -42.75639343 13.94742554 -42.75639343 13.26742554 C-42.11701843 13.16430054 -41.47764343 13.06117554 -40.81889343 12.95492554 C-40.13826843 12.72805054 -39.45764343 12.50117554 -38.75639343 12.26742554 C-38.42639343 11.27742554 -38.09639343 10.28742554 -37.75639343 9.26742554 C-35.61186218 7.88070679 -35.61186218 7.88070679 -32.94389343 6.57992554 C-31.63485046 5.92443726 -31.63485046 5.92443726 -30.29936218 5.25570679 C-27.75639343 4.26742554 -27.75639343 4.26742554 -23.75639343 4.26742554 C-23.75639343 3.60742554 -23.75639343 2.94742554 -23.75639343 2.26742554 C-15.94750213 -0.27910804 -8.12055139 -0.01781326 0 0 Z " fill="#FFFFFF" transform="translate(65.75639343261719,850.7325744628906)"/>
<path d="M0 0 C0.80241119 -0.00067474 1.60482239 -0.00134949 2.43154907 -0.00204468 C14.36729708 0.01389806 25.92121481 0.36523274 37.5625 3.25 C38.25150391 3.41628906 38.94050781 3.58257813 39.65039062 3.75390625 C67.70661544 10.74853294 91.2575837 23.93257216 112.06982422 43.82470703 C113.07173495 44.78138921 114.07866364 45.73284148 115.09033203 46.67919922 C127.12359812 57.95632862 135.76188394 70.79074997 143.5625 85.25 C144.23539063 86.45462891 144.23539063 86.45462891 144.921875 87.68359375 C151.09187344 99.24232459 155.23676233 112.0218944 158.4375 124.6875 C158.64052734 125.44716064 158.84355469 126.20682129 159.05273438 126.98950195 C163.81119885 147.06684667 161.71224801 169.43118896 161.6968255 189.95746017 C161.69426359 194.44122994 161.6966492 198.92499783 161.69821167 203.4087677 C161.70001874 210.91175715 161.69766201 218.41473667 161.69287109 225.91772461 C161.68739343 234.59660284 161.68922216 243.2754577 161.6946975 251.95433539 C161.69922561 259.43155213 161.6998818 266.90876181 161.69725883 274.38597947 C161.69569922 278.84193545 161.69549444 283.2978804 161.69879532 287.75383568 C161.70167088 291.9244771 161.69970428 296.09508799 161.69390106 300.26572609 C161.69257338 301.79886448 161.69296772 303.33200543 161.69516373 304.86514282 C161.69787396 306.94819103 161.69449619 309.03113975 161.68948364 311.11418152 C161.68910662 312.28192706 161.68872959 313.4496726 161.68834114 314.65280437 C161.5625 317.25 161.5625 317.25 160.5625 318.25 C158.50693339 318.34413687 156.44809819 318.36742998 154.39038086 318.36352539 C153.42455833 318.36374443 153.42455833 318.36374443 152.43922424 318.3639679 C150.30189697 318.36326885 148.16465587 318.35547691 146.02734375 318.34765625 C144.54903715 318.34579204 143.07072993 318.34436815 141.59242249 318.34336853 C137.69451198 318.33954359 133.79663851 318.32971352 129.89874268 318.31866455 C125.92403667 318.30844992 121.94932471 318.3038708 117.97460938 318.29882812 C110.170556 318.28809122 102.36653318 318.27101509 94.5625 318.25 C94.56011165 317.42837749 94.55772329 316.60675499 94.55526257 315.76023483 C94.49588829 295.68292802 94.42019694 275.605739 94.32678509 255.52856064 C94.28199549 245.81901898 94.24254296 236.10951263 94.21606445 226.39990234 C94.192947 217.92791427 94.15939836 209.45603952 94.11379844 200.98414159 C94.09004975 196.50659004 94.07120174 192.02914944 94.06488609 187.55153656 C94.25390875 140.90243401 94.25390875 140.90243401 73.5625 100.25 C72.78132813 99.3115625 72.00015625 98.373125 71.1953125 97.40625 C56.11198809 79.79137845 34.64397249 66.88990798 11.25 64.97949219 C-16.4122166 63.61015127 -39.65513835 69.12392059 -60.6875 87.8125 C-64.01374462 90.88761059 -67.31896481 93.96289534 -70.4375 97.25 C-70.95570312 97.76175781 -71.47390625 98.27351562 -72.0078125 98.80078125 C-80.02546004 107.19594135 -85.01281713 117.78953643 -88.3125 128.8125 C-88.50344238 129.44728271 -88.69438477 130.08206543 -88.89111328 130.73608398 C-92.27117268 143.00756889 -92.73692446 155.42799946 -92.74047852 168.06176758 C-92.74815998 169.69766144 -92.75671011 171.33355142 -92.76605225 172.96943665 C-92.78417459 176.46035486 -92.79631146 179.95122122 -92.80359077 183.44217873 C-92.81516379 188.95904354 -92.84065037 194.47579304 -92.86790466 199.99259949 C-92.90936253 208.70679255 -92.94187602 217.42099127 -92.97037882 226.13523549 C-93.02161156 241.77880903 -93.08342876 257.42233531 -93.15571922 273.06582564 C-93.18066495 278.55494974 -93.20008326 284.0440581 -93.21510136 289.53321803 C-93.22526854 292.93227995 -93.23941184 296.3313171 -93.25457764 299.73036003 C-93.260757 301.31186468 -93.26520286 302.89337714 -93.26783562 304.47489166 C-93.27161953 306.62395793 -93.28140793 308.77291361 -93.29273987 310.92195129 C-93.29852224 312.72950504 -93.29852224 312.72950504 -93.30442142 314.57357502 C-93.4375 317.25 -93.4375 317.25 -94.4375 318.25 C-96.49306661 318.34413687 -98.55190181 318.36742998 -100.60961914 318.36352539 C-101.57544167 318.36374443 -101.57544167 318.36374443 -102.56077576 318.3639679 C-104.69810303 318.36326885 -106.83534413 318.35547691 -108.97265625 318.34765625 C-110.45096285 318.34579204 -111.92927007 318.34436815 -113.40757751 318.34336853 C-117.30548802 318.33954359 -121.20336149 318.32971352 -125.10125732 318.31866455 C-129.07596333 318.30844992 -133.05067529 318.3038708 -137.02539062 318.29882812 C-144.829444 318.28809122 -152.63346682 318.27101509 -160.4375 318.25 C-160.46094917 297.3255856 -160.47853785 276.40117338 -160.48931217 255.47674847 C-160.49444974 245.75931545 -160.50144357 236.04189064 -160.51293945 226.32446289 C-160.52296438 217.84632623 -160.52937185 209.36819552 -160.53158849 200.89005309 C-160.53288245 196.40863006 -160.53588371 191.92722404 -160.54323006 187.4458065 C-160.62140418 137.73502177 -156.14881271 91.67618345 -120.5234375 53.48828125 C-118.57305617 51.39545634 -116.72118633 49.24701459 -114.875 47.0625 C-111.36394794 43.05558182 -107.56468174 39.61237845 -103.4375 36.25 C-102.49003906 35.4765625 -101.54257813 34.703125 -100.56640625 33.90625 C-71.51130054 10.63490497 -36.93121037 0.02791046 0 0 Z " fill="#FFFFFF" transform="translate(1692.4375,756.75)"/>
<path d="M0 0 C1.42964637 0.33090691 2.85933279 0.66164085 4.2890625 0.9921875 C21.18356141 5.18420418 38.15624708 13.48135571 52 24 C52.85207031 24.64453125 53.70414063 25.2890625 54.58203125 25.953125 C90.07925158 53.65295284 112.66823816 89.27338609 118.55880737 134.07987976 C120.588649 151.34322489 120.25986232 168.6925048 120.20278788 186.04371476 C120.19012292 190.55596691 120.18909779 195.06822293 120.18673706 199.58049011 C120.18056792 208.09027286 120.16422022 216.60000305 120.14403808 225.10976285 C120.12153528 234.81259711 120.11064982 244.51543413 120.10064721 254.21828806 C120.07984889 274.1455545 120.04476364 294.07277391 120 314 C111.4119428 314.02312635 102.82389851 314.04091658 94.23581791 314.05181217 C90.248428 314.05704036 86.26105933 314.06413684 82.27368164 314.07543945 C78.42874886 314.08627061 74.58383655 314.09227732 70.73888969 314.09487724 C69.26881017 314.09673108 67.79873182 314.10035091 66.32866096 314.10573006 C64.27645533 314.11294355 62.22433533 314.11399081 60.17211914 314.11352539 C59.00185684 314.115746 57.83159454 314.11796661 56.62586975 314.12025452 C54 314 54 314 53 313 C52.89740289 310.88446845 52.86644394 308.76545887 52.86196899 306.64744568 C52.85914771 305.97592706 52.85632643 305.30440845 52.85341966 304.61254078 C52.84503644 302.34511665 52.84373216 300.07774113 52.84228516 297.81030273 C52.83761912 296.19081483 52.8324759 294.57132825 52.82688904 292.95184326 C52.8155828 289.45309509 52.80716033 285.95435556 52.80076981 282.45559502 C52.7900953 276.91047366 52.76984666 271.36541348 52.74765015 265.82032776 C52.6857245 250.04764648 52.63187704 234.27496691 52.59863281 218.50219727 C52.58020864 209.79915622 52.55116577 201.09621595 52.5106281 192.39324909 C52.48966829 187.79175223 52.47411681 183.19038185 52.47182083 178.58883476 C52.46965181 174.2459326 52.45355644 169.90329259 52.42743111 165.56047058 C52.42031841 163.97883621 52.41809736 162.39716978 52.42153358 160.81552315 C52.47018359 134.1299173 44.97525574 109.23646014 26.625 89.4375 C25.75875 88.633125 24.8925 87.82875 24 87 C23.34 86.34644531 22.68 85.69289063 22 85.01953125 C4.75712759 68.54237851 -19.12571266 58.97217449 -43 59 C-48.06066206 59.38724144 -53.00541341 60.10714324 -58 61 C-59.45986328 61.24169922 -59.45986328 61.24169922 -60.94921875 61.48828125 C-75.01938183 64.37295904 -89.05182199 71.84398728 -100 81 C-100.84691406 81.68578125 -101.69382812 82.3715625 -102.56640625 83.078125 C-121.9146685 99.50199342 -131.17858456 123.30703883 -134 148 C-134.281082 153.53701949 -134.30141326 159.06339044 -134.30297852 164.60644531 C-134.31065811 166.23233962 -134.31920791 167.85823001 -134.32855225 169.4841156 C-134.3466888 172.95649889 -134.3588168 176.42882987 -134.36609077 179.90125275 C-134.37765475 185.38863358 -134.40313808 190.87589815 -134.43040466 196.36322021 C-134.47188016 205.03140568 -134.50438489 213.69959684 -134.53287882 222.36783385 C-134.58408972 237.92666247 -134.64592438 253.48544341 -134.71821922 269.04418826 C-134.74316799 274.50404161 -134.76258513 279.96387913 -134.77760136 285.42376852 C-134.78776889 288.80534971 -134.80191236 292.18690599 -134.81707764 295.56846809 C-134.82325699 297.14190908 -134.82770285 298.71535791 -134.83033562 300.28880882 C-134.83411961 302.42698118 -134.84390814 304.56504241 -134.85523987 306.70318604 C-134.86102224 308.50162649 -134.86102224 308.50162649 -134.86692142 310.33639908 C-135 313 -135 313 -136 314 C-138.05556661 314.09413687 -140.11440181 314.11742998 -142.17211914 314.11352539 C-143.13794167 314.11374443 -143.13794167 314.11374443 -144.12327576 314.1139679 C-146.26060303 314.11326885 -148.39784413 314.10547691 -150.53515625 314.09765625 C-152.01346285 314.09579204 -153.49177007 314.09436815 -154.97007751 314.09336853 C-158.86798802 314.08954359 -162.76586149 314.07971352 -166.66375732 314.06866455 C-170.63846333 314.05844992 -174.61317529 314.0538708 -178.58789062 314.04882812 C-186.391944 314.03809122 -194.19596682 314.02101509 -202 314 C-202.04692607 293.1101354 -202.08208908 272.22027961 -202.10362434 251.33037281 C-202.1138937 241.62867778 -202.12786997 231.92701568 -202.15087891 222.2253418 C-202.17094682 213.75963764 -202.18374789 205.29395737 -202.18817699 196.82823008 C-202.19076192 192.35454548 -202.19674461 187.88092913 -202.21146011 183.40726662 C-202.38070697 129.79557346 -195.36031701 84.18699877 -157 44 C-156.19949219 43.14664063 -155.39898438 42.29328125 -154.57421875 41.4140625 C-134.22081287 20.29448914 -107.56609389 5.54837368 -79 -1 C-77.76378906 -1.29777344 -76.52757813 -1.59554687 -75.25390625 -1.90234375 C-51.44810521 -6.94231064 -23.45815621 -6.0553592 0 0 Z " fill="#FFFFFF" transform="translate(2433,761)"/>
<path d="M0 0 C9.49255133 -0.23238289 18.98411433 -0.40971873 28.47889614 -0.51812172 C32.88856872 -0.57016939 37.29628652 -0.64067448 41.70483398 -0.75439453 C45.96496118 -0.8635899 50.22321707 -0.92294951 54.48463631 -0.94877243 C56.1047009 -0.96715646 57.72467047 -1.00306087 59.3439312 -1.05730057 C72.01333983 -1.46454501 72.01333983 -1.46454501 76.97064209 2.18992615 C79.2400206 4.68794115 81.14397516 7.18682512 83 10 C83.81210937 10.96550781 84.62421875 11.93101562 85.4609375 12.92578125 C86.09257813 13.71339844 86.72421875 14.50101563 87.375 15.3125 C90.70018062 19.4197353 94.07662633 23.47483827 97.5 27.5 C101.62124182 32.34939906 105.66991814 37.25161371 109.6875 42.1875 C112.26146392 45.31799666 114.87569086 48.41172461 117.5 51.5 C121.62101634 56.34959381 125.66991354 61.25160806 129.6875 66.1875 C132.26146392 69.31799666 134.87569086 72.41172461 137.5 75.5 C141.61036382 80.33705798 145.65241038 85.22320626 149.65234375 90.15234375 C151.41541215 92.29090758 153.19605278 94.40378218 155.00390625 96.50390625 C155.51179687 97.09558594 156.0196875 97.68726563 156.54296875 98.296875 C157.54006557 99.45545537 158.5412451 100.61053716 159.546875 101.76171875 C163 105.77882119 163 105.77882119 163 108 C170.43245044 100.80730602 177.11496012 92.94946564 183.6171875 84.91796875 C186.20755848 81.74582593 188.84682867 78.61956706 191.5 75.5 C195.62005836 70.65199351 199.6679643 65.75153582 203.68359375 60.81640625 C206.73512402 57.10619828 209.84660548 53.44858933 212.96459961 49.79418945 C216.58427882 45.53630871 220.04629397 41.17023096 223.44140625 36.73046875 C223.95574219 36.15941406 224.47007812 35.58835937 225 35 C225.66 35 226.32 35 227 35 C227.21527344 34.47535156 227.43054687 33.95070313 227.65234375 33.41015625 C229.52860591 30.05463813 232.03492476 27.30915742 234.5625 24.4375 C235.64943203 23.18706171 236.73535921 21.9357493 237.8203125 20.68359375 C238.35817383 20.06339355 238.89603516 19.44319336 239.45019531 18.80419922 C242.35447335 15.42319501 245.15755655 11.96177997 247.96484375 8.5 C248.97224609 7.2625 248.97224609 7.2625 250 6 C251.07274422 4.4587294 251.07274422 4.4587294 252.16716003 2.88632202 C254.35208671 0.2868935 254.86957629 0.02759171 258.41059875 -0.7215271 C260.36584724 -0.7015416 260.36584724 -0.7015416 262.3605957 -0.68115234 C263.08309006 -0.6820285 263.80558441 -0.68290466 264.54997253 -0.68380737 C266.92636122 -0.67964342 269.29988899 -0.63305673 271.67578125 -0.5859375 C273.32771767 -0.5747409 274.97967407 -0.5662029 276.63163757 -0.56021118 C280.97062603 -0.53734878 285.30840117 -0.47844959 289.64691162 -0.4119873 C294.07759183 -0.35050785 298.50846893 -0.32318419 302.93945312 -0.29296875 C311.62685767 -0.22870229 320.31327772 -0.12635614 329 0 C327.74543365 3.24699202 326.58518899 5.82045357 324.34765625 8.49609375 C323.82413574 9.1298291 323.30061523 9.76356445 322.76123047 10.41650391 C322.20064941 11.08343262 321.64006836 11.75036133 321.0625 12.4375 C319.87795934 13.87031145 318.69438155 15.30391941 317.51171875 16.73828125 C316.9192334 17.4545166 316.32674805 18.17075195 315.71630859 18.90869141 C313.22388979 21.94568421 310.79384353 25.0292857 308.375 28.125 C307.92825928 28.69549072 307.48151855 29.26598145 307.02124023 29.85375977 C305.67961684 31.56823163 304.33953915 33.28389933 303 35 C296.67205131 43.10681567 290.2716871 51.14369248 283.76611328 59.10888672 C279.6059375 64.21741958 275.58813392 69.4168633 271.59375 74.65625 C268.6378866 78.49887241 265.56882678 82.24743114 262.5 86 C257.71239069 91.85678172 253.04362499 97.78480082 248.453125 103.796875 C241.60357092 112.76416561 234.55119104 121.57451118 227.49414062 130.37866211 C220.20011736 139.48552048 212.94121756 148.61997627 206 158 C207.68517708 161.89105495 210.24577172 165.02940604 212.875 168.3125 C213.60420654 169.23228638 213.60420654 169.23228638 214.34814453 170.1706543 C216.86608552 173.342036 219.40040393 176.50018411 221.9375 179.65625 C222.91677615 180.87491203 223.89594197 182.09366273 224.875 183.3125 C225.3712085 183.9297998 225.86741699 184.54709961 226.37866211 185.18310547 C230.13918437 189.87938979 233.80045862 194.64520163 237.4375 199.4375 C242.26012135 205.7882949 247.21112559 212.0155529 252.26098633 218.18676758 C257.14235234 224.15501466 261.91177097 230.20568628 266.65722656 236.28222656 C268.93233933 239.19271628 271.2166837 242.09594496 273.5 245 C274.41670978 246.16663279 275.33337648 247.33329944 276.25 248.5 C276.70375 249.0775 277.1575 249.655 277.625 250.25 C292.75 269.5 292.75 269.5 294.12475586 271.24975586 C295.04215009 272.4173041 295.95963067 273.58478449 296.87719727 274.75219727 C299.15844245 277.6548279 301.43821214 280.55859274 303.71484375 283.46484375 C304.62227323 284.62249195 305.52982538 285.780044 306.4375 286.9375 C306.88432129 287.50734619 307.33114258 288.07719238 307.79150391 288.66430664 C310.23896808 291.77930073 312.70182843 294.88099842 315.18359375 297.96875 C315.98228882 298.96273804 315.98228882 298.96273804 316.79711914 299.97680664 C317.81404834 301.24045486 318.83264061 302.50276741 319.85327148 303.76342773 C329 315.12411426 329 315.12411426 329 318 C319.54227969 318.3024702 310.08624566 318.53280667 300.6247282 318.67355824 C296.23008513 318.74114915 291.83877137 318.83264346 287.44604492 318.98071289 C283.19874263 319.12296878 278.95462022 319.19988762 274.70511818 319.23340416 C273.09207909 319.25725389 271.47919634 319.30383645 269.86752892 319.37449074 C257.62364605 319.88943752 257.62364605 319.88943752 253.26511002 316.75060654 C250.06980295 313.72220084 247.54087796 310.3010329 245.11586952 306.64162254 C243.40659676 304.12700893 241.45240126 301.82769062 239.5 299.5 C238.77554687 298.61054687 238.05109375 297.72109375 237.3046875 296.8046875 C232.93243049 291.48387304 228.45992856 286.24733664 224 281 C218.0399173 273.98765442 212.12241205 266.95039195 206.3125 259.8125 C203.73853608 256.68200334 201.12430914 253.58827539 198.5 250.5 C194.38016701 245.65179875 190.33204036 240.75154155 186.31640625 235.81640625 C183.72212765 232.66214845 181.08395327 229.54795657 178.4375 226.4375 C173.84950474 221.0432998 169.38263294 215.56305557 165 210 C161.03028938 213.8667922 157.36503633 217.92658196 153.75 222.125 C153.17717285 222.78806152 152.6043457 223.45112305 152.01416016 224.13427734 C148.01355991 228.78125788 144.10203182 233.49309625 140.2421875 238.2578125 C137.69746317 241.37000148 135.10381775 244.43726497 132.5 247.5 C129.12711398 251.46899152 125.78823226 255.4601718 122.5 259.5 C118.75212202 264.1045358 114.93016556 268.64019191 111.0859375 273.1640625 C108.18755177 276.5805954 105.328449 280.02504838 102.5 283.5 C99.21176334 287.53983361 95.87271846 291.53086132 92.5 295.5 C83.94740146 305.21451165 83.94740146 305.21451165 76.32965088 315.61686707 C74 318 74 318 70.70965576 318.60127258 C69.40393616 318.59016953 68.09821655 318.57906647 66.75292969 318.56762695 C66.03058136 318.56835709 65.30823303 318.56908722 64.56399536 318.56983948 C62.18251771 318.5663631 59.80300976 318.52750427 57.421875 318.48828125 C55.76850452 318.47895319 54.1151202 318.47183704 52.46173096 318.46684265 C48.11468195 318.44777201 43.76847122 318.39867146 39.42175293 318.34332275 C34.98440898 318.29213121 30.54692927 318.26932886 26.109375 318.24414062 C17.40586575 318.19055203 8.70303721 318.10523942 0 318 C0.87126456 313.69921598 3.15101048 310.96039339 5.875 307.625 C6.88431169 306.36604341 7.89342077 305.10692437 8.90234375 303.84765625 C9.67747314 302.88690186 9.67747314 302.88690186 10.46826172 301.90673828 C12.81911932 298.98034398 15.12620956 296.02016114 17.4375 293.0625 C20.72564497 288.86847343 24.04037228 284.69736356 27.38085938 280.54492188 C32.15236418 274.61328649 36.83539728 268.62665005 41.4375 262.5625 C46.20998428 256.27538217 51.11828174 250.12158029 56.12475586 244.01977539 C60.01916076 239.2548771 63.78355443 234.4046361 67.5 229.5 C72.24987349 223.23153715 77.13652956 217.0992296 82.125 211.01953125 C86.01926816 206.25466948 89.78361216 201.40453708 93.5 196.5 C98.31118436 190.15089142 103.25814362 183.93448671 108.30737305 177.7734375 C113.34136789 171.61863147 118.19495146 165.33442064 123 159 C118.44254254 151.5082891 112.90902925 144.8649038 107.359375 138.10546875 C104.38271891 134.47925292 101.45552214 130.81817399 98.5625 127.125 C97.90459473 126.28533691 97.90459473 126.28533691 97.23339844 125.42871094 C94.689849 122.17567395 92.15658907 118.91469343 89.625 115.65234375 C88.43757905 114.12233448 87.25007794 112.59238742 86.0625 111.0625 C85.47049805 110.2998584 84.87849609 109.5372168 84.26855469 108.75146484 C80.00210373 103.26486029 75.68257935 97.82365069 71.33056641 92.40478516 C66.62921973 86.54888688 61.98981656 80.64553464 57.35888672 74.73388672 C55.07546705 71.82033183 52.78754555 68.91031584 50.5 66 C47.75951792 62.51343843 45.01990378 59.02621854 42.28515625 55.53515625 C37.55387244 49.4986907 32.79781792 43.48376068 28 37.5 C23.21538216 31.53270224 18.47015321 25.53623738 13.7578125 19.51171875 C11.80930143 17.02289388 9.8430857 14.54916477 7.8671875 12.08203125 C7.35615479 11.44080322 6.84512207 10.7995752 6.31860352 10.13891602 C5.3333607 8.90325 4.34440549 7.67053262 3.35131836 6.44116211 C0 2.22482886 0 2.22482886 0 0 Z " fill="#FFFFFF" transform="translate(833,757)"/>
<path d="M0 0 C3.78332542 -0.51628306 6.11663917 0.27997191 9.38671875 2.1328125 C10.22912109 2.60203125 11.07152344 3.07125 11.93945312 3.5546875 C12.84630859 4.07289063 13.75316406 4.59109375 14.6875 5.125 C16.67001983 6.23276125 18.65311708 7.3394896 20.63671875 8.4453125 C21.67618652 9.02829102 22.7156543 9.61126953 23.78662109 10.21191406 C29.15880052 13.20126538 34.58102966 16.09661988 40 19 C72.60786973 36.53353084 72.60786973 36.53353084 81.5 41.8125 C85.38640685 44.11351708 89.32193991 46.19434809 93.375 48.1875 C106.0429234 54.42315187 118.40570125 61.30442902 130.625 68.375 C134.5905784 70.66445435 138.56877943 72.81262605 142.6875 74.8125 C148.97456481 77.88449284 154.95906767 81.42306027 160.99072266 84.9609375 C166.35359016 88.0909741 171.78026276 90.9658817 177.37109375 93.671875 C180.78848796 95.39834459 184.0225445 97.3658935 187.2578125 99.41015625 C189.68759817 100.81887814 192.12857113 102.07921265 194.64453125 103.32421875 C200.03179243 105.99048516 205.29821715 108.85009121 210.5625 111.75 C217.4128054 115.50633869 224.27553252 119.23326157 231.1875 122.875 C236.57686916 125.71484327 241.94876124 128.58114644 247.2890625 131.51269531 C253.64846698 135.00166254 260.01975052 138.46890904 266.39453125 141.9296875 C275.7988518 147.03996948 285.17524559 152.17611079 294.41796875 157.57421875 C296.99501639 159.0993162 296.99501639 159.0993162 300 160 C300 160.66 300 161.32 300 162 C301.07314453 162.16822266 301.07314453 162.16822266 302.16796875 162.33984375 C305.19115998 163.04456005 307.56322688 164.13287798 310.3125 165.5625 C311.19550781 166.01753906 312.07851563 166.47257813 312.98828125 166.94140625 C313.98408203 167.46541016 313.98408203 167.46541016 315 168 C315 168.66 315 169.32 315 170 C315.99 170 316.98 170 318 170 C318 170.66 318 171.32 318 172 C318.804375 172.061875 319.60875 172.12375 320.4375 172.1875 C325.1635451 173.26536993 328.87513427 175.51591419 333 178 C333 178.66 333 179.32 333 180 C334.98 180.33 336.96 180.66 339 181 C339 181.66 339 182.32 339 183 C339.54140625 183.09410156 340.0828125 183.18820312 340.640625 183.28515625 C343.69771088 184.21139253 346.05769005 185.7245356 348.75 187.4375 C349.73484375 188.05496094 350.7196875 188.67242188 351.734375 189.30859375 C352.48203125 189.86675781 353.2296875 190.42492187 354 191 C354 191.66 354 192.32 354 193 C354.99 193.33 355.98 193.66 357 194 C357 194.66 357 195.32 357 196 C357.66 196 358.32 196 359 196 C362 200.38461538 362 200.38461538 362 203 C362.66 203 363.32 203 364 203 C364.33 204.98 364.66 206.96 365 209 C365.66 209 366.32 209 367 209 C367 210.65 367 212.3 367 214 C367.66 214 368.32 214 369 214 C370.19044112 219.64745266 370.18367367 225.19417374 370.1875 230.9375 C370.19974609 231.90107422 370.21199219 232.86464844 370.22460938 233.85742188 C370.24005466 241.38957471 368.73911874 247.46814441 365.875 254.4375 C365.52179688 255.30246094 365.16859375 256.16742187 364.8046875 257.05859375 C364.53914063 257.69925781 364.27359375 258.33992188 364 259 C363.34 259 362.68 259 362 259 C361.7525 259.721875 361.505 260.44375 361.25 261.1875 C359.87730408 264.27606582 358.27646704 266.51011418 356 269 C355.34 269 354.68 269 354 269 C354 269.66 354 270.32 354 271 C344.83536955 280.72094987 328.79090736 284.58129026 316 285 C301.6712681 284.37435782 290.69899434 278.04727108 278.5625 270.9375 C277.42651367 270.2770166 276.29052734 269.6165332 275.12011719 268.93603516 C266.68704062 264.02632168 258.30958805 259.02563729 249.95703125 253.98046875 C244.47540893 250.67379486 238.95574718 247.43254353 233.4375 244.1875 C226.84409194 240.30969656 220.30749417 236.39153461 213.92578125 232.171875 C211.90620065 230.84483454 211.90620065 230.84483454 209 230 C209 229.34 209 228.68 209 228 C207.35 227.67 205.7 227.34 204 227 C204 226.34 204 225.68 204 225 C203.01 225 202.02 225 201 225 C201 224.34 201 223.68 201 223 C200.27425781 222.88785156 199.54851562 222.77570313 198.80078125 222.66015625 C195.87436007 221.97038613 193.77712191 220.94489186 191.1875 219.4375 C190.39730469 218.98246094 189.60710937 218.52742187 188.79296875 218.05859375 C188.20128906 217.70925781 187.60960937 217.35992188 187 217 C187 216.34 187 215.68 187 215 C185.35 214.67 183.7 214.34 182 214 C182 213.34 182 212.68 182 212 C181.01 212 180.02 212 179 212 C179 211.34 179 210.68 179 210 C178.2678125 209.89558594 177.535625 209.79117188 176.78125 209.68359375 C173.76214294 208.94153794 172.0092746 207.86935442 169.5 206.0625 C166.42489384 203.85903484 163.56010754 202.29743356 160 201 C160 200.34 160 199.68 160 199 C159.01 199 158.02 199 157 199 C157 198.34 157 197.68 157 197 C156.27425781 196.88785156 155.54851562 196.77570313 154.80078125 196.66015625 C151.87436007 195.97038613 149.77712191 194.94489186 147.1875 193.4375 C146.39730469 192.98246094 145.60710937 192.52742187 144.79296875 192.05859375 C144.20128906 191.70925781 143.60960937 191.35992188 143 191 C143 190.34 143 189.68 143 189 C142.4225 188.87625 141.845 188.7525 141.25 188.625 C138.97664233 187.99351176 137.0746471 187.11141809 135 186 C135 185.34 135 184.68 135 184 C134.26394531 183.89300781 133.52789063 183.78601563 132.76953125 183.67578125 C129.81157731 182.9540238 128.14025967 181.95868843 125.6875 180.1875 C121.60415277 177.3442297 117.49558099 175.12518374 113 173 C113 172.34 113 171.68 113 171 C112.27425781 170.88785156 111.54851562 170.77570313 110.80078125 170.66015625 C107.87436007 169.97038613 105.77712191 168.94489186 103.1875 167.4375 C102.39730469 166.98246094 101.60710937 166.52742187 100.79296875 166.05859375 C100.20128906 165.70925781 99.60960937 165.35992188 99 165 C99 164.34 99 163.68 99 163 C98.4225 162.87625 97.845 162.7525 97.25 162.625 C94.97664233 161.99351176 93.0746471 161.11141809 91 160 C91 159.34 91 158.68 91 158 C90.2678125 157.89558594 89.535625 157.79117188 88.78125 157.68359375 C85.76214294 156.94153794 84.0092746 155.86935442 81.5 154.0625 C78.42489384 151.85903484 75.56010754 150.29743356 72 149 C72 148.34 72 147.68 72 147 C71.01 147 70.02 147 69 147 C69 146.34 69 145.68 69 145 C68.27425781 144.88785156 67.54851562 144.77570313 66.80078125 144.66015625 C63.87436007 143.97038613 61.77712191 142.94489186 59.1875 141.4375 C58.39730469 140.98246094 57.60710937 140.52742187 56.79296875 140.05859375 C56.20128906 139.70925781 55.60960937 139.35992188 55 139 C55 138.34 55 137.68 55 137 C52.34771188 135.92474806 49.71631546 134.90543849 47 134 C47 133.34 47 132.68 47 132 C46.26394531 131.89300781 45.52789062 131.78601563 44.76953125 131.67578125 C41.81157731 130.9540238 40.14025967 129.95868843 37.6875 128.1875 C33.60415277 125.3442297 29.49558099 123.12518374 25 121 C25 120.34 25 119.68 25 119 C24.26394531 118.89300781 23.52789062 118.78601563 22.76953125 118.67578125 C19.81157731 117.9540238 18.14025967 116.95868843 15.6875 115.1875 C11.60415277 112.3442297 7.49558099 110.12518374 3 108 C3 107.34 3 106.68 3 106 C2.29101562 105.9071875 1.58203125 105.814375 0.8515625 105.71875 C-2.5162003 104.86988924 -4.74834889 103.43361673 -7.625 101.5 C-10.47506306 99.59475236 -12.74305493 98.08564836 -16 97 C-16 96.34 -16 95.68 -16 95 C-18.65228812 93.92474806 -21.28368454 92.90543849 -24 92 C-24 91.34 -24 90.68 -24 90 C-24.5671875 89.88527344 -25.134375 89.77054688 -25.71875 89.65234375 C-28.2461094 88.92962283 -30.22541106 87.87506245 -32.5 86.5625 C-35.29931162 84.95673049 -38.10000291 83.41704403 -41 82 C-41 81.34 -41 80.68 -41 80 C-41.66 80 -42.32 80 -43 80 C-42.60138226 73.52679449 -40.17830682 69.18757685 -36.875 63.6875 C-35.77727597 61.81384179 -34.679623 59.94014195 -33.58203125 58.06640625 C-32.9988916 57.08043457 -32.41575195 56.09446289 -31.81494141 55.07861328 C-28.69283411 49.78270624 -25.6314995 44.45179572 -22.5625 39.125 C-21.93754639 38.0436377 -21.31259277 36.96227539 -20.66870117 35.84814453 C-15.73417549 27.30378098 -10.86549232 18.7234309 -6.03540039 10.11962891 C-5.28117798 8.77843994 -5.28117798 8.77843994 -4.51171875 7.41015625 C-3.85369263 6.23658569 -3.85369263 6.23658569 -3.18237305 5.03930664 C-2.1858872 3.32061032 -1.1020123 1.65301844 0 0 Z " fill="#FFFFFF" transform="translate(411,431)"/>
<path d="M0 0 C1.11176826 -0.00311998 2.22353651 -0.00623996 3.36899471 -0.00945449 C7.08988198 -0.01742413 10.81060569 -0.01111475 14.53149414 -0.00482178 C17.20094276 -0.00753209 19.87038016 -0.01102099 22.53982544 -0.01544189 C29.03502397 -0.02432688 35.53017623 -0.02241788 42.02537656 -0.01661661 C47.30499733 -0.01209661 52.58460515 -0.01148869 57.86422729 -0.01366425 C58.99212045 -0.01412394 58.99212045 -0.01412394 60.14279932 -0.01459293 C61.67041246 -0.01523239 63.19802561 -0.01588082 64.72563875 -0.01653811 C79.04412727 -0.02223878 93.36259018 -0.01568764 107.6810745 -0.00493738 C119.9622819 0.00399789 132.24345149 0.00244578 144.5246582 -0.0067749 C158.79253162 -0.01748217 173.06038259 -0.02168949 187.32825947 -0.01555037 C188.85019747 -0.01491329 190.37213548 -0.01428455 191.89407349 -0.01366425 C192.64286158 -0.01335569 193.39164967 -0.01304714 194.16312832 -0.01272924 C199.4353263 -0.01100368 204.70751003 -0.01391443 209.97970581 -0.01862335 C216.40629413 -0.02423726 222.8328336 -0.02270502 229.25941634 -0.01206186 C232.5372455 -0.006812 235.8149766 -0.00581652 239.09280777 -0.01136017 C242.64805349 -0.01681894 246.20306971 -0.00997713 249.75830078 0 C250.79147399 -0.00446144 251.8246472 -0.00892289 252.88912868 -0.01351953 C261.22224436 0.03188967 267.23816059 1.78504429 274.81665039 5.37896729 C275.96004883 5.91779541 277.10344727 6.45662354 278.28149414 7.01177979 C279.56733398 7.6266626 279.56733398 7.6266626 280.87915039 8.25396729 C280.87915039 8.91396729 280.87915039 9.57396729 280.87915039 10.25396729 C282.08571289 10.65615479 282.08571289 10.65615479 283.31665039 11.06646729 C284.16227539 11.45834229 285.00790039 11.85021729 285.87915039 12.25396729 C286.20915039 13.24396729 286.53915039 14.23396729 286.87915039 15.25396729 C287.53915039 15.58396729 288.19915039 15.91396729 288.87915039 16.25396729 C289.53915039 16.58396729 290.19915039 16.91396729 290.87915039 17.25396729 C291.20915039 18.24396729 291.53915039 19.23396729 291.87915039 20.25396729 C292.53915039 20.25396729 293.19915039 20.25396729 293.87915039 20.25396729 C295.92084524 23.15945611 296.87915039 24.65538774 296.87915039 28.25396729 C297.53915039 28.25396729 298.19915039 28.25396729 298.87915039 28.25396729 C303.83059505 37.70672527 305.03680987 46.34481081 305.01196289 56.87115479 C305.01339798 58.21779709 305.01339798 58.21779709 305.01486206 59.59164429 C305.01553904 61.4758308 305.0137186 63.3600197 305.00952148 65.24420166 C305.00412847 68.14073835 305.00950206 71.03712263 305.01586914 73.93365479 C305.01520901 75.76698846 305.01392921 77.60032204 305.01196289 79.43365479 C305.01398712 80.30335907 305.01601135 81.17306335 305.01809692 82.06912231 C304.99412593 88.13899175 304.99412593 88.13899175 303.87915039 89.25396729 C301.97748296 89.35252717 300.07209698 89.37952391 298.1678772 89.37980843 C296.91944723 89.38241617 295.67101727 89.38502392 294.38475609 89.38771069 C292.98135743 89.38554816 291.57795892 89.38329149 290.17456055 89.38095093 C288.69773126 89.38210177 287.22090226 89.38368904 285.74407387 89.38567817 C281.66649271 89.3898766 277.58893477 89.3877785 273.51135349 89.38469195 C269.12139791 89.38244015 264.73144647 89.38591636 260.3414917 89.38867188 C251.73392161 89.39313093 243.12636021 89.39215251 234.51878977 89.38925923 C227.52654352 89.38700573 220.53429973 89.38669245 213.54205322 89.38778305 C212.05232056 89.3880129 212.05232056 89.3880129 210.53249228 89.38824739 C208.51525354 89.3885671 206.49801481 89.38889131 204.48077607 89.38921998 C185.54141072 89.39207517 166.60205019 89.38878715 147.66268563 89.38341962 C131.39304126 89.37895154 115.12340401 89.37972747 98.85375977 89.38433838 C79.98462748 89.38968346 61.11549944 89.39180048 42.2463665 89.38872612 C40.23632685 89.38840755 38.22628721 89.38809318 36.21624756 89.38778305 C35.22713178 89.38762878 34.23801601 89.3874745 33.21892703 89.38731555 C26.23076884 89.38645019 19.24261334 89.38791367 12.25445557 89.3902626 C3.74441805 89.39306007 -4.76561024 89.39232349 -13.27564669 89.38698186 C-17.62200459 89.38434411 -21.96834708 89.38334101 -26.3147049 89.38663101 C-30.28696931 89.38959248 -34.2592039 89.38800368 -38.23146558 89.38265346 C-39.67491604 89.38152863 -41.11836899 89.38212189 -42.56181788 89.38452925 C-44.51106905 89.38753289 -46.46032719 89.38388006 -48.40957642 89.37980843 C-49.49617365 89.37964607 -50.58277088 89.37948372 -51.7022953 89.37931645 C-54.12084961 89.25396729 -54.12084961 89.25396729 -55.12084961 88.25396729 C-55.22209911 85.4631107 -55.26052892 82.69756843 -55.25366211 79.90631104 C-55.25461884 79.06105362 -55.25557556 78.2157962 -55.25656128 77.34492493 C-55.25724362 75.5484103 -55.25538559 73.75189323 -55.2512207 71.9553833 C-55.2459194 69.22737946 -55.25113965 66.49954378 -55.25756836 63.77154541 C-55.25690668 62.02480026 -55.25562366 60.27805521 -55.25366211 58.53131104 C-55.25568634 57.72266098 -55.25771057 56.91401093 -55.25979614 56.08085632 C-55.23149444 49.10475757 -54.93528017 42.4291436 -52.12084961 35.94146729 C-51.02744897 33.38081946 -50.00229631 30.8983074 -49.12084961 28.25396729 C-48.46084961 28.25396729 -47.80084961 28.25396729 -47.12084961 28.25396729 C-47.12084961 27.26396729 -47.12084961 26.27396729 -47.12084961 25.25396729 C-46.46084961 25.25396729 -45.80084961 25.25396729 -45.12084961 25.25396729 C-44.81147461 24.47021729 -44.50209961 23.68646729 -44.18334961 22.87896729 C-43.12084961 20.25396729 -43.12084961 20.25396729 -42.12084961 18.25396729 C-41.46084961 18.25396729 -40.80084961 18.25396729 -40.12084961 18.25396729 C-39.79084961 17.26396729 -39.46084961 16.27396729 -39.12084961 15.25396729 C-38.46084961 15.25396729 -37.80084961 15.25396729 -37.12084961 15.25396729 C-37.12084961 14.59396729 -37.12084961 13.93396729 -37.12084961 13.25396729 C-35.46552338 12.23530499 -33.79824823 11.23585916 -32.12084961 10.25396729 C-31.79084961 9.59396729 -31.46084961 8.93396729 -31.12084961 8.25396729 C-29.11489772 7.18412628 -27.0646801 6.19648687 -24.99584961 5.25396729 C-23.87952148 4.73834229 -22.76319336 4.22271729 -21.61303711 3.69146729 C-14.12509877 0.60918394 -8.05132072 -0.03476717 0 0 Z " fill="#FFFFFF" transform="translate(121.120849609375,756.7460327148438)"/>
<path d="M0 0 C1.52367187 -0.0299707 1.52367187 -0.0299707 3.078125 -0.06054688 C13.03484274 -0.05416436 20.50928235 3.32171238 28.9375 8.3125 C33.13458985 10.77154517 37.34107572 13.19422257 41.625 15.5 C46.49183878 18.13323095 51.2608178 20.91550634 56.03125 23.71875 C58.83091214 25.33960703 61.65390919 26.89995669 64.5 28.4375 C68.37844824 30.53275365 72.19936736 32.70413855 76 34.9375 C80.50635771 37.58153641 85.04870858 40.13259208 89.64453125 42.6171875 C94.33642408 45.1624984 99.01131689 47.73846928 103.6875 50.3125 C104.59822266 50.81362305 105.50894531 51.31474609 106.44726562 51.83105469 C108.63160829 53.03302542 110.81585204 54.2351755 113 55.4375 C113 56.0975 113 56.7575 113 57.4375 C113.72783691 57.55125977 114.45567383 57.66501953 115.20556641 57.78222656 C118.1065036 58.46247428 120.13805352 59.4365311 122.7109375 60.921875 C123.61392578 61.43814453 124.51691406 61.95441406 125.44726562 62.48632812 C126.89649414 63.3284082 126.89649414 63.3284082 128.375 64.1875 C130.4556243 65.38039126 132.53635645 66.57309443 134.6171875 67.765625 C135.67905273 68.37728516 136.74091797 68.98894531 137.83496094 69.61914062 C141.76833495 71.87891922 145.71641261 74.11186367 149.66772461 76.34008789 C151.56032898 77.40752263 153.45176458 78.47703221 155.34204102 79.54858398 C160.28189886 82.34838549 165.23363557 85.12344185 170.20703125 87.86328125 C171.22925781 88.43046875 172.25148438 88.99765625 173.3046875 89.58203125 C175.23669824 90.65341902 177.17259985 91.71783674 179.11328125 92.7734375 C193.41367115 100.73426502 203.95799064 110.60733002 209.16015625 126.4765625 C211.65309184 136.5676337 210.80700878 147.53969394 208 157.4375 C207.34 157.4375 206.68 157.4375 206 157.4375 C205.85304688 158.75041016 205.85304688 158.75041016 205.703125 160.08984375 C204.12030336 167.62583346 198.65199424 174.38045252 193 179.4375 C192.13375 180.365625 191.2675 181.29375 190.375 182.25 C188 184.4375 188 184.4375 185 184.4375 C185 185.0975 185 185.7575 185 186.4375 C183.29605107 187.25915509 181.58660102 188.06940645 179.875 188.875 C178.92367187 189.32746094 177.97234375 189.77992188 176.9921875 190.24609375 C170.93799267 192.65670658 164.98006097 192.59260584 158.5625 192.5625 C157.74201172 192.56636719 156.92152344 192.57023438 156.07617188 192.57421875 C151.2787237 192.56656121 146.73055612 192.23972082 142 191.4375 C142 190.7775 142 190.1175 142 189.4375 C140.96875 189.355 139.9375 189.2725 138.875 189.1875 C134.66076747 188.37184209 132.4337593 186.93477949 129 184.4375 C128.01 184.1075 127.02 183.7775 126 183.4375 C126 182.7775 126 182.1175 126 181.4375 C125.01 181.4375 124.02 181.4375 123 181.4375 C123 180.7775 123 180.1175 123 179.4375 C122.30132812 179.3446875 121.60265625 179.251875 120.8828125 179.15625 C117.42149407 178.29326546 114.91448693 176.79623386 111.875 174.9375 C107.60317592 172.33143108 107.60317592 172.33143108 103 170.4375 C103 169.7775 103 169.1175 103 168.4375 C102.01 168.4375 101.02 168.4375 100 168.4375 C100 167.7775 100 167.1175 100 166.4375 C99.30132812 166.3446875 98.60265625 166.251875 97.8828125 166.15625 C94.42149407 165.29326546 91.91448693 163.79623386 88.875 161.9375 C84.60317592 159.33143108 84.60317592 159.33143108 80 157.4375 C80 156.7775 80 156.1175 80 155.4375 C79.01 155.4375 78.02 155.4375 77 155.4375 C77 154.7775 77 154.1175 77 153.4375 C76.33226562 153.3653125 75.66453125 153.293125 74.9765625 153.21875 C70.95806461 152.16402614 67.86718177 150.14057561 64.375 147.9375 C59.39984196 144.76591426 59.39984196 144.76591426 54 142.4375 C54 141.7775 54 141.1175 54 140.4375 C52.35 140.1075 50.7 139.7775 49 139.4375 C49 138.7775 49 138.1175 49 137.4375 C48.2575 137.31375 47.515 137.19 46.75 137.0625 C44.19858515 136.48263299 42.2732427 135.70041261 40 134.4375 C40 133.7775 40 133.1175 40 132.4375 C37.03 131.4475 34.06 130.4575 31 129.4375 C31 128.7775 31 128.1175 31 127.4375 C29.35 127.1075 27.7 126.7775 26 126.4375 C26 125.7775 26 125.1175 26 124.4375 C25.2575 124.31375 24.515 124.19 23.75 124.0625 C21.19858515 123.48263299 19.2732427 122.70041261 17 121.4375 C17 120.7775 17 120.1175 17 119.4375 C16.15824219 119.19128906 15.31648438 118.94507813 14.44921875 118.69140625 C10.6018394 117.29275532 7.31504371 115.4645645 3.8125 113.375 C-0.91890802 110.54879079 -0.91890802 110.54879079 -6 108.4375 C-6 107.7775 -6 107.1175 -6 106.4375 C-7.65 106.1075 -9.3 105.7775 -11 105.4375 C-11 104.7775 -11 104.1175 -11 103.4375 C-11.76570313 103.30021484 -11.76570313 103.30021484 -12.546875 103.16015625 C-15.98513843 102.14729202 -19.07334465 100.50529568 -22.25 98.875 C-22.8996875 98.54564453 -23.549375 98.21628906 -24.21875 97.87695312 C-25.81434294 97.06742435 -27.40742483 96.25294958 -29 95.4375 C-29 94.7775 -29 94.1175 -29 93.4375 C-30.0828125 93.06625 -30.0828125 93.06625 -31.1875 92.6875 C-39.69428791 88.90670537 -45.6107038 79.91074049 -49 71.4375 C-53.70299044 57.02228745 -53.20074432 43.04565123 -46.75 29.25 C-41.76308747 19.90704942 -34.37688556 10.65922537 -25 5.4375 C-24.01 5.4375 -23.02 5.4375 -22 5.4375 C-22 4.7775 -22 4.1175 -22 3.4375 C-14.57215969 0.74141582 -7.87385715 -0.05495712 0 0 Z " fill="#FFFFFF" transform="translate(313,165.5625)"/>
<path d="M0 0 C2.63073806 1.56200073 5.30858987 2.90232065 8.0625 4.234375 C15.34459958 7.81040604 22.24382357 11.97855514 29.20849609 16.12695312 C33.08065705 18.42071138 36.97773153 20.67112538 40.875 22.921875 C42.48177238 23.85025774 44.08854321 24.77864317 45.6953125 25.70703125 C46.89075684 26.39756592 46.89075684 26.39756592 48.11035156 27.10205078 C50.44781846 28.45418989 52.78289894 29.81035129 55.1171875 31.16796875 C66.54021941 37.80743991 78.02796094 44.32768947 89.53857422 50.81396484 C92.50790758 52.48883532 95.47502264 54.16756762 98.44140625 55.84765625 C107.29757118 60.86275205 116.15961451 65.86510212 125.0625 70.796875 C159.98587648 90.16186023 159.98587648 90.16186023 166.8125 98.046875 C167.32425781 98.62566406 167.83601562 99.20445312 168.36328125 99.80078125 C169.5 101.484375 169.5 101.484375 169.5 104.484375 C170.16 104.484375 170.82 104.484375 171.5 104.484375 C177.05597404 116.78542453 179.56927278 129.02679435 176.5 142.484375 C174.95373388 146.5394835 173.26423137 150.51973698 171.5 154.484375 C170.84 154.484375 170.18 154.484375 169.5 154.484375 C169.17 156.134375 168.84 157.784375 168.5 159.484375 C167.84 159.484375 167.18 159.484375 166.5 159.484375 C166.5 160.474375 166.5 161.464375 166.5 162.484375 C165.84 162.484375 165.18 162.484375 164.5 162.484375 C164.24992188 163.06445312 163.99984375 163.64453125 163.7421875 164.2421875 C158.70740765 173.33012346 147.62120212 178.62627814 138.08984375 181.51953125 C126.04994828 184.49149167 114.77998939 183.63546888 103.5859375 178.0234375 C101.94248439 177.02108375 100.31486032 175.99214788 98.70703125 174.93359375 C95.45624351 172.7990057 91.99904268 171.16660706 88.5 169.484375 C86.5 168.484375 84.5 167.484375 82.5 166.484375 C82.5 165.824375 82.5 165.164375 82.5 164.484375 C81.51 164.484375 80.52 164.484375 79.5 164.484375 C79.5 163.824375 79.5 163.164375 79.5 162.484375 C78.778125 162.37996094 78.05625 162.27554688 77.3125 162.16796875 C74.22380986 161.41724545 72.17051592 160.25350158 69.5 158.546875 C66.24023144 156.47386593 63.12743629 154.82523091 59.5 153.484375 C59.5 152.824375 59.5 152.164375 59.5 151.484375 C58.51 151.484375 57.52 151.484375 56.5 151.484375 C56.5 150.824375 56.5 150.164375 56.5 149.484375 C55.82066406 149.40058594 55.14132813 149.31679688 54.44140625 149.23046875 C50.72062887 148.28668591 47.69902187 146.50102119 44.4375 144.546875 C39.05662639 141.35462133 39.05662639 141.35462133 33.5 138.484375 C33.5 137.824375 33.5 137.164375 33.5 136.484375 C32.77425781 136.37222656 32.04851562 136.26007813 31.30078125 136.14453125 C28.37436007 135.45476113 26.27712191 134.42926686 23.6875 132.921875 C22.89730469 132.46683594 22.10710937 132.01179687 21.29296875 131.54296875 C20.70128906 131.19363281 20.10960937 130.84429688 19.5 130.484375 C19.5 129.824375 19.5 129.164375 19.5 128.484375 C18.3553125 128.29875 18.3553125 128.29875 17.1875 128.109375 C14.5 127.484375 14.5 127.484375 11.5 125.484375 C11.5 124.824375 11.5 124.164375 11.5 123.484375 C9.19 123.154375 6.88 122.824375 4.5 122.484375 C4.5 121.824375 4.5 121.164375 4.5 120.484375 C3.63375 120.29875 3.63375 120.29875 2.75 120.109375 C0.47664233 119.47788676 -1.4253529 118.59579309 -3.5 117.484375 C-3.5 116.824375 -3.5 116.164375 -3.5 115.484375 C-4.6446875 115.29875 -4.6446875 115.29875 -5.8125 115.109375 C-8.5 114.484375 -8.5 114.484375 -11.5 112.484375 C-11.5 111.824375 -11.5 111.164375 -11.5 110.484375 C-12.7065625 110.3915625 -12.7065625 110.3915625 -13.9375 110.296875 C-18.6635451 109.21900507 -22.37513427 106.96846081 -26.5 104.484375 C-26.5 103.824375 -26.5 103.164375 -26.5 102.484375 C-27.61375 102.29875 -27.61375 102.29875 -28.75 102.109375 C-31.30141485 101.52950799 -33.2267573 100.74728761 -35.5 99.484375 C-35.5 98.824375 -35.5 98.164375 -35.5 97.484375 C-36.09167969 97.30261719 -36.68335938 97.12085938 -37.29296875 96.93359375 C-45.80494164 94.22586991 -45.80494164 94.22586991 -49.5 91.484375 C-49.5 90.824375 -49.5 90.164375 -49.5 89.484375 C-50.61375 89.29875 -50.61375 89.29875 -51.75 89.109375 C-54.30141485 88.52950799 -56.2267573 87.74728761 -58.5 86.484375 C-58.5 85.824375 -58.5 85.164375 -58.5 84.484375 C-60.15 84.154375 -61.8 83.824375 -63.5 83.484375 C-63.5 82.824375 -63.5 82.164375 -63.5 81.484375 C-64.221875 81.278125 -64.94375 81.071875 -65.6875 80.859375 C-69.47218384 79.00908512 -71.02258653 76.88197062 -73.5 73.484375 C-73.5 72.824375 -73.5 72.164375 -73.5 71.484375 C-74.49 71.154375 -75.48 70.824375 -76.5 70.484375 C-78.14820195 67.88195086 -78.5 66.62188721 -78.5 63.484375 C-79.16 63.484375 -79.82 63.484375 -80.5 63.484375 C-80.83 60.844375 -81.16 58.204375 -81.5 55.484375 C-82.16 55.484375 -82.82 55.484375 -83.5 55.484375 C-83.5 46.904375 -83.5 38.324375 -83.5 29.484375 C-82.84 29.484375 -82.18 29.484375 -81.5 29.484375 C-81.37625 28.246875 -81.2525 27.009375 -81.125 25.734375 C-80.74253695 22.6081553 -80.19450477 20.19558263 -78.5 17.484375 C-77.84 17.484375 -77.18 17.484375 -76.5 17.484375 C-76.17 15.504375 -75.84 13.524375 -75.5 11.484375 C-74.84 11.484375 -74.18 11.484375 -73.5 11.484375 C-73.37818359 10.63166016 -73.37818359 10.63166016 -73.25390625 9.76171875 C-70.86642117 2.54978197 -62.06041119 -3.19870069 -55.5 -6.515625 C-35.7371871 -15.9799591 -17.81761203 -11.07889979 0 0 Z " fill="#FFFFFF" transform="translate(165.5,491.515625)"/>
<path d="M0 0 C21.78 0 43.56 0 66 0 C66.02254531 21.36567426 66.04097817 42.73133894 66.05181217 64.09702206 C66.05697556 74.01675275 66.06401907 83.93647555 66.07543945 93.85620117 C66.08538498 102.49896979 66.09185311 111.14173268 66.09408849 119.78450686 C66.09539583 124.36372463 66.09848308 128.94292605 66.10573006 133.5221386 C66.11248821 137.82711706 66.11461738 142.13207233 66.11310768 146.43705559 C66.1133841 148.02178066 66.11539044 149.60650646 66.11920547 151.19122696 C66.12413953 153.34540411 66.12299937 155.4994923 66.12025452 157.65367126 C66.12117631 158.86214187 66.1220981 160.07061247 66.12304783 161.31570339 C66 164 66 164 65 165 C43.55 165 22.1 165 0 165 C0 110.55 0 56.1 0 0 Z " fill="#FFFFFF" transform="translate(1660,910)"/>
</svg>
